<svg xmlns="http://www.w3.org/2000/svg" width="760.4" height="654.265" viewBox="0 0 760.4 654.265"><defs><style>.a{opacity:0.54;}.b{fill:#ebebeb;}.c,.d{fill:#64704b;}.d,.s{opacity:0.1;}.e,.t{fill:#fff;}.f{fill:#596340;}.g{fill:#27debf;}.h{fill:#74823a;}.i{fill:#3d3d3d;}.j{fill:#282828;}.k{fill:#2d2d2d;}.l{fill:#dbdbdb;}.m{fill:#434444;}.n{fill:#eae9e8;}.o{fill:#37474f;}.p{fill:#263238;}.q{fill:#e0922b;}.r{fill:#f4a93d;}.t{opacity:0.7;}.u{fill:#d3d1cf;}</style></defs><g transform="translate(-996 -1291)"><g transform="translate(996 1291)"><g class="a" transform="translate(72.761 296.418)"><path class="b" d="M173.34,544.226c130.905,69.874,343.145,69.876,474.048,0s130.907-183.163,0-253.037-343.145-69.874-474.05,0S42.432,474.352,173.34,544.226Z" transform="translate(-75.159 -238.785)"/></g><g transform="translate(0 257.524)"><g transform="translate(661.755)"><path class="c" d="M415.231,388.754l-19.1-11.027s-4.679-40.909-1.565-72.592c4.374-44.518,33.125-98.086,67.424-85.506s-15.727,57.919-26.862,95.679S415.231,388.754,415.231,388.754Z" transform="translate(-393.495 -217.764)"/><path class="d" d="M415.231,388.754l-19.1-11.027s-4.679-40.909-1.565-72.592c4.374-44.518,33.125-98.086,67.424-85.506s-15.727,57.919-26.862,95.679S415.231,388.754,415.231,388.754Z" transform="translate(-393.495 -217.764)"/><g transform="translate(9.739 11.084)"><path class="e" d="M400.807,378.656a.737.737,0,0,1-.729-.642c-6.5-49.893,11.279-125.453,47.168-154.1a.737.737,0,1,1,.918,1.153c-35.506,28.342-53.068,103.252-46.626,152.757a.734.734,0,0,1-.635.825A.568.568,0,0,1,400.807,378.656Z" transform="translate(-398.759 -223.754)"/></g></g><g transform="translate(679.948 59.028)"><path class="f" d="M417.066,369.523l-13.592-7.849S401.161,333.6,414.925,299.5c11.98-29.689,41.71-54.319,56.663-49.142s14.58,15.779,7.29,26.9S427.237,314.893,417.066,369.523Z" transform="translate(-403.328 -249.667)"/><g transform="translate(4.574 10.322)"><path class="e" d="M406.538,365.516l-.048,0a.738.738,0,0,1-.688-.783c4.479-69.859,39.822-104.218,61.045-109.465a.738.738,0,1,1,.355,1.432c-22.36,5.529-55.734,42.729-59.929,108.127A.735.735,0,0,1,406.538,365.516Z" transform="translate(-405.8 -255.246)"/></g></g><g transform="translate(36.663 81.812)"><path class="g" d="M152.433,356.6s2.533-41.023-21.3-69.134S76.285,259.444,66,264.686s-17.155,20.206.516,30.921,55.246,32.14,61.489,51.272Z" transform="translate(-55.649 -261.981)"/><path class="f" d="M152.433,356.6s2.533-41.023-21.3-69.134S76.285,259.444,66,264.686s-17.155,20.206.516,30.921,55.246,32.14,61.489,51.272Z" transform="translate(-55.649 -261.981)"/><g transform="translate(15.594 8.294)"><path class="e" d="M134.132,342.521a.924.924,0,0,1-.918-.827C128.3,296.3,82.944,271.145,64.856,268.3a.925.925,0,0,1-.768-1.058.938.938,0,0,1,1.058-.77c18.5,2.909,64.882,28.629,69.907,75.023a.927.927,0,0,1-.82,1.02A.959.959,0,0,1,134.132,342.521Z" transform="translate(-64.077 -266.464)"/></g></g><g transform="translate(0 134.042)"><path class="h" d="M149.322,311.92c-5.974-13.618-12.731-19.727-32.162-16.474S100.6,298.2,76.728,292.117c-10.019-2.553-21.292-2.955-30.9,1.369-8.121,3.654-14.2,11.107-6.33,18.983,8.84,8.85,22.038,11.821,31.855,19.572a15.412,15.412,0,0,1,5.11,6.158c2.564,6.548-2.572,13.928-1.077,20.8,1.445,6.639,8.715,10.519,15.494,10.966s13.451-1.593,20.2-2.365,14.341.054,18.989,5.009c5,5.325,5.129,13.81,9.771,19.448,6.972,8.47,24.1,10.811,33.289,5.512l24.216-13.96c16.012-21.579-9.162-38.668-22.473-55.414C168.42,320.08,152.909,320.1,149.322,311.92Z" transform="translate(-35.833 -290.21)"/><g transform="translate(15.398 8.826)"><path class="e" d="M175.237,366.563a.923.923,0,0,1-.788-.439c-27.626-44.762-102.758-67.4-129.433-69.295a.926.926,0,0,1-.859-.988.949.949,0,0,1,.988-.859c26.954,1.917,102.9,24.832,130.878,70.17a.924.924,0,0,1-.786,1.41Z" transform="translate(-44.156 -294.98)"/></g><g transform="translate(58.047 39.754)"><path class="e" d="M68.133,331.257a.924.924,0,0,1-.551-1.667c.964-.718,23.9-17.555,46.2-17.893h.013a.925.925,0,0,1,.015,1.85c-21.7.329-44.892,17.357-45.123,17.527A.912.912,0,0,1,68.133,331.257Z" transform="translate(-67.206 -311.696)"/></g></g></g><g transform="translate(129.724 0)"><path class="i" d="M114.071,430.654c0,4.794,3.588,10.75,8.011,13.305l224.481,129.6a17.7,17.7,0,0,0,16.023,0L669.737,396.229c4.426-2.555,8.013-8.511,8.013-13.305s-3.588-10.75-8.012-13.3l-224.481-129.6a17.7,17.7,0,0,0-16.023,0L122.081,417.351C117.657,419.9,114.071,425.862,114.071,430.654Z" transform="translate(-99.038 57.051)"/><path class="j" d="M206.686,308.581l-84.605,48.846c-4.424,2.553-8.01,8.511-8.01,13.3s3.588,10.75,8.011,13.305l224.481,129.6a16.386,16.386,0,0,0,8.011,1.917V308.581Z" transform="translate(-99.038 116.975)"/><path class="j" d="M113.463,553.268c-4.15-2.4-7.516-8.481-7.516-13.592l0-267.883a17.707,17.707,0,0,1,8.011-13.877L421.11,80.581c4.424-2.553,11.377-2.683,15.527-.285s7.517,8.48,7.517,13.59V361.771a17.713,17.713,0,0,1-8.011,13.877L128.989,552.981C124.565,555.534,117.614,555.664,113.463,553.268Z" transform="translate(-105.946 -78.579)"/><path class="j" d="M143.528,199.079l-35.234-20.341a16.37,16.37,0,0,0-2.348,7.9l0,267.883c0,5.11,3.364,11.194,7.516,13.592s11.1,2.267,15.525-.287L164.025,447.6Z" transform="translate(-105.946 6.579)"/><path class="i" d="M114.07,276.065V543.95c0,5.109,3.588,7.179,8.011,4.626L429.236,371.242a17.713,17.713,0,0,0,8.011-13.877V89.481c0-5.11-3.588-7.181-8.011-4.626L122.081,262.188A17.713,17.713,0,0,0,114.07,276.065Z" transform="translate(-99.039 -74.173)"/><path class="k" d="M119.925,426.6,344.407,556.2a17.7,17.7,0,0,0,16.023,0L667.582,378.872c4.424-2.555,4.424-6.7,0-9.251L443.1,240.018a17.7,17.7,0,0,0-16.023,0L119.925,417.351C115.5,419.9,115.5,424.047,119.925,426.6Z" transform="translate(-96.882 57.051)"/><path class="l" d="M122.939,267.735,421.471,95.379c2.655-1.532,4.807-.29,4.807,2.775v231.9a10.626,10.626,0,0,1-4.807,8.326L122.939,510.728c-2.655,1.534-4.807.291-4.807-2.775V276.061A10.626,10.626,0,0,1,122.939,267.735Z" transform="translate(-95.585 -64.853)"/><path class="m" d="M133.247,412.31l285.1-164.6a8.858,8.858,0,0,1,8.011,0l14.582,8.419c2.213,1.279,2.213,3.349,0,4.626L155.8,425.328a8.846,8.846,0,0,1-8.011,0l-14.539-8.393C131.034,415.659,131.034,413.588,133.247,412.31Z" transform="translate(-84.145 64.405)"/><path class="i" d="M153.558,424.038l285.1-164.605a8.858,8.858,0,0,1,8.011,0l89.693,51.786c2.211,1.277,2.211,3.349,0,4.626L251.586,480.22a8.885,8.885,0,0,1-8.019.013l-90-51.582C151.348,427.38,151.345,425.315,153.558,424.038Z" transform="translate(-66.874 74.374)"/><path class="j" d="M405.5,330.279l8.926-5.153c.379-.22.357-.588-.05-.823l-10.322-5.96a1.58,1.58,0,0,0-1.425-.03l-8.926,5.155c-.379.218-.357.587.052.822l10.321,5.96A1.58,1.58,0,0,0,405.5,330.279ZM387.882,309.8l-8.927,5.153c-.377.22-.355.588.052.823l10.321,5.96a1.58,1.58,0,0,0,1.425.03l8.927-5.155c.379-.218.357-.587-.05-.822l-10.324-5.96A1.576,1.576,0,0,0,387.882,309.8Zm-28.839,16.65-15.107,8.722c-.379.218-.355.588.05.821l10.322,5.96a1.58,1.58,0,0,0,1.425.03l15.107-8.722c.379-.218.355-.587-.052-.822l-10.321-5.96A1.58,1.58,0,0,0,359.043,326.451Zm15.794-9.118-8.927,5.155c-.379.218-.357.587.052.822l10.321,5.96a1.58,1.58,0,0,0,1.425.03l8.926-5.155c.379-.22.357-.587-.05-.821l-10.322-5.96A1.57,1.57,0,0,0,374.836,317.333Zm-35.019,20.219-8.927,5.153c-.379.22-.357.587.05.822l10.322,5.96a1.574,1.574,0,0,0,1.425.03l8.925-5.153c.379-.22.357-.587-.05-.822l-10.322-5.96A1.565,1.565,0,0,0,339.817,337.553Zm-13.048,7.532-8.925,5.153c-.379.218-.357.587.05.823l10.322,5.958a1.565,1.565,0,0,0,1.423.03l8.927-5.153c.379-.22.357-.588-.052-.823l-10.321-5.958A1.574,1.574,0,0,0,326.769,345.085Zm40.6,24.234,8.927-5.155c.377-.218.357-.587-.052-.822l-10.321-5.96a1.58,1.58,0,0,0-1.425-.03l-8.926,5.153c-.379.22-.359.588.05.823l10.322,5.96A1.576,1.576,0,0,0,367.37,369.319Zm-13.046,7.532,8.927-5.155c.379-.218.355-.586-.052-.822l-10.321-5.96a1.58,1.58,0,0,0-1.425-.03l-8.927,5.155c-.379.218-.355.587.05.822l10.322,5.96A1.58,1.58,0,0,0,354.324,376.852Zm-13.048,7.532,8.927-5.155c.379-.218.357-.587-.05-.822l-10.322-5.96a1.58,1.58,0,0,0-1.425-.03l-8.926,5.155c-.379.218-.357.587.05.822l10.322,5.96A1.576,1.576,0,0,0,341.277,384.384Zm-13.046,7.532,8.927-5.155c.379-.218.355-.587-.052-.821l-10.321-5.96a1.58,1.58,0,0,0-1.425-.03l-8.925,5.155c-.379.218-.357.587.05.821l10.321,5.96A1.58,1.58,0,0,0,328.231,391.916Zm64.221-54.1,8.925-5.155c.379-.218.357-.586-.05-.821l-10.322-5.96a1.576,1.576,0,0,0-1.423-.03L380.655,331c-.379.218-.357.587.05.822l10.322,5.96A1.58,1.58,0,0,0,392.452,337.812Zm-12.034,23.973,19.912-11.5c.379-.22.357-.588-.052-.823l-25.067-14.472a1.57,1.57,0,0,0-1.423-.028l-10.3,5.945c-.379.22-.357.588.05.823L376.81,349.4c.407.235.429.6.05.822l-8.239,4.759c-.379.218-.357.586.05.821l10.322,5.96A1.574,1.574,0,0,0,380.418,361.785Zm-66.7-9.168L304.8,357.77c-.379.22-.355.588.052.821l10.321,5.961a1.58,1.58,0,0,0,1.425.028l8.927-5.153c.379-.22.355-.587-.052-.823l-10.321-5.958A1.574,1.574,0,0,0,313.723,352.617Zm-13.046,7.532L291.75,365.3c-.379.22-.357.588.05.823l10.322,5.96a1.58,1.58,0,0,0,1.425.03l8.926-5.155c.379-.218.357-.588-.05-.822l-10.322-5.96A1.576,1.576,0,0,0,300.677,360.149Zm-65.195,84.465a1.57,1.57,0,0,0,1.423.028l8.927-5.153c.377-.218.355-.588-.052-.823l-10.321-5.958a1.58,1.58,0,0,0-1.425-.03l-8.927,5.153c-.379.22-.355.586.05.823ZM196.3,420.408l-8.925,5.155c-.379.218-.357.587.05.822l10.322,5.96a1.576,1.576,0,0,0,1.423.03l8.927-5.155c.379-.218.357-.586-.052-.821l-10.321-5.958A1.574,1.574,0,0,0,196.3,420.408Zm21,17.675a1.58,1.58,0,0,0,1.425.03l8.925-5.155c.379-.218.357-.588-.05-.822l-10.322-5.96a1.57,1.57,0,0,0-1.423-.03L206.93,431.3c-.379.22-.357.588.052.823Zm41.216,11.109,8.926-5.153c.379-.22.357-.588-.05-.823l-10.322-5.96a1.574,1.574,0,0,0-1.425-.028l-8.926,5.153c-.377.218-.355.587.052.822l10.321,5.96A1.574,1.574,0,0,0,258.518,449.192Zm-14.471,7.5a1.576,1.576,0,0,0,1.423.03l8.927-5.155c.379-.218.357-.587-.05-.821l-10.322-5.96a1.58,1.58,0,0,0-1.425-.03l-8.925,5.155c-.379.218-.357.587.05.822Zm-34.7-43.819-8.925,5.155c-.379.218-.357.587.052.822l10.321,5.96a1.58,1.58,0,0,0,1.425.03l8.925-5.155c.379-.218.357-.587-.05-.822l-10.322-5.96A1.58,1.58,0,0,0,209.35,412.875Zm65.233-37.661-8.927,5.153c-.377.22-.355.588.052.823l10.321,5.96a1.58,1.58,0,0,0,1.425.03l8.927-5.155c.379-.218.355-.586-.052-.822l-10.322-5.96A1.576,1.576,0,0,0,274.583,375.214ZM222.4,405.345,213.47,410.5c-.379.218-.355.587.052.822l10.321,5.96a1.574,1.574,0,0,0,1.425.03l8.927-5.155c.379-.218.355-.587-.052-.822l-10.322-5.96A1.57,1.57,0,0,0,222.4,405.345Zm65.232-37.663-8.926,5.155c-.379.218-.357.587.05.822l10.322,5.96a1.57,1.57,0,0,0,1.423.028l8.927-5.153c.379-.218.357-.587-.05-.822l-10.322-5.961A1.58,1.58,0,0,0,287.629,367.682Zm-26.092,15.065L252.61,387.9c-.379.218-.357.587.05.821l10.322,5.96a1.574,1.574,0,0,0,1.425.028l8.926-5.153c.379-.218.359-.587-.05-.822l-10.322-5.96A1.57,1.57,0,0,0,261.537,382.746Zm-13.046,7.532-8.927,5.155c-.379.218-.357.587.05.821l10.322,5.96a1.58,1.58,0,0,0,1.425.03l8.927-5.155c.377-.218.355-.587-.052-.821l-10.322-5.96A1.576,1.576,0,0,0,248.491,390.279Zm-13.048,7.532-8.925,5.155c-.379.218-.357.587.05.821l10.322,5.96a1.576,1.576,0,0,0,1.423.03l8.927-5.155c.379-.218.357-.587-.052-.822l-10.321-5.96A1.58,1.58,0,0,0,235.444,397.811Zm66.7,9.17,8.925-5.153c.379-.22.357-.588-.05-.823l-10.322-5.96a1.574,1.574,0,0,0-1.425-.028l-8.925,5.153c-.379.218-.357.586.05.821l10.322,5.96A1.58,1.58,0,0,0,302.139,406.981Zm114.583-113.83L407.8,298.3c-.379.22-.357.588.05.823l10.322,5.96a1.57,1.57,0,0,0,1.423.028l8.927-5.153c.379-.218.355-.587-.052-.822l-10.321-5.961A1.579,1.579,0,0,0,416.721,293.151Zm-15.794,9.118L392,307.424c-.379.218-.357.585.05.822l10.322,5.96a1.57,1.57,0,0,0,1.423.028l8.927-5.153c.379-.218.357-.587-.05-.821l-10.322-5.96A1.58,1.58,0,0,0,400.928,302.269Zm28.84-16.65-8.926,5.153c-.379.218-.357.588.05.823l10.322,5.958a1.57,1.57,0,0,0,1.423.03l8.927-5.153c.379-.22.357-.588-.05-.823l-10.322-5.96A1.579,1.579,0,0,0,429.767,285.619Zm-67.53,69.635,8.927-5.153c.379-.218.355-.586-.052-.822l-10.321-5.96a1.58,1.58,0,0,0-1.425-.03l-8.927,5.155c-.379.218-.355.587.05.822l10.322,5.96A1.574,1.574,0,0,0,362.238,355.254Zm82-77.14a1.58,1.58,0,0,0-1.425-.028l-8.926,5.153c-.379.22-.357.586.052.822l10.321,5.96a1.565,1.565,0,0,0,1.423.03l8.927-5.155c.379-.218.357-.585-.05-.82ZM315.185,399.448l8.926-5.153c.379-.22.357-.588-.05-.823l-10.322-5.96a1.576,1.576,0,0,0-1.423-.03l-8.927,5.155c-.379.218-.357.587.052.821l10.321,5.96A1.58,1.58,0,0,0,315.185,399.448Zm159.991-92.373,8.927-5.153c.379-.218.355-.586-.052-.822l-10.322-5.96a1.576,1.576,0,0,0-1.423-.03l-8.927,5.155c-.377.218-.357.586.052.822l10.321,5.96A1.574,1.574,0,0,0,475.176,307.076Zm-27.792-.979,8.927-5.155c.379-.218.355-.586-.052-.821l-10.322-5.96a1.576,1.576,0,0,0-1.423-.03l-8.926,5.153c-.381.22-.359.588.05.823l10.322,5.96A1.576,1.576,0,0,0,447.383,306.1Zm11.6-19.468a1.574,1.574,0,0,0-1.425-.03l-8.927,5.155c-.377.218-.355.587.052.822l10.322,5.96a1.582,1.582,0,0,0,1.423.03l8.927-5.155c.379-.218.357-.587-.05-.821Zm2.748-1.586L486.8,299.516a1.576,1.576,0,0,0,1.423.03l8.927-5.153c.379-.22.355-.588-.05-.823L472.03,279.1a1.58,1.58,0,0,0-1.425-.03l-8.925,5.153C461.3,284.438,461.323,284.808,461.732,285.043Zm-30.264,16.621-8.927,5.155c-.379.218-.357.587.05.821l10.322,5.958a1.568,1.568,0,0,0,1.425.03l8.927-5.153c.377-.22.355-.587-.052-.821l-10.321-5.96A1.58,1.58,0,0,0,431.468,301.664Zm-98.192,56.691-8.927,5.155c-.379.218-.357.587.05.821l10.322,5.96a1.576,1.576,0,0,0,1.423.03l8.927-5.155c.379-.218.357-.587-.052-.821l-10.321-5.96A1.576,1.576,0,0,0,333.276,358.355ZM460.7,314.58a1.58,1.58,0,0,0,1.425.03l8.927-5.153c.377-.22.355-.588-.052-.823l-10.322-5.96a1.576,1.576,0,0,0-1.423-.03l-8.927,5.155c-.379.218-.357.587.05.822ZM346.322,350.823l-8.927,5.155c-.379.218-.355.587.052.821l10.321,5.96a1.579,1.579,0,0,0,1.425.03l8.926-5.155c.381-.218.357-.587-.05-.822l-10.322-5.96A1.576,1.576,0,0,0,346.322,350.823ZM248.528,437.08a1.576,1.576,0,0,0,1.423.03l8.927-5.153c.379-.22.357-.588-.052-.823l-10.321-5.96a1.574,1.574,0,0,0-1.425-.028l-8.925,5.153c-.379.218-.357.588.05.821ZM228.9,418.615l-8.927,5.153c-.377.22-.355.588.052.823l10.322,5.958a1.57,1.57,0,0,0,1.423.03l8.927-5.153c.379-.22.355-.587-.052-.823l-10.321-5.96A1.58,1.58,0,0,0,228.9,418.615ZM263,429.577l8.927-5.153c.379-.22.357-.588-.05-.823l-10.322-5.958a1.574,1.574,0,0,0-1.425-.03l-8.925,5.153c-.379.218-.357.588.05.822l10.322,5.96A1.57,1.57,0,0,0,263,429.577Zm13.048-7.532,8.926-5.153c.379-.22.357-.587-.05-.823l-10.322-5.96a1.576,1.576,0,0,0-1.423-.03l-8.927,5.155c-.379.22-.357.587.052.822l10.322,5.96A1.576,1.576,0,0,0,276.045,422.045Zm13.046-7.532,8.927-5.153c.379-.22.355-.588-.05-.823l-10.322-5.96a1.574,1.574,0,0,0-1.425-.028l-8.927,5.153c-.379.218-.355.587.052.822l10.322,5.96A1.576,1.576,0,0,0,289.091,414.513Zm-47.142-3.43-8.925,5.153c-.379.218-.357.587.05.823l10.322,5.958a1.574,1.574,0,0,0,1.425.03l8.926-5.153c.379-.218.357-.588-.05-.823l-10.322-5.958A1.574,1.574,0,0,0,241.949,411.083ZM255,403.548,246.07,408.7c-.379.22-.357.586.05.821l10.322,5.96a1.574,1.574,0,0,0,1.425.03l8.927-5.155c.377-.218.355-.585-.052-.821l-10.322-5.96A1.582,1.582,0,0,0,255,403.548Zm52.186-30.127-8.927,5.153c-.379.218-.355.587.052.822l10.321,5.96a1.58,1.58,0,0,0,1.425.03l8.925-5.155c.379-.218.357-.587-.05-.822l-10.322-5.96A1.57,1.57,0,0,0,307.182,373.421Zm-13.048,7.53-8.925,5.155c-.379.218-.357.588.05.822l10.322,5.96a1.576,1.576,0,0,0,1.423.03l8.927-5.153c.379-.22.357-.588-.05-.823l-10.322-5.96A1.58,1.58,0,0,0,294.135,380.952Zm26.094-15.065-8.927,5.155c-.379.218-.355.587.052.821l10.321,5.96a1.58,1.58,0,0,0,1.425.03l8.927-5.155c.379-.218.355-.587-.052-.822l-10.321-5.96A1.58,1.58,0,0,0,320.228,365.887Zm-52.186,30.129-8.926,5.155c-.379.218-.359.587.05.821l10.322,5.96a1.57,1.57,0,0,0,1.423.03l8.927-5.153c.377-.22.355-.588-.052-.823l-10.322-5.958A1.576,1.576,0,0,0,268.043,396.016Zm13.046-7.532-8.927,5.155c-.377.22-.355.587.052.822l10.322,5.96a1.576,1.576,0,0,0,1.423.03l8.927-5.155c.379-.218.357-.587-.05-.821l-10.322-5.958A1.574,1.574,0,0,0,281.089,388.484Zm-9.525,53.176,8.927-5.155c.379-.218.355-.586-.05-.822l-10.322-5.96a1.58,1.58,0,0,0-1.425-.03l-8.927,5.155c-.379.218-.355.587.052.822l10.321,5.96A1.58,1.58,0,0,0,271.564,441.659Zm-76.559-7.73-10.324-5.96a1.576,1.576,0,0,0-1.423-.03l-8.927,5.155c-.379.218-.355.587.052.821l10.321,5.96a1.58,1.58,0,0,0,1.425.03l8.927-5.153C195.434,434.532,195.41,434.164,195.005,433.929Zm19.551,5.739-10.322-5.96a1.574,1.574,0,0,0-1.425-.03l-13.732,7.928c-.379.218-.357.588.05.823l10.322,5.958a1.574,1.574,0,0,0,1.425.03l13.732-7.928C214.986,440.27,214.964,439.9,214.556,439.668Zm-35.389-17.261-10.321-5.96a1.58,1.58,0,0,0-1.425-.03l-10.987,6.344c-.379.218-.357.587.05.821l10.322,5.96a1.576,1.576,0,0,0,1.423.03l10.988-6.344C179.6,423.011,179.574,422.643,179.167,422.408Zm8.424-4.862a1.576,1.576,0,0,0,1.423.03l8.927-5.155c.379-.218.357-.587-.05-.822l-10.324-5.96a1.576,1.576,0,0,0-1.423-.03l-8.925,5.153c-.381.22-.357.588.05.823ZM232.735,446.2l-10.322-5.96a1.576,1.576,0,0,0-1.423-.028l-17.166,9.91c-.379.22-.357.588.05.823L214.2,456.9a1.576,1.576,0,0,0,1.423.03l17.166-9.912C233.164,446.8,233.142,446.435,232.735,446.2ZM241.3,458.28l-10.322-5.958a1.574,1.574,0,0,0-1.425-.031l-10.987,6.344c-.379.218-.355.587.052.822l10.321,5.96a1.58,1.58,0,0,0,1.425.03l10.987-6.344C241.731,458.883,241.707,458.515,241.3,458.28Zm43.292-96.739a1.576,1.576,0,0,0,1.423.03l8.926-5.155c.381-.218.359-.586-.05-.821l-10.321-5.96a1.58,1.58,0,0,0-1.425-.03l-8.925,5.155c-.381.218-.357.587.05.821ZM258.5,376.605a1.58,1.58,0,0,0,1.425.03l8.926-5.155c.379-.218.357-.587-.05-.822l-10.322-5.96a1.576,1.576,0,0,0-1.423-.03l-8.927,5.155c-.379.218-.357.587.05.822Zm-57.862,33.406a1.57,1.57,0,0,0,1.423.03l8.927-5.153c.379-.218.357-.587-.05-.822l-10.322-5.96a1.574,1.574,0,0,0-1.425-.03l-8.925,5.155c-.379.218-.357.587.05.822Zm70.908-40.938a1.58,1.58,0,0,0,1.425.03l8.927-5.155c.379-.218.355-.587-.052-.821l-10.321-5.96a1.58,1.58,0,0,0-1.425-.03l-8.927,5.155c-.379.218-.355.587.05.821Zm-26.092,15.065a1.576,1.576,0,0,0,1.423.03l8.927-5.153c.379-.22.357-.588-.052-.823l-10.321-5.96a1.574,1.574,0,0,0-1.425-.028l-8.927,5.153c-.379.218-.355.586.052.822Zm3.018,75.112a1.574,1.574,0,0,0-1.425-.03l-13.732,7.928c-.379.218-.357.586.05.821l10.322,5.96a1.58,1.58,0,0,0,1.425.03l13.732-7.928c.379-.218.357-.588-.052-.823Zm-21.742-64.3a1.585,1.585,0,0,0,1.425.028l8.927-5.153c.379-.22.355-.587-.052-.823l-10.321-5.96a1.574,1.574,0,0,0-1.425-.028l-8.927,5.153c-.379.218-.355.587.052.821Zm-13.046,7.532a1.58,1.58,0,0,0,1.425.03l8.926-5.155c.379-.218.357-.588-.05-.822l-10.322-5.96a1.576,1.576,0,0,0-1.423-.03l-8.927,5.153c-.379.22-.357.588.05.823ZM490.174,319.7a1.57,1.57,0,0,0-1.423-.03l-21.973,12.685c-.379.22-.357.588.05.823l10.322,5.958a1.568,1.568,0,0,0,1.425.03l21.973-12.685c.377-.22.355-.587-.052-.822Zm-28.839,16.65a1.576,1.576,0,0,0-1.423-.03l-8.927,5.153c-.379.22-.355.588.052.823l10.321,5.96a1.574,1.574,0,0,0,1.425.028l8.927-5.153c.379-.218.355-.587-.052-.823ZM284.612,434.127l8.925-5.155c.379-.218.357-.587-.052-.822l-10.321-5.96a1.58,1.58,0,0,0-1.425-.03l-8.926,5.155c-.379.218-.357.587.05.821l10.322,5.96A1.58,1.58,0,0,0,284.612,434.127Zm150.631-82.711a1.58,1.58,0,0,0-1.425-.03l-8.927,5.153c-.377.22-.355.588.052.823l10.322,5.96a1.576,1.576,0,0,0,1.423.03l8.927-5.155c.379-.218.357-.587-.05-.822Zm67.979-39.249a1.574,1.574,0,0,0-1.425-.028l-8.927,5.153c-.377.22-.355.588.052.822l10.322,5.96a1.576,1.576,0,0,0,1.423.03l8.927-5.153c.379-.22.355-.588-.05-.823ZM526.59,310.6l-25.069-14.474a1.576,1.576,0,0,0-1.423-.03l-8.927,5.155c-.379.218-.357.587.052.822l25.067,14.474a1.579,1.579,0,0,0,1.425.028l8.926-5.153C527.019,311.2,527,310.83,526.59,310.6Zm-140.1,68.967a1.576,1.576,0,0,0-1.423-.03l-10.987,6.343c-.379.218-.357.588.05.823l10.322,5.958a1.57,1.57,0,0,0,1.423.03l10.987-6.343c.379-.218.357-.588-.05-.821Zm32.96-19.03a1.576,1.576,0,0,0-1.423-.03l-13.734,7.93c-.379.218-.357.587.05.821l10.322,5.96a1.579,1.579,0,0,0,1.425.03l13.732-7.93c.379-.218.357-.587-.05-.822Zm-63.172,36.472a1.574,1.574,0,0,0-1.425-.028L281.381,439.4c-.379.22-.357.588.05.822l10.322,5.96a1.564,1.564,0,0,0,1.423.03l73.472-42.418c.379-.22.357-.588-.05-.823Zm-77.593,44.8a1.576,1.576,0,0,0-1.423-.03l-10.987,6.343c-.381.218-.357.587.05.823l10.322,5.96a1.576,1.576,0,0,0,1.423.028l10.988-6.343c.377-.22.355-.587-.052-.821Zm92.7-53.52a1.576,1.576,0,0,0-1.423-.03L358.972,394.6c-.379.22-.357.588.05.823l10.322,5.958a1.568,1.568,0,0,0,1.425.03l10.987-6.343c.379-.218.355-.587-.052-.822Zm-107.805,62.24a1.575,1.575,0,0,0-1.423-.028l-10.987,6.343c-.379.22-.357.587.052.822l10.321,5.96a1.574,1.574,0,0,0,1.425.03l10.987-6.343c.377-.22.355-.586-.052-.823ZM401.6,370.842a1.58,1.58,0,0,0-1.425-.03l-10.987,6.344c-.377.218-.355.587.052.821l10.322,5.96a1.57,1.57,0,0,0,1.423.028l10.987-6.343c.379-.218.357-.587-.052-.822Zm46.692-26.958a1.58,1.58,0,0,0-1.425-.03l-8.926,5.155c-.379.218-.357.585.052.821l10.321,5.96a1.58,1.58,0,0,0,1.425.03l8.926-5.155c.379-.218.357-.587-.05-.822Zm28.586-20.761,8.927-5.153c.379-.22.357-.588-.05-.823l-10.322-5.96a1.574,1.574,0,0,0-1.425-.028l-8.927,5.153c-.377.218-.355.586.052.821l10.322,5.96A1.576,1.576,0,0,0,476.874,323.123Zm-58.33-.376,8.927-5.155c.379-.218.355-.586-.05-.822l-10.324-5.96a1.576,1.576,0,0,0-1.423-.03l-8.927,5.155c-.379.218-.355.587.052.822l10.321,5.96A1.58,1.58,0,0,0,418.544,322.747Zm-29.561,51.12L415.077,358.8c.379-.218.355-.586-.052-.821l-10.322-5.96a1.576,1.576,0,0,0-1.423-.03l-26.094,15.065c-.379.218-.357.588.052.823l10.321,5.958A1.574,1.574,0,0,0,388.983,373.867Zm73.423-43.242a1.576,1.576,0,0,0,1.423.03l8.925-5.153c.381-.22.357-.588-.05-.823l-10.322-5.96a1.57,1.57,0,0,0-1.423-.028l-8.927,5.153c-.377.218-.355.588.052.822Zm-13.323-8.483,8.927-5.155c.379-.218.357-.587-.05-.822l-10.322-5.96a1.576,1.576,0,0,0-1.423-.03l-8.927,5.155c-.379.218-.357.587.05.822l10.322,5.96A1.576,1.576,0,0,0,449.082,322.142ZM375.935,381.4l8.927-5.153c.379-.22.357-.587-.05-.822l-10.322-5.96a1.574,1.574,0,0,0-1.425-.03l-8.926,5.153c-.379.22-.357.587.05.823l10.322,5.958A1.565,1.565,0,0,0,375.935,381.4Zm57.629-34.122a1.574,1.574,0,0,0,1.425.028l8.926-5.153c.381-.218.357-.588-.05-.821l-10.322-5.96a1.576,1.576,0,0,0-1.423-.03l-8.927,5.153c-.379.22-.357.588.052.823ZM310.7,419.063l8.927-5.155c.377-.218.355-.587-.052-.821l-10.321-5.96a1.58,1.58,0,0,0-1.425-.03l-8.926,5.155c-.381.218-.357.587.05.821l10.321,5.96A1.58,1.58,0,0,0,310.7,419.063Zm13.046-7.534,8.927-5.153c.379-.218.357-.587-.05-.822L322.3,399.593a1.581,1.581,0,0,0-1.423-.028l-8.927,5.155c-.379.218-.357.587.05.822l10.322,5.96A1.57,1.57,0,0,0,323.749,411.528Zm-26.092,15.065,8.926-5.153c.379-.218.357-.587-.05-.821l-10.322-5.96a1.576,1.576,0,0,0-1.423-.03l-8.927,5.155c-.379.218-.357.586.05.821l10.322,5.96A1.574,1.574,0,0,0,297.658,426.593Zm52.186-30.129,8.926-5.153c.379-.218.357-.587-.05-.822L348.4,384.53a1.57,1.57,0,0,0-1.423-.03l-8.927,5.155c-.377.218-.357.585.052.82l10.321,5.961A1.58,1.58,0,0,0,349.843,396.464ZM336.8,404l8.927-5.153c.379-.218.357-.586-.05-.822l-10.322-5.96a1.574,1.574,0,0,0-1.425-.03L325,397.185c-.379.22-.357.588.05.823l10.322,5.96A1.575,1.575,0,0,0,336.8,404Zm26.094-15.065,8.927-5.153c.379-.218.355-.588-.05-.823L361.444,377a1.574,1.574,0,0,0-1.425-.03l-8.927,5.153c-.378.218-.355.588.052.823l10.321,5.96A1.574,1.574,0,0,0,362.889,388.932ZM422.577,277.5a1.58,1.58,0,0,0,1.425.03l8.925-5.155c.379-.218.357-.585-.05-.822l-2.748-1.586a1.58,1.58,0,0,0-1.425-.03l-8.927,5.155c-.377.218-.355.587.052.821Zm-64.192,41.434a1.57,1.57,0,0,0,1.423.03l8.927-5.153c.379-.218.357-.588-.05-.823l-10.322-5.958a1.574,1.574,0,0,0-1.425-.031l-8.926,5.155c-.379.218-.357.588.05.823Zm26.094-15.065a1.576,1.576,0,0,0,1.423.03l8.925-5.153c.379-.22.357-.588-.05-.823l-10.322-5.96a1.576,1.576,0,0,0-1.423-.03l-8.927,5.155c-.377.218-.357.588.052.822Zm-42.024,24.262a1.57,1.57,0,0,0,1.423.03l8.927-5.153c.379-.218.357-.588-.052-.823l-10.321-5.96a1.58,1.58,0,0,0-1.425-.028l-8.925,5.153c-.379.218-.357.588.05.823Zm28.976-16.73a1.574,1.574,0,0,0,1.425.03l8.926-5.155c.379-.218.357-.587-.05-.82l-10.322-5.96a1.564,1.564,0,0,0-1.423-.03l-8.927,5.153c-.379.22-.357.586.05.821Zm-55.07,31.8a1.58,1.58,0,0,0,1.425.028l8.926-5.153c.379-.218.357-.588-.05-.823l-10.322-5.958a1.574,1.574,0,0,0-1.425-.03l-8.925,5.153c-.379.22-.357.588.05.823Zm13.046-7.532a1.574,1.574,0,0,0,1.425.028l8.927-5.153c.379-.22.355-.587-.052-.821l-10.322-5.96a1.57,1.57,0,0,0-1.423-.03l-8.927,5.153c-.379.22-.355.586.052.823Zm67.076-43.1a1.574,1.574,0,0,0,1.425.03l8.927-5.155c.378-.218.355-.585-.052-.822l-2.748-1.586a1.576,1.576,0,0,0-1.423-.03l-8.927,5.155c-.379.218-.357.587.05.822Zm39.14-22.6a1.574,1.574,0,0,0,1.425.03l8.927-5.153c.378-.22.355-.588-.052-.823l-2.748-1.587a1.585,1.585,0,0,0-1.425-.028l-8.926,5.153c-.379.22-.357.588.05.823Zm21.683,12.519a1.58,1.58,0,0,0,1.425.03l8.927-5.153c.379-.22.355-.588-.05-.823l-10.324-5.96a1.576,1.576,0,0,0-1.423-.03l-8.927,5.155c-.379.218-.357.588.052.821Zm32.614,33.1,8.927-5.155c.379-.218.357-.587-.05-.821l-10.322-5.96a1.58,1.58,0,0,0-1.425-.03l-8.926,5.155c-.379.218-.357.587.05.822l10.322,5.96A1.576,1.576,0,0,0,489.92,315.59Zm-80.389-30.556a1.57,1.57,0,0,0,1.423.03l8.927-5.153c.379-.22.355-.588-.052-.823l-2.748-1.586a1.576,1.576,0,0,0-1.423-.03l-8.927,5.155c-.379.218-.357.587.052.822Zm-106.216,65.7a1.57,1.57,0,0,0,1.423.028l8.927-5.153c.379-.218.357-.587-.05-.822l-10.322-5.96a1.574,1.574,0,0,0-1.425-.03l-8.927,5.155c-.377.218-.355.587.052.82Z" transform="translate(-63.249 77.585)"/><path class="m" d="M264.368,379.819l97.7-56.409L422.2,358.123l-97.7,56.409Z" transform="translate(28.748 129.583)"/></g><g transform="translate(199.087 55.643)"><path class="n" d="M150.1,278.14,441.231,110.056c5.693-3.288,10.352-.6,10.352,5.976V341.525a10.669,10.669,0,0,1-4.807,8.326L148.242,522.2c-2.644,1.526-4.807.278-4.807-2.775V289.678A14.777,14.777,0,0,1,150.1,278.14Z" transform="translate(-143.435 -108.653)"/><path class="c" d="M451.581,121.433v-5.4c0-6.574-4.657-9.264-10.35-5.976L150.1,278.14a14.777,14.777,0,0,0-6.661,11.538v9.664Z" transform="translate(-143.435 -108.653)"/><path class="e" d="M288.155,122.438a7.878,7.878,0,0,0-3.565,6.174c0,2.274,1.6,3.2,3.565,2.057a7.878,7.878,0,0,0,3.565-6.174C291.721,122.222,290.124,121.3,288.155,122.438Z" transform="translate(-23.421 -97.346)"/><path class="e" d="M295.8,118.023a7.881,7.881,0,0,0-3.565,6.174c0,2.274,1.6,3.2,3.565,2.059a7.882,7.882,0,0,0,3.565-6.176C299.368,117.806,297.771,116.887,295.8,118.023Z" transform="translate(-16.92 -101.1)"/><path class="e" d="M303.449,113.608a7.879,7.879,0,0,0-3.565,6.176c0,2.274,1.595,3.2,3.565,2.057a7.876,7.876,0,0,0,3.564-6.174C307.013,113.393,305.418,112.471,303.449,113.608Z" transform="translate(-10.418 -104.853)"/></g><g transform="translate(176.265 200.189)"><g transform="translate(0 150.006)"><g transform="translate(55.59)"><rect class="o" width="13.079" height="55.493" transform="translate(27.746 0) rotate(30)"/><rect class="p" width="6.54" height="55.493" transform="translate(33.41 3.27) rotate(30)"/></g><g transform="translate(0 27.792)"><path class="q" d="M156.27,396.98c-5.168,8.961-29.576-5.281-24.473-14.13l63.744-99.407a1.24,1.24,0,0,1,1.665-.405l12.8,7.392a1.241,1.241,0,0,1,.483,1.643Z" transform="translate(-131.1 -282.871)"/><path class="r" d="M151.268,395.053l54.219-104.908A1.241,1.241,0,0,0,205,288.5l-5.828-3.366L136.984,395.623C142.677,398.408,148.935,399.1,151.268,395.053Z" transform="translate(-126.098 -280.945)"/></g></g><g transform="translate(58.567)"><path class="q" d="M316.713,244.633c-.019-.759-.056-1.5-.111-2.239-.037-.74-.093-1.462-.167-2.183-.037-.481-.092-.962-.148-1.443-.13-1.258-.315-2.5-.518-3.682-.092-.537-.185-1.092-.3-1.628-.092-.518-.2-1.018-.315-1.517-.315-1.369-.648-2.7-1.036-3.978-.2-.611-.389-1.221-.592-1.813a1.63,1.63,0,0,1-.093-.278c-.222-.592-.426-1.166-.648-1.721-.259-.648-.518-1.3-.814-1.906-.2-.463-.407-.907-.648-1.351a6.673,6.673,0,0,0-.481-.962c-.185-.389-.387-.777-.611-1.147-.056-.092-.093-.185-.148-.259-.185-.333-.389-.666-.592-1-.129-.222-.278-.426-.407-.629a33.762,33.762,0,0,0-3.182-4.237c-.2-.222-.407-.444-.592-.666-.167-.185-.333-.352-.5-.518-.2-.222-.426-.426-.648-.648a20.7,20.7,0,0,0-1.924-1.721c-.315-.278-.648-.537-.981-.777-.333-.259-.666-.5-1.018-.74a17.872,17.872,0,0,0-1.647-1.073l-.444-.278-.092-.074h-.018l-26.218-15.135h-.037l-.148-.093a32.891,32.891,0,0,0-16.467-4.163c-8.585,0-18.28,2.812-28.549,8.733-35.265,20.371-63.87,69.9-63.87,110.644,0,20.315,7.1,34.6,18.595,41.3l.111.056v.019L207.7,362.64c0,.019,0,.019.018.019l.111.074v-.019c.111.056.2.111.315.167a16.95,16.95,0,0,0,1.517.8c.629.315,1.277.592,1.924.851.574.241,1.166.463,1.758.648a9.1,9.1,0,0,0,.944.278,6.422,6.422,0,0,0,1.018.3,10.6,10.6,0,0,0,1.036.259,5.562,5.562,0,0,0,.759.167c.444.093.925.185,1.388.241a.939.939,0,0,0,.315.056q.833.139,1.665.222c9.512,1,20.575-1.684,32.416-8.511,35.284-20.371,63.888-69.92,63.888-110.644C316.769,246.557,316.75,245.595,316.713,244.633Zm-42.794-28.808a56.974,56.974,0,0,1,2.015,15.542c0,35.931-26.292,81.465-57.413,99.431a55.488,55.488,0,0,1-14.561,6.05,57.681,57.681,0,0,1-2.017-15.56c0-35.931,26.292-81.465,57.413-99.431A55.379,55.379,0,0,1,273.919,215.825Z" transform="translate(-162.752 -186.776)"/><path class="s" d="M206.813,333.174l-25.465-14.7c-11.49-6.716-18.595-21-18.595-41.279,0-18.169,5.7-38.078,15.116-56.358L204.1,235.968c-9.436,18.28-15.116,38.189-15.116,56.358C188.988,312.2,195.749,326.291,206.813,333.174Z" transform="translate(-162.754 -157.813)"/><path class="r" d="M304.657,237.671c-.019-.759-.056-1.5-.111-2.239-.037-.74-.093-1.462-.167-2.183-.037-.481-.092-.962-.148-1.443-.13-1.258-.315-2.5-.518-3.682-.092-.537-.185-1.092-.3-1.628-.092-.518-.2-1.018-.315-1.517-.315-1.369-.648-2.7-1.036-3.978-.2-.611-.389-1.221-.592-1.813a1.63,1.63,0,0,1-.093-.278c-.222-.592-.426-1.166-.648-1.721-.259-.648-.518-1.3-.814-1.906-.2-.463-.407-.907-.648-1.351a6.673,6.673,0,0,0-.481-.962c-.185-.389-.387-.777-.611-1.147-.056-.092-.093-.185-.148-.259-.185-.333-.389-.666-.592-1-.129-.222-.278-.426-.407-.629a33.762,33.762,0,0,0-3.182-4.237c-.2-.222-.407-.444-.592-.666-.167-.185-.333-.352-.5-.518-.2-.222-.426-.426-.648-.648a20.7,20.7,0,0,0-1.924-1.721c-.315-.278-.648-.537-.981-.777-.333-.259-.666-.5-1.018-.74a17.877,17.877,0,0,0-1.647-1.073c-11.6-7.049-27.809-6.217-45.719,4.126-35.284,20.371-63.888,69.9-63.888,110.644,0,20.63,7.327,35.043,19.15,41.593a16.943,16.943,0,0,0,1.517.8c.629.315,1.277.592,1.924.851.574.241,1.166.463,1.758.648a9.087,9.087,0,0,0,.944.278,6.422,6.422,0,0,0,1.018.3,10.612,10.612,0,0,0,1.036.259,5.562,5.562,0,0,0,.759.167c.444.093.925.185,1.388.241a.94.94,0,0,0,.315.056q.833.139,1.665.222c9.512,1,20.575-1.684,32.416-8.511,35.284-20.371,63.888-69.92,63.888-110.644C304.713,239.6,304.694,238.633,304.657,237.671ZM234.349,340.007c-7.919,4.57-15.542,6.975-22.055,6.975-12.23,0-17.855-8.345-20.39-17.1a57.681,57.681,0,0,1-2.017-15.56c0-35.931,26.292-81.465,57.413-99.431a55.381,55.381,0,0,1,14.563-6.032,32.179,32.179,0,0,1,7.492-.944c20.223,0,22.388,22.832,22.388,32.656C291.743,276.507,265.469,322.041,234.349,340.007Z" transform="translate(-150.696 -179.814)"/><path class="s" d="M284.864,234.622c0,35.931-26.273,81.465-57.394,99.431-7.919,4.57-15.542,6.975-22.055,6.975-12.23,0-17.855-8.345-20.389-17.1a55.49,55.49,0,0,0,14.561-6.05C230.708,299.917,257,254.383,257,218.452a56.975,56.975,0,0,0-2.015-15.542,32.178,32.178,0,0,1,7.492-.944C282.7,201.966,284.864,224.8,284.864,234.622Z" transform="translate(-143.818 -173.861)"/><path class="t" d="M274.616,228.35c0,35.931-26.273,81.466-57.394,99.431-7.919,4.57-15.542,6.975-22.055,6.975a23.212,23.212,0,0,1-3.867-.315,28.305,28.305,0,0,1-5.347-10.509,57.681,57.681,0,0,1-2.017-15.56c0-35.931,26.292-81.466,57.413-99.431a55.379,55.379,0,0,1,14.563-6.032,32.178,32.178,0,0,1,7.492-.944,23.441,23.441,0,0,1,3.885.315C273.672,209.811,274.616,221.893,274.616,228.35Z" transform="translate(-144.744 -173.861)"/></g></g><g transform="translate(409.528 53.227)"><path class="u" d="M257.173,271.329v40.964c0,3.066,2.152,4.307,4.807,2.775l268.466-155a10.626,10.626,0,0,0,4.807-8.326l0-40.966c0-3.066-2.152-4.307-4.807-2.775L261.98,263A10.623,10.623,0,0,0,257.173,271.329Z" transform="translate(-257.173 -107.346)"/><g transform="translate(0 128.052)"><path class="c" d="M261.98,204.16l47.81-27.605-.006,52.071-47.8,27.6c-2.655,1.532-4.807.29-4.807-2.775V212.486A10.623,10.623,0,0,1,261.98,204.16Z" transform="translate(-257.173 -176.555)"/><path class="e" d="M289.164,189.362c-3.025-1.745-6.84-1.465-10.746.79-7.1,4.1-12.661,13.732-12.661,21.931a11.874,11.874,0,0,0,2.531,7.891l-5.086,8.809a2.775,2.775,0,1,0,4.807,2.775l5.088-8.813a9.032,9.032,0,0,0,1.669.172A12.971,12.971,0,0,0,281.194,221c7.1-4.1,12.661-13.732,12.661-21.931C293.855,194.556,292.19,191.109,289.164,189.362Zm-10.746,26.826c-2.083,1.2-3.982,1.493-5.2.788s-1.915-2.487-1.915-4.894c0-6.187,4.528-14.03,9.886-17.124a7.581,7.581,0,0,1,3.643-1.166,3.076,3.076,0,0,1,1.552.376c1.217.7,1.915,2.487,1.915,4.9C288.3,205.254,283.778,213.095,278.418,216.189Z" transform="translate(-252.364 -166.628)"/></g></g></g></g></svg>