<svg xmlns="http://www.w3.org/2000/svg" viewBox="0 0 500 500"><g id="freepik--Floor--inject-274"><ellipse id="freepik--floor--inject-274" cx="251.43" cy="346.49" rx="236.72" ry="127.52" style="fill:#f0f0f0"></ellipse></g><g id="freepik--Shadows--inject-274"><ellipse id="freepik--Shadow--inject-274" cx="425.19" cy="322.41" rx="43.23" ry="24.96" style="fill:#e0e0e0"></ellipse><path id="freepik--shadow--inject-274" d="M44.89,362.91s5.26,3,16.25,0l85.3,49.24c5.26,3,28.44,7,28.44,7L219.56,445l8.35,2.86,1-.52-5.28-4.69-44.68-25.79s-12.19-11.73-16.25-14.08L77.38,353.52s5-6.52,0-9.38C71.18,341.8,40.36,358.94,44.89,362.91Z" style="fill:#e0e0e0"></path><path id="freepik--shadow--inject-274" d="M284.55,421.55l90.33-52.16c2.23-1.28,2.23-3.37,0-4.66L189.93,258a9,9,0,0,0-8.07,0L91.53,310.11c-2.23,1.28-2.23,3.37,0,4.66l185,106.78A9,9,0,0,0,284.55,421.55Z" style="fill:#e0e0e0"></path></g><g id="freepik--Plants--inject-274"><g id="freepik--plants--inject-274"><path d="M440.14,322.77a3.5,3.5,0,0,0,1.55.09c4.24-.4,9-1.09,11.52-4.55,1.65-2.29,1.88-5.27,2.21-8.07s.94-5.82,3.06-7.69c2.91-2.58,7.48-2,10.88-3.9A6.85,6.85,0,0,0,473,292.9c0-4.5-4-7.81-.06-11.64,2.28-2.22,7-4.32,7.52-7.83.25-1.86.18-3.8-1.2-5.06-1.78-1.62-4.07-2.08-7.32-1.48-3.6.66-6.75,3-10.26,2.5-1.64-.23-3.2-.88-4.85-1.06a8.11,8.11,0,0,0-8.47,5.13c-1.07,3-.94,7.44-3.68,9.52-1.37,1-3.22,1.2-4.74,2a8,8,0,0,0-3.71,4.66,17.79,17.79,0,0,0-.71,6,46.86,46.86,0,0,0,1.7,11.65c.54,1.93,1.54,3.8,2,5.73a34.26,34.26,0,0,1,.4,5.56c.06.92-.57,3.49.25,4Z" style="fill:#BA68C8"></path><path d="M463.89,294a.61.61,0,0,0,.49-.29.59.59,0,0,0-.22-.79c-.35-.2-8.63-4.85-16.67-2.47a.57.57,0,1,0,.32,1.1c7.57-2.24,15.7,2.33,15.78,2.37A.54.54,0,0,0,463.89,294Z" style="fill:#fff"></path><path d="M439,309.73a.59.59,0,0,0,.56-.49c2.71-18.39,23.78-33.68,34.81-37.07a.58.58,0,1,0-.34-1.1c-11.28,3.47-32.83,19.13-35.61,38a.58.58,0,0,0,.48.66Z" style="fill:#fff"></path></g></g><g id="freepik--Character--inject-274"><path d="M410.82,136.4c-4.48-.67-7.34,1.2-9.42,5.14s0,23.35.13,30.89c-.11,4.51-1.8,15.66-3.2,21.67a10.12,10.12,0,0,1-2.48,4.78c-1.9,2.38-2.71,5-4,8s-2.15,3.5-.86,4.09c.54.25,1.95-.2,2.84-1.14,1.27-1.33,2.26-3.18,2.41-2.78a28.4,28.4,0,0,1-1,4.48c-.52,1.69-1.47,3.42-1.85,4.4-.89,2.3,2.67,4.41,6.39,3.29s6.2-4.91,6.93-12.84-.17-8.26.43-13.39,3.42-18.44,4-23S410.82,136.4,410.82,136.4Z" style="fill:#f28f8f"></path><path d="M427.42,301.3l-.11-.34c-.41-2.74-1-6.57-1.4-9.42l-9.64,2.22c.86,3,1.7,7,2.05,8.66a9.42,9.42,0,0,1,0,1.79,5.35,5.35,0,0,1-.73,2,36.21,36.21,0,0,1-4.83,6.11c-1.25,1.34-2.61,2.94-4.2,4.36a1.31,1.31,0,0,0-.23.67c0,1.43,3.5,1.81,5.54,1.22a12.85,12.85,0,0,0,6.32-4.86c1.18-1.57,3.84-4.59,5.52-6.85a12,12,0,0,0,1.46-2.28A4.66,4.66,0,0,0,427.42,301.3Z" style="fill:#ffa8a7"></path><path d="M402.58,324a2.66,2.66,0,0,0,.6,2c.94.81,3.42,2.49,9.11,1.52s7.9-3.89,8.87-5.19c1.18-1.58,3.32-5.39,4.61-6.24,1.51-1,5.18-2,6.24-4.09s-1.09-4.91-1.09-4.91S420,319,416.29,320.67,402.58,324,402.58,324Z" style="fill:#263238"></path><path d="M418.32,302.42c-.52.09-1,2.1-1.66,3.74a24.24,24.24,0,0,1-4.37,6c-2.57,2.77-6.82,5.26-9.2,8.05a3.34,3.34,0,0,0-.51,3.79,5.66,5.66,0,0,0,2.83,1.64,14.22,14.22,0,0,0,11.25-1.53c4.16-2.38,6.33-8.21,8.87-9.68s4-2.12,5-3.22c1.5-1.62,1.51-3.39.37-5.5-1.23-2.3-3-5.88-3.74-5.48l.12.76c-.6,1.88-7.63,3.1-8.76,2.2Z" style="fill:#37474f"></path><path d="M422.68,327.5l2.11-1.87a20.91,20.91,0,0,0,3.56-4.55,18.64,18.64,0,0,0,2.47-7.55s0-1.67,0-2.64c-.09-2.18-.1-5-.22-6.55l10,1.47a66.46,66.46,0,0,0-.7,8.49v1.3s-.91,2.16-2.18,4.62a35.11,35.11,0,0,1-3.44,5.64c-2.63,3.22-5.68,5.31-9.14,5S421.21,329.14,422.68,327.5Z" style="fill:#ffa8a7"></path><path d="M416.81,334.7c-.37,0-.23,1.6,0,2.09.38.82,2.38,2.34,6,2.62s8.82-1,11.39-4a16.79,16.79,0,0,0,3.67-6.17c.93-2.18,2.74-3.3,3.77-4.51.47-1,.48-3.34-.37-3.67S416.81,334.7,416.81,334.7Z" style="fill:#263238"></path><path d="M430.83,314.76v-1.23c-.62,0-.53,1.53-1.08,2.72-1.31,2.87-3.58,7-6.05,9.35-2.7,2.61-7.14,5.37-7,8.32s5.08,4.05,8.66,3.7a14.44,14.44,0,0,0,9-4.72c2.28-2.61,2.24-4.4,3.3-5.83s3.52-3.05,4.09-4.71c.32-.92-.06-2.92-.5-4.61s-.84-4.25-1.37-4.11c0,.19,0,1,0,1-.32.77-2.22,1.54-4.44,1.6C432.7,316.33,430.82,315.74,430.83,314.76Z" style="fill:#37474f"></path><path d="M404.84,175.19c-.5-2.35-1.1-6.78-1.45-10-5.92-5.53-4.26-11.57-2.11-16,4.3-8.89,8.9-13,10.84-13l12.16,0c5.82.69,9.79,1.35,11.2,1.66,3.58.78,3.47,3.38,3.68,7.18v.12a38.65,38.65,0,0,1-3.51,18.35l-1.24,2.68a6.83,6.83,0,0,0-.63,2.47l0,.37a13.79,13.79,0,0,0,2.33,8.59c2.77,4.11,6.89,10.89,8.27,16.62,0,0-5.4.23-8.79-3.73,0,0-4.62,7-16.08,7.54s-15.89-14.19-15.89-14.19Z" style="fill:#BA68C8"></path><path d="M402.88,179.85a43.68,43.68,0,0,1-.3,6.16c-1.79,15.59-3.67,57.18-2.25,61.92s11.16,32.67,15.78,47.63c2.87.69,8.94-.77,10.41-2.33-.62-9-1.92-28.86-2.67-34.54a29.86,29.86,0,0,0-5.42-13.55l3.4-29.58h0s1.26,25.34,2.81,34.13c1.24,7.05,1.72,15.86,3.16,27.93.95,8,2.19,21.39,2.72,28.14,1.43,1.41,8.07,2.06,10.24.54,1.27-7.68,3.75-26,4.4-31.93a44.44,44.44,0,0,0-2.57-20.83s.72-13.73,1.82-25.38c2.32-24.42,2.19-35.58-5.59-46.29,0,0-7.27,2.47-8.1,1.56-2.21-2.52-.91-30.29-6-31.74s-20.63-3.21-23.12-3.27-4.1,7.06-3.2,10.8,3.27,7.47,3.54,9.17A111.68,111.68,0,0,1,402.88,179.85Z" style="fill:#455a64"></path><path d="M418.15,152c1.52-4.36,6.77-11.7,11.56-15.13,0,0,3.6-.43,5.77,1,0,0-4.24,2.12-12.86,14.93a2.51,2.51,0,0,1-2.58.94C418.56,153.52,417.79,153,418.15,152Z" style="fill:#37474f"></path><path d="M401,149.46c1.52-4.35,6.42-11.65,10.11-13.3a10.11,10.11,0,0,1,4.78,0s-4.7,2.06-11,14a2.48,2.48,0,0,1-2.57.94C400.91,150.93,400.68,150.49,401,149.46Z" style="fill:#37474f"></path><path d="M402.89,180.17c7.61,5.86,27.35,6.61,33.69-1.86,0,0,1.35.5,2.24,3.56-5.79,9.82-28.61,9.29-36.13,3.08C402.69,185,401.94,182,402.89,180.17Z" style="fill:#37474f"></path><path d="M408.82,201.81s.81,5.16,9.78,9.4l.95,5.41-1,27.41,3.27-28.42L421,209.1S415,208.48,408.82,201.81Z" style="fill:#37474f"></path><path d="M420.68,95a18.39,18.39,0,0,0-10.93,3.58c-9.25-.81-14.1,13.7-4.39,18.33,2.14,3.42,4.3,13.25,13.51,13.25h3.62a16.68,16.68,0,0,0,16.68-16.68A18.48,18.48,0,0,0,420.68,95Z" style="fill:#37474f"></path><path d="M443.4,98.17a12.37,12.37,0,0,1,8.6,7.28c1.91,5,.1,11,2.81,15.55,1.5,2.52,4.12,4.11,6.42,5.93s4.52,4.25,4.56,7.18a6.93,6.93,0,0,1-2.6,5.28,10.57,10.57,0,0,1-5.57,2.23,14.53,14.53,0,0,1-15.78-10.78,28.39,28.39,0,0,1-.32-9.34c.25-3.12.7-8,.32-11.15-.75-6.19-4-7.81-8.62-6.82a1.28,1.28,0,0,1-1.48-.7,1.3,1.3,0,0,1,.33-1.06C434.68,98.21,439.26,97.16,443.4,98.17Z" style="fill:#37474f"></path><path d="M407.91,104.39c-.86,1.23-3,4.36-3,15,0,9,2.87,11.34,4.32,12s4.3.36,7.07,0l-.13,5.42s-3,3.28,3.39,3.28a13.88,13.88,0,0,0,8.67-3.27L428.5,125s1.58,1.61,4.39-.73c2.32-1.93,3.16-5.26,1.44-7.1a4,4,0,0,0-6.33,1.1s-1.62.1-3.16-2.94a17.08,17.08,0,0,1-8.55-1.59C411.29,111.35,408.18,107.45,407.91,104.39Z" style="fill:#ffa8a7"></path><path d="M416.69,116.86a1.13,1.13,0,1,0,1.22-1.1A1.16,1.16,0,0,0,416.69,116.86Z" style="fill:#263238"></path><path d="M415.11,124.8l-2.95.87a1.51,1.51,0,0,0,1.88,1.09A1.61,1.61,0,0,0,415.11,124.8Z" style="fill:#f28f8f"></path><path d="M406.5,113.08l2.34-1.54a1.34,1.34,0,0,0-1.9-.44A1.48,1.48,0,0,0,406.5,113.08Z" style="fill:#263238"></path><path d="M418,112.21l2.59,1.06a1.34,1.34,0,0,0-.71-1.81A1.46,1.46,0,0,0,418,112.21Z" style="fill:#263238"></path><path d="M407.05,116.38a1.14,1.14,0,0,0,1.05,1.25,1.18,1.18,0,1,0-1.05-1.25Z" style="fill:#263238"></path><polygon points="412.52 115.86 412.17 122.69 408.6 121.49 412.52 115.86" style="fill:#f28f8f"></polygon><path d="M416.34,131.4c2.91-.31,8.93-1.89,9.92-4.23a6.16,6.16,0,0,1-2.17,3c-1.82,1.48-7.8,3.06-7.8,3.06Z" style="fill:#f28f8f"></path><path d="M428,118.31l-.11,4.76h0a3.25,3.25,0,0,1-3.16-3.32l.11-4.38Z" style="fill:#37474f"></path><path d="M376.22,336.8a3.61,3.61,0,0,0-1.34-1.24l-11.11-6.41V327l11.11,6.41C376.48,334.31,376.93,335.65,376.22,336.8Z" style="fill:#37474f"></path><path d="M376.22,336.8a1.48,1.48,0,0,0-.19-.27.31.31,0,0,0-.08-.1,3.2,3.2,0,0,0-.26-.28,1.86,1.86,0,0,0-.27-.22h0a2,2,0,0,0-.23-.18l-.3-.19-11.11-6.41c-8,4.63-27.47,15.87-47,27.15l-26.4,15.24-23.09,13.33-1.89,1.1,11.09,6.41a8.32,8.32,0,0,0,4,1,5.23,5.23,0,0,0,.79,0,2,2,0,0,0,.34,0,3.42,3.42,0,0,0,.63-.09,5.31,5.31,0,0,0,.81-.19,6.68,6.68,0,0,0,1.47-.61l90.33-52.16a3.78,3.78,0,0,0,1.25-1.09c.05-.08.11-.15.16-.24a.43.43,0,0,1,0-.05h0a1.73,1.73,0,0,0,.13-.33,1.53,1.53,0,0,0,.07-.29,1.66,1.66,0,0,0,0-.32v-.13A2,2,0,0,0,376.22,336.8Zm-62.58,25,3.12-1.81,3.95-2.28a8.66,8.66,0,0,1,7.82-.14,3.06,3.06,0,0,1,1.33,1.38,3.45,3.45,0,0,1-1.58,1.63l-7.07,4.08a8.49,8.49,0,0,1-4.45,1,7.33,7.33,0,0,1-3.36-.86,3,3,0,0,1-1.35-1.37A3.67,3.67,0,0,1,313.64,361.83Z" style="fill:#455a64"></path><path d="M189.93,226.6a8.32,8.32,0,0,0-4-1v2.19a8.29,8.29,0,0,1,4,1L201,235.2V233Z" style="fill:#263238"></path><path d="M185.89,225.63v2.2a8.25,8.25,0,0,0-4,1L91.53,280.94a3.53,3.53,0,0,0-1.34,1.24c-.71-1.16-.26-2.51,1.34-3.43l90.33-52.15A8.31,8.31,0,0,1,185.89,225.63Z" style="fill:#37474f"></path><path d="M189.93,228.79a9,9,0,0,0-8.07,0l-11.11,6.41L159,242l-16.45,9.5-5.5,3.18L127.87,260l-16,9.23L91.53,280.94l-.39.25-.19.14a2.19,2.19,0,0,0-.22.2,1.67,1.67,0,0,0-.23.23l0,0a.51.51,0,0,0-.13.16,1.53,1.53,0,0,0-.14.21l0,0a1.93,1.93,0,0,0-.32,1v.12a1.71,1.71,0,0,0,0,.31,2.48,2.48,0,0,0,.9,1.49,4.68,4.68,0,0,0,.73.51l11.1,6.41,1.9-1.09,7.36-4.25,16-9.23,9.21-5.31,5.5-3.18,16.45-9.5,11.72-6.77L201,235.2ZM158.4,251.65a2,2,0,0,1-.44.33,4.19,4.19,0,0,1-3.78,0,2.29,2.29,0,0,1-.44-.33,1.94,1.94,0,0,1,.44-.33,4.19,4.19,0,0,1,3.78,0A1.74,1.74,0,0,1,158.4,251.65ZM150.8,256a2.26,2.26,0,0,1-.53.41l-7.69,4.45-5.5,3.17-5.94,3.43a4.45,4.45,0,0,1-3.27.33,2.39,2.39,0,0,1-.64-.26,1.42,1.42,0,0,1-.4-.31,2.19,2.19,0,0,1,.53-.43l.51-.29,9.21-5.31,5.5-3.18,3.9-2.26a4.35,4.35,0,0,1,3.91-.07,1.52,1.52,0,0,1,.41.31Z" style="fill:#455a64"></path><path d="M376.44,335.07a3.43,3.43,0,0,0-.31-.6,3.68,3.68,0,0,0-1.25-1.09L363.77,327l-47-27.15-26.4-15.24-100.43-58a8.88,8.88,0,0,0-8.07,0L170.75,233,159,239.79l-16.45,9.49-5.5,3.18-9.21,5.31-16,9.23L91.53,278.75l-.39.25c-.12.08-.24.18-.34.26l-.28.28c-.08.09-.16.2-.23.29h0c-.06.07-.09.15-.14.22a.66.66,0,0,0-.07.15l0,.05,0,.07,0,.08a.67.67,0,0,0,0,.19l0,.14a1.91,1.91,0,0,0,0,.32v2.23a1.71,1.71,0,0,0,0,.31,2.82,2.82,0,0,0,.07.31,3.24,3.24,0,0,0,1.56,1.69L265.37,386h0l11.09,6.41a8.32,8.32,0,0,0,4,1,5.23,5.23,0,0,0,.79,0,2,2,0,0,0,.34,0,3.42,3.42,0,0,0,.63-.09,5.31,5.31,0,0,0,.81-.19,6.68,6.68,0,0,0,1.47-.61l90.33-52.16a3.78,3.78,0,0,0,1.25-1.09c.05-.08.11-.15.16-.24a.08.08,0,0,1,0-.05h0a1.73,1.73,0,0,0,.13-.33,1.53,1.53,0,0,0,.07-.29,1.66,1.66,0,0,0,0-.32v-.13c0-.44,0-1.46,0-1.92h0v-.13A2.24,2.24,0,0,0,376.44,335.07Zm-64.39,28.39a3.67,3.67,0,0,1,1.59-1.63l3.12-1.81,3.95-2.28a8.66,8.66,0,0,1,7.82-.14,3.06,3.06,0,0,1,1.33,1.38,3.45,3.45,0,0,1-1.58,1.63l-7.07,4.08a8.49,8.49,0,0,1-4.45,1,7.33,7.33,0,0,1-3.36-.86A3,3,0,0,1,312.05,363.46ZM154.18,251.32a4.19,4.19,0,0,1,3.78,0,1.56,1.56,0,0,1,.44.34,2,2,0,0,1-.44.32,4.13,4.13,0,0,1-3.78,0,2.27,2.27,0,0,1-.44-.32A1.71,1.71,0,0,1,154.18,251.32ZM127.36,266.8l.51-.29,9.21-5.31,5.5-3.18,3.9-2.26a4.33,4.33,0,0,1,3.9-.07,1.36,1.36,0,0,1,.41.32h0a2.63,2.63,0,0,1-.53.41l-7.68,4.44-5.5,3.17-5.94,3.43a4.45,4.45,0,0,1-3.27.33,2.39,2.39,0,0,1-.64-.26,1.42,1.42,0,0,1-.4-.31A2.19,2.19,0,0,1,127.36,266.8Z" style="fill:#BA68C8;opacity:0.30000000000000004"></path><path d="M376.44,335.07a2.45,2.45,0,0,0-.31-.6,3.68,3.68,0,0,0-1.25-1.09L363.77,327l-47-27.15-26.4-15.24-100.43-58a8.88,8.88,0,0,0-8.07,0L170.75,233,159,239.79l-16.45,9.49-5.5,3.18-9.21,5.31-16,9.23L91.53,278.75l-.39.25c-.12.08-.24.18-.34.26l-.28.28c-.08.09-.16.2-.23.29h0c-.06.07-.09.15-.14.22a.66.66,0,0,0-.07.15l0,.05,0,.07,0,.08a.67.67,0,0,0,0,.19l0,.14a1.91,1.91,0,0,0,0,.32v.16a1.24,1.24,0,0,0,0,.18.17.17,0,0,0,0,.05.25.25,0,0,0,0,.08s0,.08,0,.12l0,0v0a1.22,1.22,0,0,0,.07.17,1.57,1.57,0,0,0,.19.36c0,.08.11.14.15.22a1.37,1.37,0,0,0,.16.18.71.71,0,0,0,.15.15l0,0a.87.87,0,0,0,.14.12,3.7,3.7,0,0,0,.66.47L265.38,383.78l1.89,1.09,9.2,5.32a3.61,3.61,0,0,0,.44.22l.12.06.19.08,0,0c.18.08.37.14.55.2h0c.21.06.42.12.63.16h.05l.17,0c.21,0,.44.08.66.11l.27,0,.27,0,.6,0a8.28,8.28,0,0,0,4-1l5.82-3.36,26.4-15.24L374.88,338a2.35,2.35,0,0,0,.37-.24,1.08,1.08,0,0,0,.24-.18l.22-.19a2.55,2.55,0,0,0,.23-.24.31.31,0,0,0,.09-.11,1.31,1.31,0,0,0,.19-.27,1.08,1.08,0,0,0,.12-.24.88.88,0,0,0,.09-.2,1,1,0,0,0,.05-.18l0-.13,0-.21h0v-.13A2.24,2.24,0,0,0,376.44,335.07ZM150.79,256a2.63,2.63,0,0,1-.53.41l-7.68,4.44-5.5,3.17-5.94,3.43a4.45,4.45,0,0,1-3.27.33,2.39,2.39,0,0,1-.64-.26,1.42,1.42,0,0,1-.4-.31,2.19,2.19,0,0,1,.53-.43l.51-.29,9.21-5.31,5.5-3.18,3.9-2.26a4.33,4.33,0,0,1,3.9-.07,1.36,1.36,0,0,1,.41.32Zm7.17-4a4.13,4.13,0,0,1-3.78,0,2.27,2.27,0,0,1-.44-.32,1.71,1.71,0,0,1,.44-.34,4.19,4.19,0,0,1,3.78,0,1.56,1.56,0,0,1,.44.34A2,2,0,0,1,158,252ZM328.28,360.61l-7.07,4.08a8.49,8.49,0,0,1-4.45,1,7.33,7.33,0,0,1-3.36-.86,3,3,0,0,1-1.35-1.37,3.67,3.67,0,0,1,1.59-1.63l3.12-1.81,3.95-2.28a8.66,8.66,0,0,1,7.82-.14,3.06,3.06,0,0,1,1.33,1.38A3.45,3.45,0,0,1,328.28,360.61Z" style="fill:#BA68C8;opacity:0.1"></path><path d="M376.54,337.89a2.8,2.8,0,0,1-1.66,2.33l-90.33,52.16a8.92,8.92,0,0,1-8.08,0L91.53,285.6a2.8,2.8,0,0,1-1.66-2.31v-2.11a2.88,2.88,0,0,0,1.66,2.23L276.47,390.19a8.9,8.9,0,0,0,8.07,0L374.88,338a2.87,2.87,0,0,0,1.66-2.2C376.53,336.33,376.53,337.56,376.54,337.89Z" style="opacity:0.2"></path><polygon points="170.75 233.01 161.51 238.35 161.51 323.82 170.75 329.15 170.75 233.01" style="fill:#fff;opacity:0.30000000000000004"></polygon><path d="M181.92,226.57l-.06,0-5.8,3.35V332.22l5.86,3.38Z" style="fill:#fff;opacity:0.30000000000000004"></path><polygon points="252.32 262.62 225.92 247.38 225.92 361 252.32 376.24 252.32 262.62" style="fill:#fff;opacity:0.30000000000000004"></polygon><path d="M126.49,266.48a1,1,0,0,0,.34.75,1.42,1.42,0,0,0,.4.31,2.39,2.39,0,0,0,.64.26v36.59l-16-9.22V267l16-9.23V265l-.51.3A1.44,1.44,0,0,0,126.49,266.48Z" style="fill:#fff;opacity:0.30000000000000004"></path><polygon points="142.58 249.28 142.58 256.49 137.08 259.67 137.08 252.46 142.58 249.28" style="fill:#fff;opacity:0.30000000000000004"></polygon><polygon points="137.08 264.04 142.58 260.87 142.58 312.89 137.08 309.71 137.08 264.04" style="fill:#fff;opacity:0.30000000000000004"></polygon><polygon points="349.13 318.51 337.4 311.74 337.4 359.68 349.13 352.91 349.13 318.51" style="fill:#fff;opacity:0.30000000000000004"></polygon><path d="M312,362.06a1.84,1.84,0,0,0-.11.89V363a2.69,2.69,0,0,0,.14.46,3,3,0,0,0,1.35,1.37,7.33,7.33,0,0,0,3.36.86v5.9l-26.4,15.25V284.58l26.4,15.24v58.7l-3.12,1.8a4.14,4.14,0,0,0-1.31,1.13A2.07,2.07,0,0,0,312,362.06Z" style="fill:#fff;opacity:0.30000000000000004"></path><polygon points="360.29 324.96 354.43 321.58 354.43 349.84 360.29 346.46 360.29 324.96" style="fill:#fff;opacity:0.30000000000000004"></polygon><polygon points="209.46 351.5 215.32 354.88 215.32 241.26 209.46 237.87 209.46 351.5" style="fill:#fff;opacity:0.30000000000000004"></polygon><polygon points="272.09 274.03 266.22 270.65 266.22 384.27 272.09 387.66 272.09 274.03" style="fill:#fff;opacity:0.30000000000000004"></polygon><path d="M376.54,337.89c0-.33,0-1.56,0-2.06a2.87,2.87,0,0,1-1.66,2.2l-90.34,52.16a8.9,8.9,0,0,1-8.07,0l-11.1-6.41V386h0l11.1,6.41a8.92,8.92,0,0,0,8.08,0l90.33-52.16A2.8,2.8,0,0,0,376.54,337.89Z" style="fill:#455a64"></path><path d="M280.51,391.16a8.32,8.32,0,0,1-4-1l-11.1-6.41V386h0l11.1,6.41a8.32,8.32,0,0,0,4,1Z" style="fill:#37474f"></path><path d="M89.87,281.18v2.11a2.8,2.8,0,0,0,1.66,2.31l11.1,6.41v-2.19l0,0-11.07-6.39A2.88,2.88,0,0,1,89.87,281.18Z" style="fill:#37474f"></path><g style="opacity:0.2"><path d="M151.13,255.21a1.24,1.24,0,0,0-.74-1,4.31,4.31,0,0,0-3.91.06l-3.9,2.26-5.5,3.18L127.87,265l-.51.3a1.43,1.43,0,0,0-.87,1.19c0,.26,0,1.28,0,1.55a1.28,1.28,0,0,0,.73,1,3.3,3.3,0,0,0,.64.26,4.41,4.41,0,0,0,3.27-.34l5.94-3.42,5.5-3.17,7.69-4.45a1.47,1.47,0,0,0,.86-1.16C151.14,256.51,151.13,255.48,151.13,255.21Zm-.33.8a2.26,2.26,0,0,1-.53.41l-7.69,4.45-5.5,3.17-5.94,3.43a4.45,4.45,0,0,1-3.27.33,2.39,2.39,0,0,1-.64-.26,1.42,1.42,0,0,1-.4-.31,2.19,2.19,0,0,1,.53-.43l.51-.29,9.21-5.31,5.5-3.18,3.9-2.26a4.35,4.35,0,0,1,3.91-.07,1.52,1.52,0,0,1,.41.31Z"></path><path d="M158,249.8a4.13,4.13,0,0,0-3.78,0,1.31,1.31,0,0,0-.78,1.09c0,.26,0,1.26,0,1.53a1.32,1.32,0,0,0,.78,1.09,4.19,4.19,0,0,0,3.78,0,1.3,1.3,0,0,0,.78-1.09v-1.53A1.3,1.3,0,0,0,158,249.8Zm0,2.18a4.19,4.19,0,0,1-3.78,0,2.29,2.29,0,0,1-.44-.33,1.94,1.94,0,0,1,.44-.33,4.19,4.19,0,0,1,3.78,0,1.74,1.74,0,0,1,.44.33A2,2,0,0,1,158,252Z"></path></g><g style="opacity:0.30000000000000004"><path d="M151.09,254.94a.74.74,0,0,0-.14-.28,1.47,1.47,0,0,0-.1-.13.86.86,0,0,0-.14-.13l-.14-.12-.18-.11a4.31,4.31,0,0,0-3.91.06l-19.12,11.06a1.44,1.44,0,0,0-.87,1.19,1,1,0,0,0,.34.75,2.19,2.19,0,0,1,.53-.43l.51-.29,9.21-5.31,5.5-3.18,3.9-2.26a4.35,4.35,0,0,1,3.91-.07,1.52,1.52,0,0,1,.41.31,1.15,1.15,0,0,0,.33-.77A1,1,0,0,0,151.09,254.94Z"></path><path d="M158.71,250.66a.9.9,0,0,0-.08-.21,1.56,1.56,0,0,0-.67-.65,4.13,4.13,0,0,0-3.78,0l-.25.16-.23.21a1,1,0,0,0-.13.17,1.62,1.62,0,0,0-.1.18,1.21,1.21,0,0,0-.07.36h0V251a1.25,1.25,0,0,0,.34.61,1.94,1.94,0,0,1,.44-.33,4.19,4.19,0,0,1,3.78,0,1.48,1.48,0,0,1,.43.33,1.13,1.13,0,0,0,.35-.61v-.16A.83.83,0,0,0,158.71,250.66Z"></path></g><g style="opacity:0.7000000000000001"><path d="M151.13,255.23a1.15,1.15,0,0,1-.33.77,1.52,1.52,0,0,0-.41-.31,4.35,4.35,0,0,0-3.91.07l-3.9,2.26-5.5,3.18-9.21,5.31-.51.29a2.19,2.19,0,0,0-.53.43,1,1,0,0,1-.34-.75,1.44,1.44,0,0,1,.87-1.19l19.12-11.06a4.31,4.31,0,0,1,3.91-.06l.18.11.14.12a.86.86,0,0,1,.14.13,1.47,1.47,0,0,1,.1.13,1.22,1.22,0,0,1,.14.28A1,1,0,0,1,151.13,255.23Z" style="fill:#BA68C8"></path><path d="M158.74,250.88V251a1.13,1.13,0,0,1-.35.61,1.48,1.48,0,0,0-.43-.33,4.19,4.19,0,0,0-3.78,0,1.94,1.94,0,0,0-.44.33,1.25,1.25,0,0,1-.34-.61v-.15h0a1.21,1.21,0,0,1,.07-.36,1.62,1.62,0,0,1,.1-.18,1,1,0,0,1,.13-.17l.23-.21.25-.16a4.13,4.13,0,0,1,3.78,0,1.56,1.56,0,0,1,.67.65.9.9,0,0,1,.08.21A.83.83,0,0,1,158.74,250.88Z" style="fill:#BA68C8"></path></g><path d="M329.75,357.26a1.72,1.72,0,0,0-.22-.33,3.4,3.4,0,0,0-1-.84,8.69,8.69,0,0,0-7.82.15l-7.07,4.08a4.14,4.14,0,0,0-1.31,1.13,2.51,2.51,0,0,0-.31.61,2.24,2.24,0,0,0-.11.67v1.49a2.52,2.52,0,0,0,1.49,2.12,7.33,7.33,0,0,0,3.36.85,8.47,8.47,0,0,0,4.45-1l7.07-4.07a2.91,2.91,0,0,0,1.72-2.39c0-.25,0-1.25,0-1.51A1.89,1.89,0,0,0,329.75,357.26Zm-.19,2.24a1.81,1.81,0,0,1-.18.23,4.61,4.61,0,0,1-1.1.88l-7.07,4.08a5.57,5.57,0,0,1-.92.44,9.43,9.43,0,0,1-.9.29,9.3,9.3,0,0,1-2.63.27l-.47,0a7,7,0,0,1-.92-.12l-.41-.09-.42-.12a5.11,5.11,0,0,1-1.14-.5,3.42,3.42,0,0,1-.92-.72,1.09,1.09,0,0,1-.21-.27,1,1,0,0,1-.12-.19,1.19,1.19,0,0,1-.08-.16s0,0,0,0a3.67,3.67,0,0,1,1.59-1.63l3.12-1.81,3.95-2.28a8.66,8.66,0,0,1,7.82-.14,3.06,3.06,0,0,1,1.33,1.38A2,2,0,0,1,329.56,359.5Z" style="opacity:0.2"></path><path d="M330,358.22a1.89,1.89,0,0,1-.16.76,3.06,3.06,0,0,0-1.33-1.38,8.66,8.66,0,0,0-7.82.14L316.76,360l-3.12,1.81a3.67,3.67,0,0,0-1.59,1.63,2.69,2.69,0,0,1-.14-.46V363a1.84,1.84,0,0,1,.11-.89,2.07,2.07,0,0,1,.31-.61,4.14,4.14,0,0,1,1.31-1.13l7.07-4.08a8.69,8.69,0,0,1,7.82-.15,3.4,3.4,0,0,1,1,.84,1.72,1.72,0,0,1,.22.33A1.89,1.89,0,0,1,330,358.22Z" style="fill:#BA68C8;opacity:0.7000000000000001"></path><path d="M330,358.22a1.89,1.89,0,0,1-.16.76,3.06,3.06,0,0,0-1.33-1.38,8.66,8.66,0,0,0-7.82.14L316.76,360l-3.12,1.81a3.67,3.67,0,0,0-1.59,1.63,2.69,2.69,0,0,1-.14-.46V363a1.84,1.84,0,0,1,.11-.89,2.07,2.07,0,0,1,.31-.61,4.14,4.14,0,0,1,1.31-1.13l7.07-4.08a8.69,8.69,0,0,1,7.82-.15,3.4,3.4,0,0,1,1,.84,1.72,1.72,0,0,1,.22.33A1.89,1.89,0,0,1,330,358.22Z" style="fill:#BA68C8;opacity:0.7000000000000001"></path><path d="M113.77,280.22,106.38,276a3,3,0,0,0-2.68,0l-7.39,4.27a.91.91,0,0,0-.55.75v.66a.91.91,0,0,0,.55.76l7.39,4.27a3,3,0,0,0,2.68,0l7.39-4.27a1,1,0,0,0,.56-.75V281A.93.93,0,0,0,113.77,280.22Z" style="fill:#263238"></path><path d="M96.31,281.77,103.7,286a3,3,0,0,0,2.68,0l7.39-4.26a.82.82,0,0,0,0-1.55L106.38,276a3,3,0,0,0-2.68,0l-7.39,4.27A.82.82,0,0,0,96.31,281.77Z" style="fill:#37474f"></path><path d="M98.09,280.75l6.75-3.9a1.19,1.19,0,0,1,1.07,0l.37.21a.33.33,0,0,1,0,.62l-6.75,3.9a1.19,1.19,0,0,1-1.07,0l-.37-.21A.33.33,0,0,1,98.09,280.75Z" style="fill:#BA68C8"></path><path d="M100.94,282.53l6.75-3.9a1.15,1.15,0,0,1,1.08,0l.36.21a.33.33,0,0,1,0,.62l-6.75,3.9a1.19,1.19,0,0,1-1.07,0l-.37-.21A.33.33,0,0,1,100.94,282.53Z" style="fill:#BA68C8"></path><path d="M103.79,284.31l6.75-3.91a1.21,1.21,0,0,1,1.08,0l.37.22a.33.33,0,0,1,0,.62l-6.76,3.9a1.19,1.19,0,0,1-1.07,0l-.37-.21C103.5,284.75,103.5,284.48,103.79,284.31Z" style="fill:#BA68C8"></path><path d="M76.86,284.22h0a2.65,2.65,0,0,0-2-.16,4.64,4.64,0,0,0-1.19.48L69,287.19l7,4,4.59-2.64a3.2,3.2,0,0,1,3.23-.32Z" style="fill:#BA68C8"></path><path d="M76.86,284.22h0a2.65,2.65,0,0,0-2-.16,4.64,4.64,0,0,0-1.19.48L69,287.19l7,4,4.59-2.64a3.2,3.2,0,0,1,3.23-.32Z" style="fill:#fff;opacity:0.5"></path><path d="M96.53,281.89l-11.85,6.85-.2.11a3.81,3.81,0,0,1,.69,2.36c0,2.07,1.1,3.2,2.69,3.15a4.61,4.61,0,0,0,2.19-.67l13.45-7.77Z" style="fill:#BA68C8"></path><path d="M96.53,281.89l-11.85,6.85-.2.11a3.81,3.81,0,0,1,.69,2.36c0,2.07,1.1,3.2,2.69,3.15a4.61,4.61,0,0,0,2.19-.67l13.45-7.77Z" style="fill:#fff;opacity:0.5"></path><polygon points="69.03 287.19 69.03 287.8 76 291.83 76 291.21 69.03 287.19" style="fill:#BA68C8"></polygon><polygon points="69.03 287.19 69.03 287.8 76 291.83 76 291.21 69.03 287.19" style="opacity:0.15"></polygon><path d="M103.5,285.92v.61l-13.18,7.62a5.19,5.19,0,0,1-2.56.78,3.06,3.06,0,0,1-1.51-.39l0,0a3.63,3.63,0,0,1-1.56-3.31A2.28,2.28,0,0,0,80.85,289l-2.08,1.19-2.5,1.46-.26.15v-.62l2.23-1.29,2.35-1.36c2.52-1.45,4.58-.27,4.58,2.65s2.19,4,4.88,2.47Z" style="fill:#BA68C8"></path><path d="M86.2,294.52l-7.43-4.3L80.85,289a2.28,2.28,0,0,1,3.79,2.18A3.63,3.63,0,0,0,86.2,294.52Z" style="fill:#BA68C8"></path><path d="M86.2,294.52l-7.43-4.3L80.85,289a2.28,2.28,0,0,1,3.79,2.18A3.63,3.63,0,0,0,86.2,294.52Z" style="opacity:0.30000000000000004"></path><path d="M78.21,292.44l-11.34-6.55a3,3,0,0,0-2.69,0L60.53,288a.94.94,0,0,0-.56.76v.66a.94.94,0,0,0,.56.76l11.34,6.54a3,3,0,0,0,2.69,0l3.65-2.11a.92.92,0,0,0,.56-.74v-.68A.91.91,0,0,0,78.21,292.44Z" style="fill:#263238"></path><path d="M60.53,289.55l11.34,6.55a3,3,0,0,0,2.69,0L78.21,294a.82.82,0,0,0,0-1.55l-11.34-6.55a3,3,0,0,0-2.69,0L60.53,288C59.78,288.43,59.78,289.13,60.53,289.55Z" style="fill:#37474f"></path><path d="M61.81,288.38l3-1.74a1.18,1.18,0,0,1,1.08,0l.37.21a.33.33,0,0,1,0,.62l-3,1.74a1.19,1.19,0,0,1-1.07,0l-.37-.21A.33.33,0,0,1,61.81,288.38Z" style="fill:#BA68C8"></path><path d="M64.48,289.92l3-1.74a1.16,1.16,0,0,1,1.07,0l.37.22a.33.33,0,0,1,0,.62l-3,1.74a1.21,1.21,0,0,1-1.08,0l-.36-.21A.33.33,0,0,1,64.48,289.92Z" style="fill:#BA68C8"></path><path d="M67.14,291.46l3-1.75a1.21,1.21,0,0,1,1.08,0l.36.22c.3.17.3.44,0,.62l-3,1.74a1.19,1.19,0,0,1-1.07,0l-.37-.21A.33.33,0,0,1,67.14,291.46Z" style="fill:#BA68C8"></path><path d="M69.8,293l3-1.75a1.19,1.19,0,0,1,1.07,0l.37.21c.29.18.29.45,0,.62l-3,1.75a1.19,1.19,0,0,1-1.07,0l-.37-.21A.33.33,0,0,1,69.8,293Z" style="fill:#BA68C8"></path><path d="M72.47,294.54l3-1.75a1.19,1.19,0,0,1,1.07,0l.37.21a.33.33,0,0,1,0,.62l-3,1.75a1.21,1.21,0,0,1-1.08,0l-.36-.21C72.17,295,72.17,294.71,72.47,294.54Z" style="fill:#BA68C8"></path><path d="M374.88,285.31,189.93,178.53a8.9,8.9,0,0,0-8.07,0L91.53,230.68A2.82,2.82,0,0,0,89.86,233v2.4a2.85,2.85,0,0,0,1.67,2.32l185,106.78a9,9,0,0,0,8.07,0l90.33-52.15a2.81,2.81,0,0,0,1.66-2.34v-2.38A2.82,2.82,0,0,0,374.88,285.31Z" style="fill:#BA68C8"></path><path d="M280.51,343.08v2.39a8.32,8.32,0,0,1-4-1L91.53,237.73a2.85,2.85,0,0,1-1.67-2.31V233a2.82,2.82,0,0,0,1.67,2.33L276.47,342.12A8.21,8.21,0,0,0,280.51,343.08Z" style="fill:#fff;opacity:0.55"></path><path d="M376.54,287.74V290a2.79,2.79,0,0,1-1.66,2.34l-90.34,52.16a8.25,8.25,0,0,1-4,1v-2.39a8.17,8.17,0,0,0,4-1L374.88,290A2.88,2.88,0,0,0,376.54,287.74Z" style="fill:#fff;opacity:0.7000000000000001"></path><path d="M284.55,342.12,374.88,290c2.22-1.29,2.22-3.37,0-4.66L189.93,178.53a8.9,8.9,0,0,0-8.07,0L91.53,230.68c-2.23,1.29-2.23,3.37,0,4.66l185,106.78A8.9,8.9,0,0,0,284.55,342.12Z" style="fill:#fff;opacity:0.9"></path><path d="M185.89,177.8a8,8,0,0,1,3.92.93l185,106.78a2.24,2.24,0,0,1,0,4.26l-90.33,52.15a8.73,8.73,0,0,1-7.84,0L91.64,235.14a2.24,2.24,0,0,1,0-4.26L182,178.73a8,8,0,0,1,3.91-.93m0-.24a8.26,8.26,0,0,0-4,1L91.53,230.68c-2.23,1.29-2.23,3.37,0,4.66l185,106.78a9,9,0,0,0,8.07,0L374.88,290c2.22-1.29,2.22-3.37,0-4.66L189.93,178.53a8.32,8.32,0,0,0-4-1Z" style="fill:#BA68C8;opacity:0.9"></path><path d="M116.76,220.48l-20.69,12a.61.61,0,0,0,0,1.16l13.12,7.58a2.25,2.25,0,0,0,2,0l20.69-11.95a.61.61,0,0,0,0-1.16l-13.12-7.58A2.25,2.25,0,0,0,116.76,220.48Z" style="fill:#BA68C8"></path><path d="M121.44,232.62l-7.52,4.53H110.2a.2.2,0,0,0-.11,0l-3.94,2.23.47.27,3.64-2.07H114l.12,0,7.57-4.56a.23.23,0,0,0-.24-.4Z" style="fill:#fafafa"></path><path d="M96.86,234.05l3.65-2.11h3.72a.27.27,0,0,0,.12,0l7.57-4.37a.24.24,0,0,0,.08-.32.23.23,0,0,0-.32-.08l-7.51,4.34h-3.73a.2.2,0,0,0-.11,0l-3.94,2.27Z" style="fill:#fafafa"></path><path d="M105.39,234.8h3.72l.12,0,7.57-4.37a.23.23,0,0,0,.08-.32.24.24,0,0,0-.32-.09l-7.51,4.34h-3.72a.27.27,0,0,0-.12,0l-3.9,2.26.46.27Z" style="fill:#fafafa"></path><path d="M102.69,233.24h3.73a.2.2,0,0,0,.11,0l1.9-1.09a.24.24,0,0,0,.08-.32.23.23,0,0,0-.32-.08l-1.84,1.06h-3.72a.2.2,0,0,0-.11,0l-3.91,2.25.47.27Z" style="fill:#fafafa"></path><path d="M112.32,227a.32.32,0,0,1,0,.6,1.19,1.19,0,0,1-1,0,.32.32,0,0,1,0-.6A1.19,1.19,0,0,1,112.32,227Z" style="fill:#fafafa"></path><path d="M108.82,231.62c.29.16.29.43,0,.6a1.17,1.17,0,0,1-1,0,.32.32,0,0,1,0-.6A1.17,1.17,0,0,1,108.82,231.62Z" style="fill:#fafafa"></path><path d="M117.2,229.9a.31.31,0,0,1,0,.59,1.12,1.12,0,0,1-1,0,.31.31,0,0,1,0-.59A1.12,1.12,0,0,1,117.2,229.9Z" style="fill:#fafafa"></path><polygon points="140.47 249.35 144.27 251.53 175.24 234.1 171.45 231.91 140.47 249.35" style="fill:#BA68C8"></polygon><path d="M263.23,221l-73.3-42.32a8.88,8.88,0,0,0-8.07,0L97.32,227.48a1.5,1.5,0,0,0-.9,1.25v.52a1.2,1.2,0,0,0,.66,1,4.1,4.1,0,0,0,3.79-.07l11.1-6.41a4.41,4.41,0,0,1,4,0l7.32,4.22a.92.92,0,0,1,0,1.83L116,234a1.4,1.4,0,0,0-.82,1.16v.52a1.4,1.4,0,0,0,.82,1.15l14.9,8.59a4.43,4.43,0,0,0,4,0l37.59-21.7a4.32,4.32,0,0,1,3.91-.08,1.44,1.44,0,0,1,.71.8,1.68,1.68,0,0,1-.83,1l-41.37,23.89a1.4,1.4,0,0,0-.83,1.16V251a1.4,1.4,0,0,0,.83,1.16l11.09,6.4a4.47,4.47,0,0,0,4,0l22.46-13a1.42,1.42,0,0,0,.83-1.17v-.52a1.4,1.4,0,0,0-.83-1.15l-2.2-1.27a.92.92,0,0,1,0-1.83l22.46-13a4.41,4.41,0,0,1,4,0l28.7,16.57a4.47,4.47,0,0,0,4,0l33.69-19.45a1.41,1.41,0,0,0,.83-1.2v-.46A1.38,1.38,0,0,0,263.23,221ZM150.41,244.72a3.37,3.37,0,0,1,3.06,0,1.23,1.23,0,0,1,.55.56,1.28,1.28,0,0,1-.54.55,3.39,3.39,0,0,1-3.07,0,1.31,1.31,0,0,1-.55-.55A1.23,1.23,0,0,1,150.41,244.72Zm7.68-4.43a3.39,3.39,0,0,1,3.07,0,1.31,1.31,0,0,1,.55.55,1.28,1.28,0,0,1-.55.56,3.39,3.39,0,0,1-3.07,0,1.34,1.34,0,0,1-.55-.56A1.38,1.38,0,0,1,158.09,240.29Zm12.16-6.57a3.39,3.39,0,0,1,3.07,0,1.28,1.28,0,0,1,.55.56,1.31,1.31,0,0,1-.55.55,3.39,3.39,0,0,1-3.07,0,1.32,1.32,0,0,1-.55-.55A1.34,1.34,0,0,1,170.25,233.72Zm-27.53,15.43a3.39,3.39,0,0,1,3.07,0,1.28,1.28,0,0,1,.55.56,1.31,1.31,0,0,1-.55.55,3.39,3.39,0,0,1-3.07,0,1.38,1.38,0,0,1-.55-.55A1.34,1.34,0,0,1,142.72,249.15Z" style="fill:#263238"></path><path d="M263.23,221l-73.3-42.32a8.88,8.88,0,0,0-8.07,0L97.32,227.48c-1.11.64-1.22,1.65-.24,2.25a4.07,4.07,0,0,0,3.79-.07l11.1-6.41a4.47,4.47,0,0,1,4,0l7.32,4.23a1.23,1.23,0,0,1,0,2.33L116,234a1.23,1.23,0,0,0,0,2.33l14.9,8.59a4.49,4.49,0,0,0,4,0l37.59-21.71a4.32,4.32,0,0,1,3.91-.07c1,.6,1,1.61-.12,2.26l-41.37,23.89a1.23,1.23,0,0,0,0,2.33L146,258.07a4.47,4.47,0,0,0,4,0l22.46-13a1.23,1.23,0,0,0,0-2.33l-2.2-1.27a1.23,1.23,0,0,1,0-2.33l22.46-13a4.47,4.47,0,0,1,4,0l28.7,16.57a4.41,4.41,0,0,0,4,0l33.69-19.45A1.23,1.23,0,0,0,263.23,221ZM145.79,250.26a3.39,3.39,0,0,1-3.07,0,.94.94,0,0,1,0-1.77,3.45,3.45,0,0,1,3.07,0A.93.93,0,0,1,145.79,250.26Zm7.69-4.43a3.39,3.39,0,0,1-3.07,0,.93.93,0,0,1,0-1.77,3.37,3.37,0,0,1,3.06,0A.93.93,0,0,1,153.48,245.83Zm7.68-4.43a3.39,3.39,0,0,1-3.07,0,.94.94,0,0,1,0-1.77,3.39,3.39,0,0,1,3.07,0A.93.93,0,0,1,161.16,241.4Zm12.16-6.57a3.39,3.39,0,0,1-3.07,0,.94.94,0,0,1,0-1.77,3.45,3.45,0,0,1,3.07,0A.93.93,0,0,1,173.32,234.83Z" style="fill:#455a64"></path><path d="M199.53,188.76a.63.63,0,0,1-.38.52l-48.17,28a1.87,1.87,0,0,1-.9.21v1.1a1.84,1.84,0,0,0,.9-.21l47.64-27.69c.5-.29.9-.41.9-1Z" style="fill:#BA68C8"></path><path d="M199.53,188.76a.63.63,0,0,1-.38.52l-48.17,28a1.87,1.87,0,0,1-.9.21v1.1a1.84,1.84,0,0,0,.9-.21l47.64-27.69c.5-.29.9-.41.9-1Z" style="opacity:0.30000000000000004"></path><path d="M149.17,217.28l-12.36-7.14a.55.55,0,0,1,0-1l48.16-28a2,2,0,0,1,1.82,0l12.36,7.13a.56.56,0,0,1,0,1.05l-48.17,28A2,2,0,0,1,149.17,217.28Z" style="fill:#BA68C8"></path><path d="M136.43,209.64v.89c0,.58.41.73.91,1l11.83,6.83a1.91,1.91,0,0,0,.91.21v-1.1a1.8,1.8,0,0,1-.91-.21l-12.36-7.14A.69.69,0,0,1,136.43,209.64Z" style="fill:#BA68C8"></path><path d="M136.43,209.63v.9c0,.58.41.73.91,1l11.83,6.83a1.91,1.91,0,0,0,.91.21v-1.1a1.71,1.71,0,0,1-.91-.23l-12.36-7.14A.66.66,0,0,1,136.43,209.63Z" style="opacity:0.15"></path><path d="M139.82,209.17l45.42-26.41a1.38,1.38,0,0,1,1.28,0l9.63,5.55a.54.54,0,0,1,.3.45.56.56,0,0,1-.3.45l-45.43,26.41a1.4,1.4,0,0,1-1.29,0l-9.61-5.56a.52.52,0,0,1-.31-.45.42.42,0,0,1,.06-.21A.56.56,0,0,1,139.82,209.17Zm56.37-20.41c0-.08-.06-.15-.17-.22L186.39,183a1.21,1.21,0,0,0-1,0L140,209.4h0c-.11.06-.17.14-.17.21a.27.27,0,0,0,.17.22l9.62,5.56a1.12,1.12,0,0,0,1,0L196,189a.31.31,0,0,0,.14-.14A.13.13,0,0,0,196.19,188.76Z" style="fill:#f5f5f5"></path><path d="M143.45,209.39l42.12-24.5a.68.68,0,0,1,.62,0l6.38,3.65a.3.3,0,0,1,.16.25.33.33,0,0,1-.16.26l-42.18,24.5a.75.75,0,0,1-.62,0l-6.32-3.65a.29.29,0,0,1-.17-.25.28.28,0,0,1,0-.13A.4.4,0,0,1,143.45,209.39Zm.1.25Zm48.89-20.87-6.38-3.65h0a.36.36,0,0,0-.35,0l-42.13,24.5s0,0,0,0l0,0,6.33,3.65a.53.53,0,0,0,.35,0l42.18-24.5,0,0Z" style="fill:#f5f5f5"></path><path d="M101.65,247.7,84.75,238a2.18,2.18,0,0,0-2,0L47.8,258.12v1.12l18.92,10.93L101.65,250a.68.68,0,0,0,.42-.57v-1.13A.73.73,0,0,0,101.65,247.7Zm-49.06,11,9.33-5.4a2.33,2.33,0,0,1,2,0l1.77,1a2.22,2.22,0,0,0,2,0l5.55-3.21a2.25,2.25,0,0,1,2,0l9.34,5.39,0,0,0,0-16.91,9.75a2.16,2.16,0,0,1-2,0L52.59,258.7l0,0Zm20.81-12,9.35-5.39a2.22,2.22,0,0,1,2,0l13.12,7.57,0,0,0,0-9.34,5.38a2.16,2.16,0,0,1-2,0L73.4,246.68l0,0Z" style="fill:#BA68C8"></path><path d="M101.65,247.7,84.75,238a2.18,2.18,0,0,0-2,0L47.8,258.12,66.72,269l34.93-20.17a.71.71,0,0,0,.42-.58A.73.73,0,0,0,101.65,247.7Zm-3.77,1.17-9.34,5.38a2.16,2.16,0,0,1-2,0L73.4,246.68l0,0,0,0,9.35-5.39a2.22,2.22,0,0,1,2,0l13.12,7.57,0,0Zm-13.24,7.65-16.91,9.75a2.16,2.16,0,0,1-2,0L52.59,258.7l0,0,0,0,9.33-5.4a2.33,2.33,0,0,1,2,0l1.77,1a2.22,2.22,0,0,0,2,0l5.55-3.21a2.25,2.25,0,0,1,2,0l9.34,5.39,0,0Z" style="fill:#BA68C8"></path><path d="M101.65,247.7,84.75,238a2.18,2.18,0,0,0-2,0L47.8,258.12,66.72,269l34.93-20.17a.71.71,0,0,0,.42-.58A.73.73,0,0,0,101.65,247.7Zm-3.77,1.17-9.34,5.38a2.16,2.16,0,0,1-2,0L73.4,246.68l0,0,0,0,9.35-5.39a2.22,2.22,0,0,1,2,0l13.12,7.57,0,0Zm-13.24,7.65-16.91,9.75a2.16,2.16,0,0,1-2,0L52.59,258.7l0,0,0,0,9.33-5.4a2.33,2.33,0,0,1,2,0l1.77,1a2.22,2.22,0,0,0,2,0l5.55-3.21a2.25,2.25,0,0,1,2,0l9.34,5.39,0,0Z" style="fill:#fff;opacity:0.7000000000000001"></path><path d="M84.67,256.5l0,0-9.34-5.39a2.25,2.25,0,0,0-2,0l-5.55,3.21a2.22,2.22,0,0,1-2,0l-1.77-1a2.33,2.33,0,0,0-2,0l-9.33,5.4,0,0c-.52-.32-.51-.83,0-1.15l9.33-5.38a2.21,2.21,0,0,1,2,0l1.77,1a2.16,2.16,0,0,0,2,0l5.55-3.2a2.25,2.25,0,0,1,2,0l9.34,5.39A.61.61,0,0,1,84.67,256.5Z" style="fill:#BA68C8"></path><path d="M97.92,248.85l0,0-13.12-7.57a2.22,2.22,0,0,0-2,0l-9.35,5.39,0,0a.61.61,0,0,1,0-1.15l9.35-5.38a2.16,2.16,0,0,1,2,0l13.12,7.57A.62.62,0,0,1,97.92,248.85Z" style="fill:#BA68C8"></path><path d="M66.72,253.41a1.93,1.93,0,0,1-1-.25l-1.77-1a2,2,0,0,0-1-.25V253a2.21,2.21,0,0,1,1,.23l1.77,1a2,2,0,0,0,1,.24Z" style="opacity:0.2"></path><path d="M74.29,250.84a2.07,2.07,0,0,1,1,.24l9.34,5.39,0,0a.61.61,0,0,0,0-1.15L75.3,250a2.07,2.07,0,0,0-1-.24Z" style="opacity:0.2"></path><path d="M97.88,247.7l-13.12-7.57a2.1,2.1,0,0,0-1.1-.24V241a2,2,0,0,1,1.1.23l13.12,7.57,0,0A.62.62,0,0,0,97.88,247.7Z" style="opacity:0.2"></path><path d="M68,270.11a.71.71,0,0,0-.4-.56L46.92,257.61a2.18,2.18,0,0,0-2,0l-1,.57a.67.67,0,0,0-.41.56v1a.67.67,0,0,0,.41.55l20.69,12a2.22,2.22,0,0,0,2,0l1-.57a.68.68,0,0,0,.4-.56Z" style="fill:#37474f"></path><path d="M67.61,269.55,46.92,257.61a2.18,2.18,0,0,0-2,0l-1,.57a.61.61,0,0,0,0,1.16l20.69,12a2.22,2.22,0,0,0,2,0l1-.57A.62.62,0,0,0,67.61,269.55Z" style="fill:#455a64"></path><path d="M65.61,271.53v.94a2,2,0,0,1-1-.24L43.91,260.29a.7.7,0,0,1-.4-.56c0-.15,0-.63,0-.88a.71.71,0,0,0,.4.49l20.69,12A2,2,0,0,0,65.61,271.53Z" style="fill:#263238"></path><path d="M79.33,226.17a.71.71,0,0,0-.41-.58l-9.34-5.39a2.25,2.25,0,0,0-2,0L62,223.41a2.25,2.25,0,0,1-2,0l-1.76-1a2.18,2.18,0,0,0-2,0l-9.34,5.39a.71.71,0,0,0-.42.58v1.22a.71.71,0,0,0,.42.58L60,237.74a2.25,2.25,0,0,0,2,0L78.92,228a.71.71,0,0,0,.41-.58C79.34,227.19,79.33,226.38,79.33,226.17Z" style="fill:#37474f"></path><path d="M62,236.52l16.91-9.76a.62.62,0,0,0,0-1.17l-9.34-5.39a2.25,2.25,0,0,0-2,0L62,223.41a2.25,2.25,0,0,1-2,0l-1.76-1a2.18,2.18,0,0,0-2,0l-9.34,5.39a.61.61,0,0,0,0,1.16L60,236.52A2.25,2.25,0,0,0,62,236.52Z" style="fill:#455a64"></path><path d="M50.66,227.78l5.55-3.21a2.25,2.25,0,0,1,2,0L67.56,230c.56.32.56.84,0,1.17L62,234.33a2.25,2.25,0,0,1-2,0l-9.33-5.39A.61.61,0,0,1,50.66,227.78Z" style="fill:#BA68C8"></path><path d="M50.66,227.78l5.55-3.21a2.25,2.25,0,0,1,2,0L67.56,230c.56.32.56.84,0,1.17L62,234.33a2.25,2.25,0,0,1-2,0l-9.33-5.39A.61.61,0,0,1,50.66,227.78Z" style="opacity:0.2"></path><path d="M55.67,224.88l-.7.4,1.55.89L53.43,228l-1.54-.89-.7.41L62.54,234l.7-.4-1.54-.89L64.79,231l1.54.89.7-.41Zm-1.54,3.48,3.09-1.78,3.08,1.78-3.08,1.78Zm6.87,4-3.08-1.78L61,228.76l3.09,1.78Z" style="fill:#BA68C8"></path><path d="M61,236.76V238a2.08,2.08,0,0,1-1-.24l-13.12-7.58a.71.71,0,0,1-.42-.58v-1.23a.71.71,0,0,0,.42.59L60,236.52A2.08,2.08,0,0,0,61,236.76Z" style="fill:#263238"></path><path d="M376.28,239.19l-185-106.78a11.6,11.6,0,0,0-10.86,0L90.13,184.56a5.54,5.54,0,0,0-3.06,4.75V198a5.55,5.55,0,0,0,3.06,4.76l185,106.78a11.67,11.67,0,0,0,10.86,0l90.34-52.16a5.55,5.55,0,0,0,3.06-4.74v-8.74A5.57,5.57,0,0,0,376.28,239.19ZM181.86,143.57a8.9,8.9,0,0,1,8.07,0L371.35,248.31l-86.8,50.11a9,9,0,0,1-8.08,0L95.06,193.68Z" style="fill:#37474f"></path><path d="M280.51,299.38a8.32,8.32,0,0,1-4-1L95.06,193.68l17-9.84-9.89-6.25-12.08,7a5.54,5.54,0,0,0-3.06,4.75V198a5.55,5.55,0,0,0,3.06,4.76l185,106.78a10.92,10.92,0,0,0,5.43,1.34h0Z" style="fill:#263238"></path><path d="M376.28,239.19l-185-106.78a11.6,11.6,0,0,0-10.86,0L90.13,184.56a5.22,5.22,0,0,0,0,9.5l2.13,1.23L275.07,300.84a11.69,11.69,0,0,0,10.87,0l88.19-50.92,2.15-1.24a5.21,5.21,0,0,0,0-9.49Zm-91.73,59.23a9,9,0,0,1-8.08,0L95.06,193.68l86.8-50.11a8.9,8.9,0,0,1,8.07,0L371.35,248.31Z" style="fill:#455a64"></path><path d="M374.88,246.27l-3.53,2L189.93,143.57a8.9,8.9,0,0,0-8.07,0l-86.8,50.11-3.53-2.05c-2.23-1.28-2.23-3.37,0-4.65l90.33-52.15a8.9,8.9,0,0,1,8.07,0l185,106.78C377.11,242.9,377.11,245,374.88,246.27Z" style="fill:#263238"></path><path d="M185.89,142.6v-8.74a8.26,8.26,0,0,0-4,1L91.53,187c-2.23,1.28-2.23,3.37,0,4.65l3.53,2.05,86.8-50.11A8.15,8.15,0,0,1,185.89,142.6Z" style="fill:#37474f"></path><path d="M358.8,246.12A1.4,1.4,0,0,0,358,245L312.8,218.88a4.47,4.47,0,0,0-4,0l-75.44,43.56a1.38,1.38,0,0,0-.83,1.16v2.14a1.38,1.38,0,0,0,.83,1.16L278.49,293a4.43,4.43,0,0,0,4,0L358,249.42a1.4,1.4,0,0,0,.83-1.15Z" style="fill:#BA68C8"></path><path d="M280.51,291.33v2.13a4.27,4.27,0,0,1-2-.47l-45.17-26.08a1.43,1.43,0,0,1-.82-1.18c0-.37,0-1.75,0-2.13a1.41,1.41,0,0,0,.82,1.16l45.17,26.08A4,4,0,0,0,280.51,291.33Z" style="opacity:0.55"></path><path d="M312.07,218.6H309.5A4.68,4.68,0,0,1,312.07,218.6Z" style="fill:#BA68C8"></path><path d="M358.8,246.28v2a1.42,1.42,0,0,1-.83,1.16L282.53,293a4.27,4.27,0,0,1-2,.47v-2.13a4.06,4.06,0,0,0,2-.49L358,247.29A1.57,1.57,0,0,0,358.8,246.28Z" style="opacity:0.45"></path><path d="M282.53,290.84,358,247.29a1.23,1.23,0,0,0,0-2.33L312.8,218.88a4.47,4.47,0,0,0-4,0l-75.44,43.56a1.23,1.23,0,0,0,0,2.33l45.16,26.07A4.43,4.43,0,0,0,282.53,290.84Z" style="fill:#BA68C8"></path><path d="M282.53,290.84,358,247.29a1.23,1.23,0,0,0,0-2.33L312.8,218.88a4.47,4.47,0,0,0-4,0l-75.44,43.56a1.23,1.23,0,0,0,0,2.33l45.16,26.07A4.43,4.43,0,0,0,282.53,290.84Z" style="opacity:0.30000000000000004"></path><path d="M277.45,277.45l-8.82,5.09c-.22.13-.32.28-.21.34a.75.75,0,0,0,.59-.12l8.53-4.93,2.95,1.7a.21.21,0,0,0,.19,0l4.56-2.64a.18.18,0,0,0,.1-.16v-3.4l7.09-4.1a1.17,1.17,0,0,0,.87-.09c.31-.17.31-.45,0-.63a1.23,1.23,0,0,0-1.09,0c-.24.14-.29.34-.15.51l-7,4a.18.18,0,0,0-.1.16v3.4l-4.37,2.53-2.95-1.7A.21.21,0,0,0,277.45,277.45Z" style="fill:#BA68C8"></path><path d="M275.1,286.27l13.2-7.61a.22.22,0,0,0,.09-.17v-3.41l3.08-1.77a1.28,1.28,0,0,0,.87-.09c.31-.18.31-.46,0-.63a1.17,1.17,0,0,0-1.09,0c-.24.13-.29.33-.15.5l-3,1.72a.2.2,0,0,0-.09.17v3.41l-13.28,7.67c-.23.13-.32.28-.22.34A.76.76,0,0,0,275.1,286.27Z" style="fill:#BA68C8"></path><path d="M349.67,242.78l-16.23,9.37a.17.17,0,0,0-.09.16v3.41l-37.23,21.49a1.19,1.19,0,0,0-.87.09c-.3.17-.3.45,0,.63a1.25,1.25,0,0,0,1.1,0c.23-.14.28-.34.15-.51L333.63,256a.22.22,0,0,0,.09-.16v-3.41L350.05,243c.22-.13.32-.28.21-.34A.77.77,0,0,0,349.67,242.78Z" style="fill:#BA68C8"></path><path d="M278.13,288l13.2-7.62a.19.19,0,0,0,.09-.16v-3.41l7.07-4.08a1.23,1.23,0,0,0,.89-.09c.3-.17.3-.45,0-.63a1.25,1.25,0,0,0-1.1,0c-.23.14-.28.33-.15.5l-7,4a.18.18,0,0,0-.09.16v3.41l-13.29,7.67c-.22.13-.32.28-.22.34A.79.79,0,0,0,278.13,288Z" style="fill:#BA68C8"></path><path d="M323.81,227.85l-5.58,3.22a.19.19,0,0,0-.1.16v3.41l-5.57,3.22a1.22,1.22,0,0,0-.87.08.34.34,0,0,0,0,.64,1.23,1.23,0,0,0,1.09,0c.24-.14.29-.34.15-.51l5.48-3.16a.2.2,0,0,0,.1-.16v-3.41l5.68-3.28c.22-.13.32-.28.21-.34A.76.76,0,0,0,323.81,227.85Z" style="fill:#BA68C8"></path><path d="M352.72,244.53l-8.21,4.74a1.32,1.32,0,0,0-.88.09c-.3.18-.3.46,0,.63a1.19,1.19,0,0,0,1.1,0c.24-.13.28-.33.15-.5l8.21-4.74c.22-.13.32-.28.22-.34A.74.74,0,0,0,352.72,244.53Z" style="fill:#BA68C8"></path><path d="M290.84,238.42l1.24.72-3.94,2.27h-6a.17.17,0,0,0-.1,0l-7.6,4.39a.19.19,0,0,0-.1.16v3.52a.2.2,0,0,0,.1.16l1.24.71-8.83,5.1a.19.19,0,0,0-.1.16v3.41l-4.39,2.54L258,259.06v-3.3l12.22-7a1.22,1.22,0,0,0,.87-.09.33.33,0,0,0,0-.63,1.17,1.17,0,0,0-1.09,0c-.24.13-.28.34-.15.5l-12.13,7a.2.2,0,0,0-.09.16v3.52a.2.2,0,0,0,.09.16L262,261.8l-14.63,8.44c-.22.13-.31.29-.21.35a.81.81,0,0,0,.59-.13L262.33,262l1.34.77,0,3.34L252,272.91c-.22.13-.32.28-.22.34a.76.76,0,0,0,.59-.13L264,266.4a.16.16,0,0,0,.09-.16l0-3.56a.19.19,0,0,0-.09-.16l-1.24-.72,4.3-2.48a.2.2,0,0,0,.09-.16v-3.41L276,250.6l10.28,5.93-14.93,8.62a.21.21,0,0,0-.1.17v5.16l-11.77,6.79c-.22.13-.31.28-.21.34a.75.75,0,0,0,.59-.12l11.67-6.74a.21.21,0,0,0,.1-.17v-5.16l15-8.67,7.42,4.28v3.3l-28.5,16.45c-.22.13-.32.28-.22.34A.74.74,0,0,0,266,281l28.41-16.4a.19.19,0,0,0,.1-.16v-3.52a.19.19,0,0,0-.1-.16l-7.32-4.23,5.38-3.11a1.17,1.17,0,0,0,.87-.09c.31-.17.31-.45,0-.63a1.23,1.23,0,0,0-1.09,0c-.24.14-.29.34-.15.51l-5.39,3.11-10.27-5.94,8.72-5a1.32,1.32,0,0,0,.88-.09c.3-.18.3-.46,0-.63a1.19,1.19,0,0,0-1.1,0c-.24.13-.28.33-.15.5l-8.73,5-1.33-.77v-3.3l7.47-4.31h6a.17.17,0,0,0,.1,0l4.17-2.41,4.19,2.42L284,249.1a1.19,1.19,0,0,0-.87.09.33.33,0,0,0,0,.63,1.19,1.19,0,0,0,1.1,0c.23-.13.28-.34.15-.5L297,242l4.19,2.42-8.54,4.93a1.21,1.21,0,0,0-.88.09.33.33,0,0,0,0,.63,1.19,1.19,0,0,0,1.1,0c.23-.14.28-.34.15-.5l8.55-4.94,7.23,4.18-2.67,1.54-2.95-1.7a.17.17,0,0,0-.19,0l-3.44,2a1.29,1.29,0,0,0-.87.09c-.3.18-.3.46,0,.63a1.17,1.17,0,0,0,1.09,0c.24-.13.29-.33.16-.5l3.16-1.82,2.95,1.7a.19.19,0,0,0,.18,0l2.95-1.7,2.67,1.54-14.21,8.2a1.26,1.26,0,0,0-.88.09c-.3.18-.3.46,0,.63a1.19,1.19,0,0,0,1.1,0c.23-.13.28-.34.15-.5l14.22-8.21,1.33.77v3.3l-9,5.21a.21.21,0,0,0-.1.17v3.4l-5.57,3.22a1.17,1.17,0,0,0-.87.09.33.33,0,0,0,0,.63,1.23,1.23,0,0,0,1.09,0c.24-.14.28-.34.15-.5l5.48-3.17a.18.18,0,0,0,.1-.16v-3.41l9-5.21a.18.18,0,0,0,.09-.16v-3.52a.18.18,0,0,0-.09-.16l-1.24-.71,7.33-4.23a.22.22,0,0,0,.09-.17v-3.4l14.81-8.55c.22-.13.32-.28.21-.34a.79.79,0,0,0-.59.12l-14.71,8.5a.18.18,0,0,0-.1.16v3.41l-7.41,4.28-2.67-1.54,4.28-2.47a.2.2,0,0,0,.09-.17v-3.4l17.85-10.31c.23-.13.32-.28.22-.34a.76.76,0,0,0-.59.13l-17.76,10.25a.17.17,0,0,0-.09.16v3.41l-4.38,2.52L302,244.41l7.33-4.23a.22.22,0,0,0,.09-.16V233.1l11.76-6.79c.23-.13.32-.29.22-.35a.76.76,0,0,0-.59.13l-11.67,6.74a.17.17,0,0,0-.09.16v6.92l-7.42,4.28-4.19-2.42,7.32-4.23a.18.18,0,0,0,.1-.16v-5.16l13.28-7.67c.22-.13.32-.28.22-.34a.74.74,0,0,0-.59.12L304.54,232a.18.18,0,0,0-.1.16v5.16L297,241.56l-4.19-2.42,6.91-4a1.17,1.17,0,0,0,.87-.09.33.33,0,0,0,0-.63,1.23,1.23,0,0,0-1.09,0c-.24.14-.29.34-.15.5l-6.91,4-1.34-.77v-3.3l22.42-12.94c.22-.12.32-.28.21-.34a.77.77,0,0,0-.59.13l-22.32,12.88a.22.22,0,0,0-.09.17v3.51A.19.19,0,0,0,290.84,238.42Z" style="fill:#BA68C8"></path><path d="M346.63,241l-16.23,9.37a.21.21,0,0,0-.1.17V254l-14.85,8.57a1.29,1.29,0,0,0-.87.09c-.3.18-.3.46,0,.63a1.19,1.19,0,0,0,1.1,0c.23-.13.28-.33.15-.5l14.75-8.52a.18.18,0,0,0,.1-.16v-3.41L347,241.24c.22-.13.32-.28.21-.34A.75.75,0,0,0,346.63,241Z" style="fill:#BA68C8"></path><path d="M328.38,230.48l-3.65,2.11a1.22,1.22,0,0,0-.87.08.34.34,0,0,0,0,.64,1.23,1.23,0,0,0,1.09,0c.24-.14.29-.34.15-.51l3.65-2.1c.22-.13.32-.28.22-.34A.74.74,0,0,0,328.38,230.48Z" style="fill:#BA68C8"></path><path d="M244.67,268.7l5.58-3.22a.2.2,0,0,0,.1-.16v-3.41l4.05-2.34a1.17,1.17,0,0,0,.87-.09c.3-.17.3-.45,0-.63a1.23,1.23,0,0,0-1.09,0c-.24.14-.29.34-.15.5l-4,2.29a.19.19,0,0,0-.1.16v3.41l-5.68,3.28c-.22.13-.32.28-.21.34A.77.77,0,0,0,244.67,268.7Z" style="fill:#BA68C8"></path><path d="M238.58,265.19l3.65-2.11a1.22,1.22,0,0,0,.87-.08.34.34,0,0,0,0-.64,1.23,1.23,0,0,0-1.09,0c-.24.14-.29.34-.15.51l-3.65,2.1c-.23.13-.32.29-.22.35A.81.81,0,0,0,238.58,265.19Z" style="fill:#BA68C8"></path><path d="M241.62,267l5.59-3.23a.18.18,0,0,0,.1-.16v-3.41l5.57-3.21a1.29,1.29,0,0,0,.87-.09c.3-.18.3-.46,0-.63a1.17,1.17,0,0,0-1.09,0c-.24.13-.29.33-.16.5L247,259.88a.22.22,0,0,0-.09.17v3.4l-5.68,3.28c-.22.13-.32.28-.22.34A.74.74,0,0,0,241.62,267Z" style="fill:#BA68C8"></path><path d="M286.19,234v3.3l-2.13,1.23a1.26,1.26,0,0,0-.88.09.33.33,0,0,0,0,.63,1.19,1.19,0,0,0,1.1,0c.23-.13.28-.34.15-.5l2-1.18a.17.17,0,0,0,.09-.16v-3.62Z" style="fill:#BA68C8"></path><path d="M339,236.63l-13.19,7.62a.19.19,0,0,0-.09.16v6.92l-16.64,9.6a.2.2,0,0,0-.09.17v5.16l-5.28,3a1.22,1.22,0,0,0-.87.09.33.33,0,0,0,0,.63,1.17,1.17,0,0,0,1.09,0c.24-.13.29-.34.15-.5l5.19-3a.22.22,0,0,0,.09-.16V261.2L326,251.6a.2.2,0,0,0,.09-.17v-6.91l13.29-7.67c.22-.13.32-.29.22-.35A.79.79,0,0,0,339,236.63Z" style="fill:#BA68C8"></path><path d="M342.07,238.39,338,240.73a.22.22,0,0,0-.09.16v1.65l-5.57,3.22a1.21,1.21,0,0,0-.88.09.33.33,0,0,0,0,.63,1.25,1.25,0,0,0,1.1,0c.24-.14.28-.34.15-.5l5.48-3.17a.17.17,0,0,0,.09-.16V241l4.16-2.4c.22-.13.32-.28.22-.34A.76.76,0,0,0,342.07,238.39Z" style="fill:#BA68C8"></path><path d="M274.31,272.23,262.55,279c-.23.13-.32.28-.22.34a.76.76,0,0,0,.59-.13l11.67-6.74a.18.18,0,0,0,.1-.16v-3.4l8.61-5a1.21,1.21,0,0,0,.88-.09c.3-.17.3-.45,0-.63a1.25,1.25,0,0,0-1.1,0c-.23.14-.28.34-.15.51l-8.52,4.92a.18.18,0,0,0-.1.16Z" style="fill:#BA68C8"></path><path d="M268.23,268.72l-11.77,6.79c-.22.13-.32.29-.21.34a.75.75,0,0,0,.59-.12L268.51,269a.17.17,0,0,0,.09-.16v-6.92l5.58-3.22a1.19,1.19,0,0,0,.87-.09c.3-.17.3-.45,0-.63a1.25,1.25,0,0,0-1.1,0c-.23.14-.28.34-.15.51l-5.48,3.16a.18.18,0,0,0-.09.16Z" style="fill:#BA68C8"></path><g id="freepik--Chip--inject-274"><path d="M254.14,269.08a.71.71,0,0,0,.41.57l13.61,7.86a2.05,2.05,0,0,0,1,.24v2.16a2,2,0,0,1-1-.24l-13-7.52c-.55-.32-1-.51-1-1.14Z" style="fill:#263238"></path><path d="M270.16,277.51l13.6-7.86a.61.61,0,0,0,0-1.15l-13.61-7.85a2.18,2.18,0,0,0-2,0l-13.61,7.85a.61.61,0,0,0,0,1.15l13.61,7.86A2.2,2.2,0,0,0,270.16,277.51Z" style="fill:#455a64"></path><path d="M284.17,269.11V271c0,.63-.44.82-1,1.14l-13,7.52a2,2,0,0,1-1,.24v-2.16a2.05,2.05,0,0,0,1-.24l13.6-7.86A.7.7,0,0,0,284.17,269.11Z" style="fill:#37474f"></path><path d="M280.71,268.85a.39.39,0,0,1,.07.23.57.57,0,0,1-.33.48l-10.59,6.12a1.51,1.51,0,0,1-1.4,0l-10.6-6.12a.57.57,0,0,1-.33-.48.6.6,0,0,1,.33-.49l10.6-6.11a1.51,1.51,0,0,1,1.4,0l10.59,6.11A.65.65,0,0,1,280.71,268.85Zm-.33-.14Zm-22.55.46a.36.36,0,0,0,.17.15l10.6,6.12a1.23,1.23,0,0,0,1.12,0l10.59-6.12a.25.25,0,0,0,0-.49l-10.59-6.12a1.28,1.28,0,0,0-1.13,0L258,268.83c-.13.07-.2.16-.2.25A.16.16,0,0,0,257.83,269.17Z" style="fill:#f5f5f5"></path><path d="M276.59,269a.33.33,0,0,1,0,.13.34.34,0,0,1-.18.28l-7,4a.87.87,0,0,1-.67,0l-7-4a.3.3,0,0,1,0-.55l7-4a.75.75,0,0,1,.67,0l7,4A.47.47,0,0,1,276.59,269Zm-14.69.13,0,0,7,4a.65.65,0,0,0,.39,0l7-4,0,0,0,0-7-4a.45.45,0,0,0-.39,0h0l-7,4Z" style="fill:#f5f5f5"></path></g><path d="M223.87,226.3A3.77,3.77,0,0,1,222,223v-.2a3.82,3.82,0,0,0-1.92-3.29l-24.5-13.95v1.08l24,13.68a2.84,2.84,0,0,1,1.44,2.48v.2a4.75,4.75,0,0,0,2.36,4.09L256,246v-1.07Z" style="fill:#BA68C8"></path><path d="M223.87,226.3A3.77,3.77,0,0,1,222,223v-.2a3.82,3.82,0,0,0-1.92-3.29l-24.5-13.95v1.08l24,13.68a2.84,2.84,0,0,1,1.44,2.48v.2a4.75,4.75,0,0,0,2.36,4.09L256,246v-1.07Z" style="opacity:0.30000000000000004"></path><path d="M256,244.88,223.87,226.3A3.77,3.77,0,0,1,222,223v-.2a3.79,3.79,0,0,0-1.92-3.29l-24.5-13.95L206.91,199l24.53,14.16a3.8,3.8,0,0,1,1.89,3.28h0a3.8,3.8,0,0,0,1.89,3.28l32.17,18.57Z" style="fill:#BA68C8"></path><path d="M233.54,220.72a3.8,3.8,0,0,1-1.89-3.28v-.21a3.8,3.8,0,0,0-1.91-3.29L205.23,200l-.77.44L229,214.39a3.79,3.79,0,0,1,1.92,3.29v.21a3.77,3.77,0,0,0,1.89,3.27l32.17,18.58.77-.45Z" style="fill:#fafafa"></path><path d="M229.94,222.8a3.8,3.8,0,0,1-1.89-3.28v-.21a3.79,3.79,0,0,0-1.92-3.29l-24.5-13.94-.78.44,24.51,13.95a3.79,3.79,0,0,1,1.91,3.29V220a3.77,3.77,0,0,0,1.89,3.27l32.17,18.58.78-.45Z" style="fill:#fafafa"></path><path d="M226.33,224.88a3.8,3.8,0,0,1-1.89-3.28v-.21a3.8,3.8,0,0,0-1.91-3.29L198,204.16l-.77.45,24.5,13.94a3.77,3.77,0,0,1,1.92,3.29v.21a3.8,3.8,0,0,0,1.89,3.28l32.17,18.57.77-.45Z" style="fill:#fafafa"></path><g id="freepik--chip--inject-274"><path d="M250.82,243.94a.71.71,0,0,0,.41.58l8.09,4.67a2.14,2.14,0,0,0,1,.23v2.16a2,2,0,0,1-1-.24l-7.5-4.33c-.55-.31-1-.5-1-1.14Z" style="fill:#263238"></path><path d="M261.32,249.18l13.6-7.85a.61.61,0,0,0,0-1.16l-8.09-4.66a2.18,2.18,0,0,0-2,0l-13.61,7.86a.61.61,0,0,0,0,1.15l8.09,4.66A2.2,2.2,0,0,0,261.32,249.18Z" style="fill:#455a64"></path><path d="M275.33,240.78v1.9c0,.64-.44.83-1,1.14l-13,7.52a2,2,0,0,1-1,.24v-2.16a2,2,0,0,0,1-.23l13.6-7.86A.72.72,0,0,0,275.33,240.78Z" style="fill:#37474f"></path><path d="M271.87,240.52a.48.48,0,0,1,.07.23.6.6,0,0,1-.33.49L261,247.35a1.51,1.51,0,0,1-1.4,0l-5.08-2.92a.6.6,0,0,1-.33-.49.57.57,0,0,1,.33-.48l10.6-6.12a1.57,1.57,0,0,1,1.4,0l5.07,2.93A.63.63,0,0,1,271.87,240.52Zm-.33-.13h0Zm-17,3.65a.52.52,0,0,0,.17.15l5.08,2.93a1.29,1.29,0,0,0,1.12,0L271.47,241a.25.25,0,0,0,0-.49l-5.07-2.93a1.25,1.25,0,0,0-1.13,0l-10.59,6.12c-.13.07-.2.16-.2.24A.19.19,0,0,0,254.51,244Z" style="fill:#f5f5f5"></path><path d="M267.75,240.65a.33.33,0,0,1,0,.14.33.33,0,0,1-.18.27l-7,4a.87.87,0,0,1-.67,0l-1.5-.83a.33.33,0,0,1-.18-.27.32.32,0,0,1,.18-.27l7-4a.72.72,0,0,1,.67,0l1.44.83A.35.35,0,0,1,267.75,240.65ZM258.58,244a.07.07,0,0,0,0,0l1.49.83a.55.55,0,0,0,.4,0l7-4a.07.07,0,0,0,0,0l0,0-1.44-.82a.45.45,0,0,0-.39,0h0l-7,4Z" style="fill:#f5f5f5"></path></g><path d="M253.17,176.92l0,0-56.54-32.64a1.43,1.43,0,0,0-1.43.14l-37.6,21.71a4.44,4.44,0,0,0-2,3.49v1.9a1.4,1.4,0,0,0,.59,1.3L213,205.56a1.41,1.41,0,0,0,1.42-.14L252,183.71a4.47,4.47,0,0,0,2-3.49v-1.9C254,177.54,253.68,177.05,253.17,176.92Z" style="fill:#BA68C8"></path><path d="M253.17,176.92l0,0-56.54-32.64a1.43,1.43,0,0,0-1.43.14l-37.6,21.71a4.44,4.44,0,0,0-2,3.49v1.9a1.4,1.4,0,0,0,.59,1.3L213,205.56a1.41,1.41,0,0,0,1.42-.14L252,183.71a4.47,4.47,0,0,0,2-3.49v-1.9C254,177.54,253.68,177.05,253.17,176.92Z" style="opacity:0.30000000000000004"></path><path d="M213,205.58a.05.05,0,0,1,0,0l-56.77-32.77a1.43,1.43,0,0,1-.59-1.31v-1.9a4,4,0,0,1,.52-1.85l56.77,32.77a4.05,4.05,0,0,0-.52,1.86v1.9A1.36,1.36,0,0,0,213,205.58Z" style="opacity:0.15"></path><path d="M212.39,204.25v-1.89a4.48,4.48,0,0,1,2-3.5l37.6-21.7c1.11-.65,2-.12,2,1.16v1.9a4.47,4.47,0,0,1-2,3.49l-37.6,21.71C213.29,206.06,212.39,205.54,212.39,204.25Z" style="opacity:0.25"></path><path d="M217.84,198.76v3a1.34,1.34,0,0,1-.61,1.06l-.45.26c-.25.15-.47.09-.55-.1a.5.5,0,0,1-.06-.26v-3a1.32,1.32,0,0,1,.61-1l.45-.26a.75.75,0,0,1,.2-.08C217.67,198.3,217.84,198.46,217.84,198.76Z" style="fill:#BA68C8"></path><path d="M217.84,198.76v3a1.34,1.34,0,0,1-.61,1.06l-.45.26c-.25.15-.47.09-.55-.1a.5.5,0,0,1-.06-.26v-3a1.32,1.32,0,0,1,.61-1l.45-.26a.75.75,0,0,1,.2-.08C217.67,198.3,217.84,198.46,217.84,198.76Z" style="opacity:0.30000000000000004"></path><path d="M220.53,197.21v3a1.34,1.34,0,0,1-.6,1l-.46.26c-.25.15-.47.1-.55-.1a.49.49,0,0,1-.06-.25v-3a1.36,1.36,0,0,1,.61-1l.46-.26a.6.6,0,0,1,.2-.07C220.36,196.75,220.53,196.91,220.53,197.21Z" style="fill:#BA68C8"></path><path d="M220.53,197.21v3a1.34,1.34,0,0,1-.6,1l-.46.26c-.25.15-.47.1-.55-.1a.49.49,0,0,1-.06-.25v-3a1.36,1.36,0,0,1,.61-1l.46-.26a.6.6,0,0,1,.2-.07C220.36,196.75,220.53,196.91,220.53,197.21Z" style="opacity:0.30000000000000004"></path><path d="M223.23,195.65v3a1.35,1.35,0,0,1-.61,1.06l-.46.26c-.25.15-.46.09-.55-.11a.58.58,0,0,1-.05-.25v-3a1.33,1.33,0,0,1,.6-1l.46-.26a.47.47,0,0,1,.2-.08C223.06,195.19,223.23,195.35,223.23,195.65Z" style="fill:#BA68C8"></path><path d="M223.23,195.65v3a1.35,1.35,0,0,1-.61,1.06l-.46.26c-.25.15-.46.09-.55-.11a.58.58,0,0,1-.05-.25v-3a1.33,1.33,0,0,1,.6-1l.46-.26a.47.47,0,0,1,.2-.08C223.06,195.19,223.23,195.35,223.23,195.65Z" style="opacity:0.30000000000000004"></path><path d="M225.93,194.09v3a1.38,1.38,0,0,1-.61,1.05l-.46.26c-.25.15-.46.09-.54-.1a.49.49,0,0,1-.06-.25v-3a1.35,1.35,0,0,1,.6-1l.46-.26a.48.48,0,0,1,.2-.07C225.76,193.63,225.93,193.8,225.93,194.09Z" style="fill:#BA68C8"></path><path d="M225.93,194.09v3a1.38,1.38,0,0,1-.61,1.05l-.46.26c-.25.15-.46.09-.54-.1a.49.49,0,0,1-.06-.25v-3a1.35,1.35,0,0,1,.6-1l.46-.26a.48.48,0,0,1,.2-.07C225.76,193.63,225.93,193.8,225.93,194.09Z" style="opacity:0.30000000000000004"></path><path d="M217.49,198.59v3a1.34,1.34,0,0,1-.61,1.05l-.46.26a.71.71,0,0,1-.19.08.5.5,0,0,1-.06-.26v-3a1.32,1.32,0,0,1,.61-1l.45-.26a.75.75,0,0,1,.2-.08A.49.49,0,0,1,217.49,198.59Z" style="fill:#BA68C8"></path><path d="M220.19,197v3a1.34,1.34,0,0,1-.6,1.05l-.45.27a1,1,0,0,1-.21.07.49.49,0,0,1-.06-.25v-3a1.36,1.36,0,0,1,.61-1l.46-.26a.6.6,0,0,1,.2-.07A.45.45,0,0,1,220.19,197Z" style="fill:#BA68C8"></path><path d="M222.88,195.47v3a1.34,1.34,0,0,1-.61,1.05l-.45.26a.47.47,0,0,1-.21.07.58.58,0,0,1-.05-.25v-3a1.33,1.33,0,0,1,.6-1l.46-.26a.47.47,0,0,1,.2-.08A.48.48,0,0,1,222.88,195.47Z" style="fill:#BA68C8"></path><path d="M225.57,193.92v3a1.34,1.34,0,0,1-.6,1.05l-.46.26a.71.71,0,0,1-.19.08.49.49,0,0,1-.06-.25v-3a1.35,1.35,0,0,1,.6-1l.46-.26a.48.48,0,0,1,.2-.07A.54.54,0,0,1,225.57,193.92Z" style="fill:#BA68C8"></path><path d="M159.85,200.64a1.38,1.38,0,0,0-.83-1.16L153,195.94a4.43,4.43,0,0,0-4,0l-6.57,3.77a1.43,1.43,0,0,0-.84,1.15c0,.43,0,2.37,0,2.79a1.44,1.44,0,0,0,.83,1.17l6.06,3.54a4.41,4.41,0,0,0,4,0l6.59-3.78a1.4,1.4,0,0,0,.83-1.18Z" style="fill:#37474f"></path><path d="M148.4,205.59,142.34,202a1.23,1.23,0,0,1,0-2.33l6.57-3.77a4.43,4.43,0,0,1,4,0l6.06,3.54a1.23,1.23,0,0,1,0,2.33l-6.59,3.78A4.47,4.47,0,0,1,148.4,205.59Z" style="fill:#455a64"></path><path d="M150.42,206.08v2.76a4.16,4.16,0,0,1-2-.48l-6.06-3.54a1.42,1.42,0,0,1-.83-1.17v-2.78a.71.71,0,0,1,0-.15,1.35,1.35,0,0,0,.82,1.32l6.06,3.55A4.06,4.06,0,0,0,150.42,206.08Z" style="fill:#263238"></path><path d="M156.14,198.13h-2.26a8.75,8.75,0,0,0-6.29,0h-2.25v2.52h0a2.7,2.7,0,0,0,1.58,2.21,8.49,8.49,0,0,0,7.64,0,2.7,2.7,0,0,0,1.58-2.21h0Z" style="fill:#BA68C8"></path><path d="M156.14,198.13h-2.26a8.75,8.75,0,0,0-6.29,0h-2.25v2.52h0a2.7,2.7,0,0,0,1.58,2.21,8.49,8.49,0,0,0,7.64,0,2.7,2.7,0,0,0,1.58-2.21h0Z" style="opacity:0.30000000000000004"></path><path d="M146.92,200.34a8.49,8.49,0,0,0,7.64,0c2.1-1.22,2.1-3.19,0-4.41a8.41,8.41,0,0,0-7.63,0C144.81,197.15,144.82,199.12,146.92,200.34Z" style="fill:#BA68C8"></path><path d="M154.68,198.5c0,.05,0,.11-.07.17a2.37,2.37,0,0,1-1,.94,6.9,6.9,0,0,1-5.66,0,2.31,2.31,0,0,1-1-.94c0-.06-.05-.12-.07-.17-.22-.65.15-1.34,1.11-1.84a6.82,6.82,0,0,1,5.66,0C154.53,197.16,154.9,197.85,154.68,198.5Z" style="fill:#37474f"></path><path d="M154.61,198.67a2.37,2.37,0,0,1-1,.94,6.9,6.9,0,0,1-5.66,0,2.31,2.31,0,0,1-1-.94,2.26,2.26,0,0,1,1-.94,6.82,6.82,0,0,1,5.66,0A2.31,2.31,0,0,1,154.61,198.67Z" style="fill:#455a64"></path><path d="M154.61,198.67a2.37,2.37,0,0,1-1,.94,6.9,6.9,0,0,1-5.66,0,2.31,2.31,0,0,1-1-.94c0-1.17,1.73-2.1,3.86-2.1S154.61,197.5,154.61,198.67Z" style="fill:#fff;opacity:0.1"></path><path d="M148.3,199.19a3.6,3.6,0,0,0,1,.51,3.73,3.73,0,0,0,1.24.23,2.56,2.56,0,0,0,.67-.08.84.84,0,0,0,.52-.34.47.47,0,0,0-.13-.55.75.75,0,0,0-.53-.16c-.19,0-.37,0-.56,0a3.57,3.57,0,0,1-1.73-.36A4.75,4.75,0,0,1,148,198c-.34-.23-.34.23-.27.46A1.66,1.66,0,0,0,148.3,199.19Z" style="fill:#fff;opacity:0.30000000000000004"></path><path d="M152.27,198.83a.48.48,0,0,0-.19.29.42.42,0,0,0,.23.39.75.75,0,0,0,.47,0,.81.81,0,0,0,.3-.13.4.4,0,0,0,.16-.27.44.44,0,0,0-.33-.43A.77.77,0,0,0,152.27,198.83Z" style="fill:#fff;opacity:0.30000000000000004"></path><path d="M148.58,191.36a1.44,1.44,0,0,0-.84-1.17l-8.18-4.72a4.47,4.47,0,0,0-4,0l-11.1,6.4a1.42,1.42,0,0,0-.83,1.15c0,.43,0,2.37,0,2.79a1.44,1.44,0,0,0,.84,1.17l8.18,4.73a4.47,4.47,0,0,0,4,0l11.1-6.41a1.42,1.42,0,0,0,.84-1.18C148.57,193.7,148.58,191.78,148.58,191.36Z" style="fill:#37474f"></path><path d="M132.61,198.93l-8.18-4.73a1.23,1.23,0,0,1,0-2.33l11.1-6.4a4.47,4.47,0,0,1,4,0l8.18,4.72a1.23,1.23,0,0,1,0,2.33l-11.1,6.42A4.44,4.44,0,0,1,132.61,198.93Z" style="fill:#455a64"></path><path d="M134.63,199.42v2.77a4.06,4.06,0,0,1-2-.49L124.43,197a1.44,1.44,0,0,1-.84-1.17V193a.77.77,0,0,1,0-.15,1.34,1.34,0,0,0,.82,1.32l8.18,4.73A4.06,4.06,0,0,0,134.63,199.42Z" style="fill:#263238"></path><path d="M142.83,191.93h0v-2.45h-1.5a5.46,5.46,0,0,0-.59-.38,11.08,11.08,0,0,0-10.06,0,6.46,6.46,0,0,0-.58.38h-1.5v2.45h0a3.51,3.51,0,0,0,2.08,3,11.14,11.14,0,0,0,10.06,0A3.51,3.51,0,0,0,142.83,191.93Z" style="fill:#BA68C8"></path><path d="M142.83,191.93h0v-2.45h-1.5a5.46,5.46,0,0,0-.59-.38,11.08,11.08,0,0,0-10.06,0,6.46,6.46,0,0,0-.58.38h-1.5v2.45h0a3.51,3.51,0,0,0,2.08,3,11.14,11.14,0,0,0,10.06,0A3.51,3.51,0,0,0,142.83,191.93Z" style="opacity:0.30000000000000004"></path><path d="M130.69,192.39a11.14,11.14,0,0,0,10.06,0c2.78-1.61,2.78-4.21,0-5.81a11.08,11.08,0,0,0-10.06,0C127.91,188.18,127.91,190.78,130.69,192.39Z" style="fill:#BA68C8"></path><path d="M141.39,189.84a.49.49,0,0,1-.06.17,3,3,0,0,1-1.57,1.58,9.82,9.82,0,0,1-8.08,0A3,3,0,0,1,130.1,190a.84.84,0,0,1,0-.17c-.22-.88.33-1.79,1.62-2.46a9.76,9.76,0,0,1,8.09,0C141.05,188.05,141.59,189,141.39,189.84Z" style="fill:#37474f"></path><path d="M141.39,189.84a.49.49,0,0,1-.06.17,3,3,0,0,1-1.57,1.58,9.82,9.82,0,0,1-8.08,0A3,3,0,0,1,130.1,190a.84.84,0,0,1,0-.17c-.22-.88.33-1.79,1.62-2.46a9.76,9.76,0,0,1,8.09,0C141.05,188.05,141.59,189,141.39,189.84Z" style="fill:#37474f"></path><path d="M141.33,190a3,3,0,0,1-1.57,1.58,9.82,9.82,0,0,1-8.08,0A3,3,0,0,1,130.1,190a3,3,0,0,1,1.57-1.57,9.76,9.76,0,0,1,8.09,0A3,3,0,0,1,141.33,190Z" style="fill:#455a64"></path><path d="M141.33,190a3,3,0,0,1-1.57,1.58,9.82,9.82,0,0,1-8.08,0A3,3,0,0,1,130.1,190c0-1.68,2.52-3,5.61-3S141.33,188.33,141.33,190Z" style="fill:#fff;opacity:0.1"></path><path d="M132.18,190.77a5,5,0,0,0,1.41.75,5.72,5.72,0,0,0,1.79.32,3.61,3.61,0,0,0,1-.12,1.17,1.17,0,0,0,.75-.49.71.71,0,0,0-.18-.8,1.14,1.14,0,0,0-.77-.22,7.3,7.3,0,0,0-.81,0,5.34,5.34,0,0,1-2.52-.53,7.74,7.74,0,0,1-1.08-.71c-.48-.34-.48.33-.38.66A2.39,2.39,0,0,0,132.18,190.77Z" style="fill:#fff;opacity:0.30000000000000004"></path><path d="M137.94,190.25a.68.68,0,0,0-.28.42.58.58,0,0,0,.34.56,1,1,0,0,0,.68.06,1.16,1.16,0,0,0,.43-.18.59.59,0,0,0,.23-.39.63.63,0,0,0-.47-.63A1.1,1.1,0,0,0,137.94,190.25Z" style="fill:#fff;opacity:0.30000000000000004"></path><path d="M160.92,173.8l-22-12.68a13.37,13.37,0,0,0-12.1,0l-3,1.75c-1.66,1-2.49,2.21-2.5,3.47,0,.38,0,1.83,0,2.19,0,1.28.82,2.55,2.5,3.52l22,12.67a13.37,13.37,0,0,0,12.1,0l3-1.75c1.67-1,2.5-2.23,2.5-3.5v-2.2C163.41,176,162.58,174.76,160.92,173.8Zm-20.17-2.88a11.08,11.08,0,0,1-10.06,0,4.32,4.32,0,0,1-1.82-1.81,4.29,4.29,0,0,1,1.81-1.81,11.14,11.14,0,0,1,10.06,0,4.3,4.3,0,0,1,1.83,1.81A4.27,4.27,0,0,1,140.75,170.92Zm6.17,5.73a8.41,8.41,0,0,1,7.63,0,3.55,3.55,0,0,1,1.23,1.11,3.41,3.41,0,0,1-1.22,1.11,8.43,8.43,0,0,1-7.64,0,3.5,3.5,0,0,1-1.22-1.11A3.6,3.6,0,0,1,146.92,176.65Z" style="fill:#BA68C8"></path><path d="M160.92,180.79l-3,1.75a13.37,13.37,0,0,1-12.1,0l-22-12.68a4.4,4.4,0,0,1-2.5-3.26v1.94c0,1.26.82,2.53,2.5,3.5l22,12.68a13.37,13.37,0,0,0,12.1,0l3-1.75c1.67-1,2.5-2.23,2.5-3.49V177.3C163.42,178.55,162.59,179.82,160.92,180.79Z" style="opacity:0.30000000000000004"></path><path d="M146.92,176.65a8.41,8.41,0,0,1,7.63,0,3.55,3.55,0,0,1,1.23,1.11c.72-1.11.32-2.4-1.23-3.3a8.47,8.47,0,0,0-7.63,0c-1.54.9-1.94,2.19-1.22,3.29A3.58,3.58,0,0,1,146.92,176.65Z" style="opacity:0.30000000000000004"></path><path d="M130.69,167.3a11.12,11.12,0,0,1,10.05,0,4.31,4.31,0,0,1,1.83,1.82c.67-1.38.05-2.92-1.83-4a11.06,11.06,0,0,0-10.05,0c-1.87,1.08-2.48,2.62-1.83,4A4.3,4.3,0,0,1,130.69,167.3Z" style="opacity:0.30000000000000004"></path><path d="M160.92,173.8l-22-12.68a13.37,13.37,0,0,0-12.1,0l-3,1.75c-3.34,1.93-3.34,5.06,0,7l22,12.68a13.37,13.37,0,0,0,12.1,0l3-1.75C164.26,178.86,164.26,175.73,160.92,173.8Zm-20.17-2.88a11.08,11.08,0,0,1-10.06,0c-2.78-1.6-2.78-4.2,0-5.81a11.14,11.14,0,0,1,10.06,0C143.53,166.72,143.53,169.32,140.75,170.92Zm13.81,8a8.43,8.43,0,0,1-7.64,0c-2.1-1.21-2.11-3.19,0-4.4a8.41,8.41,0,0,1,7.63,0C156.66,175.68,156.66,177.66,154.56,178.87Z" style="fill:#BA68C8"></path><path d="M160.92,173.8l-22-12.68a13.37,13.37,0,0,0-12.1,0l-3,1.75c-3.34,1.93-3.34,5.06,0,7l22,12.68a13.37,13.37,0,0,0,12.1,0l3-1.75C164.26,178.86,164.26,175.73,160.92,173.8Zm-20.17-2.88a11.08,11.08,0,0,1-10.06,0c-2.78-1.6-2.78-4.2,0-5.81a11.14,11.14,0,0,1,10.06,0C143.53,166.72,143.53,169.32,140.75,170.92Zm13.81,8a8.43,8.43,0,0,1-7.64,0c-2.1-1.21-2.11-3.19,0-4.4a8.41,8.41,0,0,1,7.63,0C156.66,175.68,156.66,177.66,154.56,178.87Z" style="fill:#BA68C8"></path><path d="M92.36,130.32l0,0-33-19.08a1.41,1.41,0,0,0-1.42.14L36.22,123.87a4.44,4.44,0,0,0-2,3.49v1.9a1.4,1.4,0,0,0,.59,1.3L68,149.78a1.43,1.43,0,0,0,1.43-.14l21.73-12.53a4.44,4.44,0,0,0,2-3.49v-1.9C93.21,130.94,92.87,130.44,92.36,130.32Z" style="fill:#BA68C8"></path><path d="M92.36,130.32l0,0-33-19.08a1.41,1.41,0,0,0-1.42.14L36.22,123.87a4.44,4.44,0,0,0-2,3.49v1.9a1.4,1.4,0,0,0,.59,1.3L68,149.78a1.43,1.43,0,0,0,1.43-.14l21.73-12.53a4.44,4.44,0,0,0,2-3.49v-1.9C93.21,130.94,92.87,130.44,92.36,130.32Z" style="opacity:0.5"></path><path d="M67.29,139.79l10.55-6.09a.89.89,0,0,1,.81,0l.51.3c.23.13.23.34,0,.47l-10.54,6.09a.89.89,0,0,1-.81,0l-.52-.3A.25.25,0,0,1,67.29,139.79Z" style="fill:#fafafa"></path><path d="M64.77,138.19l7.58-4.39a.89.89,0,0,1,.81,0l.52.3a.25.25,0,0,1,0,.47L66.09,139a.87.87,0,0,1-.8,0l-.52-.3C64.54,138.53,64.54,138.32,64.77,138.19Z" style="fill:#fafafa"></path><path d="M68.07,149.8l0,0L34.79,130.57a1.45,1.45,0,0,1-.59-1.31v-1.9a4.08,4.08,0,0,1,.52-1.85L68,144.73a4,4,0,0,0-.52,1.85v1.9A1.36,1.36,0,0,0,68.07,149.8Z" style="opacity:0.15"></path><path d="M67.44,148.48v-1.9a4.48,4.48,0,0,1,2-3.5l21.74-12.52c1.12-.65,2-.13,2,1.16v1.9a4.44,4.44,0,0,1-2,3.49L69.46,149.64C68.34,150.28,67.44,149.76,67.44,148.48Z" style="opacity:0.25"></path><path d="M89.88,156.05A3.8,3.8,0,0,1,88,152.77v-.21a3.8,3.8,0,0,0-1.91-3.29L75,143V144l10.62,6.06a2.86,2.86,0,0,1,1.44,2.48v.21a4.71,4.71,0,0,0,2.36,4.08l8.39,4.89v-1.08Z" style="fill:#BA68C8"></path><path d="M89.88,156.05A3.8,3.8,0,0,1,88,152.77v-.21a3.8,3.8,0,0,0-1.91-3.29L75,143V144l10.62,6.06a2.86,2.86,0,0,1,1.44,2.48v.21a4.71,4.71,0,0,0,2.36,4.08l8.39,4.89v-1.08Z" style="opacity:0.30000000000000004"></path><path d="M97.81,160.66l-7.93-4.61A3.8,3.8,0,0,1,88,152.77v-.21a3.8,3.8,0,0,0-1.91-3.29L75,143l11.36-6.56,11.09,6.55a3.76,3.76,0,0,1,1.9,3.27h0a3.77,3.77,0,0,0,1.89,3.28l7.92,4.61Z" style="fill:#BA68C8"></path><path d="M99.56,150.46a3.77,3.77,0,0,1-1.89-3.28V147a3.77,3.77,0,0,0-1.92-3.29l-11.07-6.33-.78.45L95,144.13a3.8,3.8,0,0,1,1.91,3.29v.21a3.8,3.8,0,0,0,1.89,3.28l7.93,4.61.77-.45Z" style="fill:#fafafa"></path><path d="M96,152.54a3.76,3.76,0,0,1-1.9-3.28v-.2a3.79,3.79,0,0,0-1.91-3.29l-11.08-6.33-.77.45,11.08,6.33a3.77,3.77,0,0,1,1.91,3.28v.21A3.8,3.8,0,0,0,95.18,153l7.93,4.61.77-.44Z" style="fill:#fafafa"></path><path d="M92.35,154.62a3.77,3.77,0,0,1-1.89-3.27v-.21a3.79,3.79,0,0,0-1.91-3.29l-11.08-6.33-.77.45,11.07,6.33a3.82,3.82,0,0,1,1.92,3.29v.2a3.8,3.8,0,0,0,1.89,3.28l7.92,4.61.78-.44Z" style="fill:#fafafa"></path><polygon points="109.16 155.18 97.81 161.74 97.81 160.66 109.16 154.1 109.16 155.18" style="fill:#BA68C8"></polygon><polygon points="109.16 155.18 97.81 161.74 97.81 160.66 109.16 154.1 109.16 155.18" style="opacity:0.15"></polygon><path d="M96.77,161l13-7.54a3.43,3.43,0,0,1,3.09,0l4.21,2.43a1,1,0,0,1,.64.87v.76a1.06,1.06,0,0,1-.64.87l-13.05,7.54a3.43,3.43,0,0,1-3.09,0l-4.21-2.43a1.09,1.09,0,0,1-.64-.86v-.79A1.05,1.05,0,0,1,96.77,161Z" style="fill:#263238"></path><path d="M117.12,157.65l-13.05,7.54a3.43,3.43,0,0,1-3.09,0l-4.21-2.43a.94.94,0,0,1,0-1.78l13-7.54a3.43,3.43,0,0,1,3.09,0l4.21,2.43A.94.94,0,0,1,117.12,157.65Z" style="fill:#37474f"></path><path d="M115.64,156.3l-3.47-2a1.36,1.36,0,0,0-1.24,0l-.42.24c-.34.2-.34.52,0,.71l3.48,2a1.34,1.34,0,0,0,1.23,0l.42-.24C116,156.82,116,156.5,115.64,156.3Z" style="fill:#BA68C8"></path><path d="M112.58,158.07l-3.48-2a1.34,1.34,0,0,0-1.23,0l-.43.24c-.34.2-.34.52,0,.71l3.48,2a1.36,1.36,0,0,0,1.24,0l.42-.24A.38.38,0,0,0,112.58,158.07Z" style="fill:#BA68C8"></path><path d="M109.51,159.85l-3.47-2a1.36,1.36,0,0,0-1.24,0l-.42.24c-.35.2-.35.52,0,.71l3.48,2a1.34,1.34,0,0,0,1.23,0l.42-.24C109.85,160.36,109.85,160,109.51,159.85Z" style="fill:#BA68C8"></path><path d="M106.45,161.62l-3.48-2a1.36,1.36,0,0,0-1.24,0l-.42.24a.38.38,0,0,0,0,.72l3.48,2a1.36,1.36,0,0,0,1.24,0l.42-.24C106.79,162.13,106.79,161.81,106.45,161.62Z" style="fill:#BA68C8"></path><path d="M103.38,163.39l-3.48-2a1.34,1.34,0,0,0-1.23,0l-.43.24a.38.38,0,0,0,0,.72l3.48,2a1.36,1.36,0,0,0,1.24,0l.42-.24C103.72,163.9,103.72,163.58,103.38,163.39Z" style="fill:#BA68C8"></path><path d="M376.28,142l-185-106.79a11.67,11.67,0,0,0-10.86,0L90.13,87.33a5.53,5.53,0,0,0-3.06,4.74v2.86a5.55,5.55,0,0,0,3.06,4.75l2.13,1.23L275.07,206.47a8.55,8.55,0,0,0,1.18.56l.36.13.32.11.61.18.68.14.71.12a13.67,13.67,0,0,0,1.58.1,11,11,0,0,0,5.43-1.34l88.19-50.92,2.15-1.24a5.57,5.57,0,0,0,3.06-4.74v-2.86A5.56,5.56,0,0,0,376.28,142ZM123.82,91.22l3-1.75a13.31,13.31,0,0,1,12.1,0l22,12.67c.23.13.44.27.64.41l.21.17a4.61,4.61,0,0,1,1.29,1.48h0a.41.41,0,0,1-.07.11,5.38,5.38,0,0,1-2.07,2l-3,1.75a13.37,13.37,0,0,1-12.1,0l-22-12.67c-.26-.15-.5-.31-.73-.47a3.47,3.47,0,0,1-.29-.25,2,2,0,0,1-.27-.23,4.23,4.23,0,0,1-.79-1l-.06-.11h0A5.46,5.46,0,0,1,123.82,91.22Z" style="fill:#37474f"></path><path d="M280.38,205v2.85a11,11,0,0,1-5.31-1.33L92.26,100.91l-2.13-1.23a5.55,5.55,0,0,1-3.06-4.75V92.07a5.55,5.55,0,0,0,3.06,4.75l2.13,1.23L275.07,203.61A11.08,11.08,0,0,0,280.38,205Z" style="fill:#263238"></path><path d="M376.28,142l-185-106.79a11.67,11.67,0,0,0-10.86,0L90.13,87.33a5.21,5.21,0,0,0,0,9.49l2.13,1.23L275.07,203.61a9,9,0,0,0,1.21.57h0a3.39,3.39,0,0,0,.48.17l.15,0a.42.42,0,0,0,.16,0,3.88,3.88,0,0,0,.45.14l.31.07.1,0,.36.07.62.1.68.07h.05l.47,0h.38a11,11,0,0,0,5.43-1.34l88.19-50.92,2.15-1.24a5.21,5.21,0,0,0,0-9.49ZM163.4,103.05s0,.11,0,.16a3.12,3.12,0,0,1-.33,1h0a.41.41,0,0,1-.07.11,5.38,5.38,0,0,1-2.07,2l-3,1.75a13.37,13.37,0,0,1-12.1,0l-22-12.67c-.26-.15-.5-.31-.73-.47a3.47,3.47,0,0,1-.29-.25,2,2,0,0,1-.27-.23,4.23,4.23,0,0,1-.79-1l-.06-.11h0a2.92,2.92,0,0,1-.34-1c0-.05,0-.11,0-.16a2.9,2.9,0,0,1,.34-1.68,3.07,3.07,0,0,1,.27-.46,6,6,0,0,1,1.88-1.63l3-1.75a13.31,13.31,0,0,1,12.1,0l22,12.67C162.7,100.32,163.54,101.7,163.4,103.05Z" style="fill:#455a64"></path><path d="M286.07,201.77a11.55,11.55,0,0,1-11.36,0L92.26,98.05,275.07,203.61a9,9,0,0,0,1.21.57h0a3.39,3.39,0,0,0,.48.17l.15,0a.42.42,0,0,0,.16,0,3.88,3.88,0,0,0,.45.14l.31.07.1,0,.36.07.62.1.68.07h.05l.47,0h.38a11,11,0,0,0,5.43-1.34l88.19-50.92Z" style="fill:#fff;opacity:0.30000000000000004"></path><path d="M299.19,177.39l36.29-20.95a4.79,4.79,0,0,1,4.33,0l2.17,1.25a1.32,1.32,0,0,1,0,2.5l-36.29,21a4.79,4.79,0,0,1-4.33,0l-2.17-1.26A1.32,1.32,0,0,1,299.19,177.39Z" style="fill:#BA68C8"></path><path d="M163.4,103.05s0,.11,0,.16a3.12,3.12,0,0,1-.33,1,4.61,4.61,0,0,0-1.29-1.48l-.21-.17c-.2-.14-.41-.28-.64-.41L139,89.47a13.31,13.31,0,0,0-12.1,0l-3,1.75a5.46,5.46,0,0,0-2.14,2.06,2.92,2.92,0,0,1-.34-1c0-.05,0-.11,0-.16a2.9,2.9,0,0,1,.34-1.68,3.07,3.07,0,0,1,.27-.46,6,6,0,0,1,1.88-1.63l3-1.75a13.31,13.31,0,0,1,12.1,0l22,12.67C162.7,100.32,163.54,101.7,163.4,103.05Z" style="fill:#263238"></path><path d="M132.91,85.16a12.31,12.31,0,0,0-6,1.45l-3,1.75A6,6,0,0,0,121.94,90a3.07,3.07,0,0,0-.27.46,2.9,2.9,0,0,0-.34,1.68c0,.05,0,.11,0,.16a2.92,2.92,0,0,0,.34,1,5.46,5.46,0,0,1,2.14-2.06l3-1.75a12.31,12.31,0,0,1,6-1.45Z" style="fill:#37474f"></path><g id="freepik--Arm--inject-274"><path d="M435.48,137.82c2.95.5,5.27,2,5.55,4.88.49,4.91-1.9,10.84-7.93,19.13-6.8,9.35-10.38,12.79-13,14.91-1.59,1.31-4.32,2.92-9.4.39-8.39-4.19-19.2-11.8-23.26-14.37-4.33-2.74-7.59-3-12.57-3.89s-11.34-2.74-12.32-7c-.3-1.36-.68-5.94,1.07-6.38,2.79-.7,8.37.94,11,1.53,4.18.92,4.5-1.44,4.5-1.44a5.35,5.35,0,0,0-1.83-2.81s2.46-1,4.67,2.06a25.46,25.46,0,0,0,5.82,6.33c3.57,2.5,25.78,14.26,25.78,14.26l12.21-17.75S431.74,137.49,435.48,137.82Z" style="fill:#ffa8a7"></path></g></g><g id="freepik--Screwdriver--inject-274"><g id="freepik--screwdriver--inject-274"><path d="M154.56,384c4.49-2.59,8.13-.49,8.13,4.69s-3.64,11.48-8.13,14.07-8.12.49-8.12-4.69S150.08,386.6,154.56,384Z" style="fill:#e0e0e0"></path><path d="M69.38,323v0c-2.36-1.65-5.76-1.59-9.56.6-7.12,4.11-12.9,14.12-12.9,22.35,0,4.54,1.77,7.58,4.55,8.71h0c5.91,3.31,13.2.11,13.2.11L75,334.19C75,328.7,72.84,325,69.38,323Z" style="fill:#BA68C8"></path><path d="M69.38,323v0c-2.36-1.65-5.76-1.59-9.56.6-7.12,4.11-12.9,14.12-12.9,22.35,0,4.54,1.77,7.58,4.55,8.71h0c5.91,3.31,13.2.11,13.2.11L75,334.19C75,328.7,72.84,325,69.38,323Z" style="opacity:0.1"></path><path d="M61.86,344.56a16.52,16.52,0,0,1-13.5-6.32,23.19,23.19,0,0,0-1.45,7.68c0,4.54,1.77,7.58,4.55,8.71h0c4.95,2.77,10.85,1,12.64.33a1.31,1.31,0,0,1,.56-.22L68,348.11Z" style="opacity:0.1"></path><path d="M180.29,400.89h0s-18-16.33-19.94-17.42L75,334.2h0l0,0h0c-1.47-.83-3.48-.7-5.71.58-4.49,2.59-8.12,8.89-8.12,14.07,0,2.59.9,4.41,2.37,5.26h0l85.31,49.26c3.52,2,25,8.52,25,8.52h0a3.2,3.2,0,0,0,3.1-.36,10,10,0,0,0,4.52-7.83A3.31,3.31,0,0,0,180.29,400.89Z" style="fill:#BA68C8"></path><path d="M181.42,403.68a3.31,3.31,0,0,0-1.13-2.79s-16.67-15.09-19.64-17.22c-1.49-1.09-3.66-1.06-6.09.34-4.48,2.59-8.12,8.89-8.12,14.07,0,2.6.91,4.42,2.39,5.27h0c3.52,2,25,8.52,25,8.52h0a3.2,3.2,0,0,0,3.1-.36A10,10,0,0,0,181.42,403.68Z" style="opacity:0.1"></path><path d="M108.2,379.9c-1.47-.85-2.38-2.67-2.38-5.26,0-5.19,3.63-11.49,8.12-14.08,2.24-1.29,4.27-1.41,5.74-.57,0,0,4.71,1.91,20,9.95s12.51,8.83,12.51,8.83l-1.11-.63c-1.47-.85-3.5-.73-5.74.57-4.49,2.59-8.13,8.89-8.13,14.07,0,2.59.91,4.41,2.38,5.26l1.48.85s-2,.64-12.55-5.5A242.26,242.26,0,0,1,108.2,379.9Z" style="fill:#455a64"></path><path d="M172.39,408.9a10,10,0,0,1,4.51-7.83c2.5-1.44,4.52-.27,4.52,2.61a10,10,0,0,1-4.52,7.83C174.41,413,172.39,411.78,172.39,408.9Z" style="opacity:0.15"></path><path d="M228.9,436a.6.6,0,0,1-.27.48.22.22,0,0,1-.17,0h0c-.4-.14-6.49-2.38-8.39-3.18a3.75,3.75,0,0,1-.52-.23L176,407.94a.94.94,0,0,1-.41-.87,2.79,2.79,0,0,1,.39-1.33,2.86,2.86,0,0,1,1-1,1,1,0,0,1,.95-.09l43.6,25.17a13.21,13.21,0,0,1,1.16.83c2.14,1.63,5.95,4.89,6.24,5.18h0A.18.18,0,0,1,228.9,436Z" style="fill:#455a64"></path><path d="M228.9,436a.6.6,0,0,1-.27.48.22.22,0,0,1-.17,0h0c-.4-.14-6.49-2.38-8.39-3.18.56-.53,1.77-.24,2.94.28s5.21,2.69,5.42,2.43-2.57-1.91-4.23-3.12-2-2.19-1.59-2.27c2.14,1.63,5.95,4.89,6.24,5.18h0A.18.18,0,0,1,228.9,436Z" style="fill:#37474f"></path><path d="M177.38,405.2s43.44,25,44.08,25.45S222,432,225,433.89c2.79,1.78.64.82-2.48-1.29-.71-.48-.93-1.49-1.73-2-3.63-2.06-44.36-24.46-44.36-24.46S176.86,405.33,177.38,405.2Z" style="fill:#fff;opacity:0.2"></path></g></g><g id="freepik--Gears--inject-274"><g id="freepik--gears--inject-274"><path d="M63,177l-3.24.78a.36.36,0,0,0-.25.5,6.91,6.91,0,0,1,.38,1.59.81.81,0,0,0,.42.62l1.18.58,1.69-4.17A.35.35,0,0,1,63,177Zm-23.35.32c.24-.05.49-.1.77-.14a12.75,12.75,0,0,1,10.67,4.36,7.66,7.66,0,0,1,.45.65c3-.76,3.82-3.32,1.74-6a12.74,12.74,0,0,0-10.66-4.36C39.26,172.32,38,174.7,39.66,177.36Zm-4.58-12-1.72,4.2,1.25.41a.84.84,0,0,0,.72-.14,7,7,0,0,1,1.4-.88.37.37,0,0,0,.17-.53l-1.75-2.82a.38.38,0,0,1-.06-.26Zm-7.54,8.77-1,2.35h0a.76.76,0,0,0,0,.15.65.65,0,0,0,0,.14v0l.06.1.1.08s0,0,.07.06l2.91,1.42-1,2.42,0,.05L28,182.72h0a.18.18,0,0,0,0,.11A1,1,0,0,0,28,183l1.66,2.15.75,1a.49.49,0,0,0,.12.13l.16.08a.2.2,0,0,0,.08,0l.11.05v0a.84.84,0,0,0,.2.05l3.81-.18.13,0a.32.32,0,0,1,.13,0,1.09,1.09,0,0,1,.5.22,18.5,18.5,0,0,0,2.24,1.61.55.55,0,0,1,.21.26.65.65,0,0,1,.07.38L37.75,191c0,.05,0,.1,0,.16l0,.05a.26.26,0,0,0,0,.08s0,0,0,0l0,0a.62.62,0,0,0,.09.12.38.38,0,0,0,.13.09l1.91.79,2,.82.71.3a.56.56,0,0,0,.34,0,.61.61,0,0,0,.29-.2l1.26-1.95a.65.65,0,0,1,.17-.16.73.73,0,0,1,.47-.11,20.39,20.39,0,0,0,2.73.44,1,1,0,0,1,.44.14,1,1,0,0,1,.28.2l2.58,2.79a1.21,1.21,0,0,0,.71.26l3.91-.53a.33.33,0,0,0,.23-.15L57.85,190l3.07,1a.45.45,0,0,0,.56-.25l2.1-5.14.1-.22a.55.55,0,0,1-.17.2.47.47,0,0,1-.4,0l-4.31-1.45a.52.52,0,0,0-.18,0,.92.92,0,0,0-.55.17,7.21,7.21,0,0,1-1.4.87.35.35,0,0,0-.16.53l.89,1.43.88,1.4a.25.25,0,0,1,0,.26.29.29,0,0,1-.24.16l-3.9.53a.81.81,0,0,1-.42-.07.86.86,0,0,1-.29-.19l-2.59-2.79a1.06,1.06,0,0,0-.28-.2,1.08,1.08,0,0,0-.43-.14,21.78,21.78,0,0,1-2.73-.43h-.22a.62.62,0,0,0-.43.26l-1.26,2a.52.52,0,0,1-.28.2.59.59,0,0,1-.35,0l-1.32-.54-1.64-.67-1.68-.68a.58.58,0,0,1-.29-.36.46.46,0,0,1,0-.23l.47-2.27a.57.57,0,0,0-.06-.38.63.63,0,0,0-.22-.26,20.34,20.34,0,0,1-2.25-1.61,1,1,0,0,0-.47-.21,1,1,0,0,0-.27-.05l-3.81.18a1.52,1.52,0,0,1-.21,0,.87.87,0,0,1-.48-.29l-.46-.59-1-1.25-1-1.28a.28.28,0,0,1-.07-.24v0c0-.09.1-.14.21-.17l1.7-.41,1.54-.36a.36.36,0,0,0,.25-.5,7,7,0,0,1-.38-1.61.69.69,0,0,0-.22-.44.43.43,0,0,0-.2-.16l-4.1-2a.43.43,0,0,1-.21-.56Z" style="fill:#BA68C8"></path><path d="M63,177l-3.24.78a.36.36,0,0,0-.25.5,6.91,6.91,0,0,1,.38,1.59.81.81,0,0,0,.42.62l1.18.58,1.69-4.17A.35.35,0,0,1,63,177Zm-23.35.32c.24-.05.49-.1.77-.14a12.75,12.75,0,0,1,10.67,4.36,7.66,7.66,0,0,1,.45.65c3-.76,3.82-3.32,1.74-6a12.74,12.74,0,0,0-10.66-4.36C39.26,172.32,38,174.7,39.66,177.36Zm-4.58-12-1.72,4.2,1.25.41a.84.84,0,0,0,.72-.14,7,7,0,0,1,1.4-.88.37.37,0,0,0,.17-.53l-1.75-2.82a.38.38,0,0,1-.06-.26Zm-7.54,8.77-1,2.35h0a.76.76,0,0,0,0,.15.65.65,0,0,0,0,.14v0l.06.1.1.08s0,0,.07.06l2.91,1.42-1,2.42,0,.05L28,182.72h0a.18.18,0,0,0,0,.11A1,1,0,0,0,28,183l1.66,2.15.75,1a.49.49,0,0,0,.12.13l.16.08a.2.2,0,0,0,.08,0l.11.05v0a.84.84,0,0,0,.2.05l3.81-.18.13,0a.32.32,0,0,1,.13,0,1.09,1.09,0,0,1,.5.22,18.5,18.5,0,0,0,2.24,1.61.55.55,0,0,1,.21.26.65.65,0,0,1,.07.38L37.75,191c0,.05,0,.1,0,.16l0,.05a.26.26,0,0,0,0,.08s0,0,0,0l0,0a.62.62,0,0,0,.09.12.38.38,0,0,0,.13.09l1.91.79,2,.82.71.3a.56.56,0,0,0,.34,0,.61.61,0,0,0,.29-.2l1.26-1.95a.65.65,0,0,1,.17-.16.73.73,0,0,1,.47-.11,20.39,20.39,0,0,0,2.73.44,1,1,0,0,1,.44.14,1,1,0,0,1,.28.2l2.58,2.79a1.21,1.21,0,0,0,.71.26l3.91-.53a.33.33,0,0,0,.23-.15L57.85,190l3.07,1a.45.45,0,0,0,.56-.25l2.1-5.14.1-.22a.55.55,0,0,1-.17.2.47.47,0,0,1-.4,0l-4.31-1.45a.52.52,0,0,0-.18,0,.92.92,0,0,0-.55.17,7.21,7.21,0,0,1-1.4.87.35.35,0,0,0-.16.53l.89,1.43.88,1.4a.25.25,0,0,1,0,.26.29.29,0,0,1-.24.16l-3.9.53a.81.81,0,0,1-.42-.07.86.86,0,0,1-.29-.19l-2.59-2.79a1.06,1.06,0,0,0-.28-.2,1.08,1.08,0,0,0-.43-.14,21.78,21.78,0,0,1-2.73-.43h-.22a.62.62,0,0,0-.43.26l-1.26,2a.52.52,0,0,1-.28.2.59.59,0,0,1-.35,0l-1.32-.54-1.64-.67-1.68-.68a.58.58,0,0,1-.29-.36.46.46,0,0,1,0-.23l.47-2.27a.57.57,0,0,0-.06-.38.63.63,0,0,0-.22-.26,20.34,20.34,0,0,1-2.25-1.61,1,1,0,0,0-.47-.21,1,1,0,0,0-.27-.05l-3.81.18a1.52,1.52,0,0,1-.21,0,.87.87,0,0,1-.48-.29l-.46-.59-1-1.25-1-1.28a.28.28,0,0,1-.07-.24v0c0-.09.1-.14.21-.17l1.7-.41,1.54-.36a.36.36,0,0,0,.25-.5,7,7,0,0,1-.38-1.61.69.69,0,0,0-.22-.44.43.43,0,0,0-.2-.16l-4.1-2a.43.43,0,0,1-.21-.56Z" style="opacity:0.1"></path><path d="M33.12,181a1.52,1.52,0,0,0,.21,0l3.81-.18a1,1,0,0,1,.27.05l-2.21,5.35h0l-.13,0-.13,0-3.81.18a.84.84,0,0,1-.2-.05Z" style="opacity:0.1"></path><path d="M40.35,183a.57.57,0,0,1,.06.38l-.47,2.27a.46.46,0,0,0,0,.23l-2.18,5.29c0-.06,0-.11,0-.16l.47-2.27a.65.65,0,0,0-.07-.38Z" style="opacity:0.15"></path><path d="M47.21,185.75,45,191.11v0l-.24.08a.65.65,0,0,0-.17.16l-1.26,1.95a.61.61,0,0,1-.29.2l2.2-5.36a.52.52,0,0,0,.28-.2l1.26-2A.62.62,0,0,1,47.21,185.75Z" style="opacity:0.15"></path><path d="M58.62,184.22a.52.52,0,0,1,.18,0l4.31,1.45a.47.47,0,0,0,.4,0l.07,0h0l-2.11,5.13a.45.45,0,0,1-.56.25l-3.07-1,.46-1.13h0a.25.25,0,0,0,0-.26l-.88-1.4Z" style="opacity:0.15"></path><path d="M63,177a.35.35,0,0,0,.18-.1l-1.69,4.17-1.18-.58a.81.81,0,0,1-.42-.62,6.91,6.91,0,0,0-.38-1.59.36.36,0,0,1,.25-.5Z" style="opacity:0.15"></path><path d="M42.63,171.86a12.74,12.74,0,0,1,10.66,4.36c2.08,2.69,1.28,5.25-1.74,6a7.66,7.66,0,0,0-.45-.65,12.75,12.75,0,0,0-10.67-4.36c-.28,0-.53.09-.77.14C38,174.7,39.26,172.32,42.63,171.86Z" style="opacity:0.15"></path><path d="M28.77,171.16a.43.43,0,0,0,.21.56l4.1,2a.43.43,0,0,1,.2.16l-.61,1.5-.58,1.41-1.7.41c-.11,0-.19.08-.21.17v0a.28.28,0,0,0,.07.24l1,1.28-.13.31a1.3,1.3,0,0,0-.2-.15l-1.18-.57-2.91-1.42s-.07,0-.07-.06l-.1-.08-.06-.1v0a.41.41,0,0,1,0-.29l1-2.35Z" style="opacity:0.1"></path><path d="M50.59,186.32a1.06,1.06,0,0,1,.28.2l2.59,2.79a.86.86,0,0,0,.29.19l-2.2,5.34a.74.74,0,0,1-.29-.17l-2.58-2.79a1,1,0,0,0-.28-.2Z" style="opacity:0.15"></path><path d="M40,185.9a.58.58,0,0,0,.29.36l1.68.68,1.64.67,1.32.54a.59.59,0,0,0,.35,0L43,193.52a.56.56,0,0,1-.34,0l-.71-.3-2-.82-1.91-.79a.38.38,0,0,1-.13-.09.62.62,0,0,1-.09-.12l0,0s0,0,0,0a.26.26,0,0,1,0-.08l0-.05Z" style="fill:#BA68C8"></path><path d="M40,185.9a.58.58,0,0,0,.29.36l1.68.68,1.64.67,1.32.54a.59.59,0,0,0,.35,0L43,193.52a.56.56,0,0,1-.34,0l-.71-.3-2-.82-1.91-.79a.38.38,0,0,1-.13-.09.62.62,0,0,1-.09-.12l0,0s0,0,0,0a.26.26,0,0,1,0-.08l0-.05Z" style="fill:#fff;opacity:0.7000000000000001"></path><path d="M30.17,177.39a.28.28,0,0,0,.07.24l1,1.28,1,1.25.46.59a.87.87,0,0,0,.48.29l-2.19,5.34v0l-.11-.05a.2.2,0,0,1-.08,0l-.16-.08a.49.49,0,0,1-.12-.13l-.75-1L28,183a1,1,0,0,1-.07-.15.18.18,0,0,1,0-.11h0L28.7,181l0-.05,1-2.42Z" style="fill:#BA68C8"></path><path d="M30.17,177.39a.28.28,0,0,0,.07.24l1,1.28,1,1.25.46.59a.87.87,0,0,0,.48.29l-2.19,5.34v0l-.11-.05a.2.2,0,0,1-.08,0l-.16-.08a.49.49,0,0,1-.12-.13l-.75-1L28,183a1,1,0,0,1-.07-.15.18.18,0,0,1,0-.11h0L28.7,181l0-.05,1-2.42Z" style="fill:#fff;opacity:0.7000000000000001"></path><path d="M35.08,165.39a.32.32,0,0,0,.05.24l1.77,2.82-1.75-2.82a.38.38,0,0,1-.06-.26Z" style="fill:#BA68C8"></path><path d="M35.13,165.63l1.77,2.82a.37.37,0,0,1-.17.53,7,7,0,0,0-1.4.88.84.84,0,0,1-.72.14l-4.31-1.45a.45.45,0,0,0-.57.25l-1,2.35a.45.45,0,0,0,.22.57l4.1,2a.79.79,0,0,1,.42.6,7,7,0,0,0,.38,1.61.36.36,0,0,1-.25.5l-3.24.77a.25.25,0,0,0-.15.43l2.4,3.12a1,1,0,0,0,.69.32l3.81-.18a1.3,1.3,0,0,1,.74.26,20.34,20.34,0,0,0,2.25,1.61.67.67,0,0,1,.28.64l-.47,2.27a.54.54,0,0,0,.31.59l4.64,1.89a.54.54,0,0,0,.63-.19l1.26-2a.66.66,0,0,1,.65-.26,21.78,21.78,0,0,0,2.73.43,1.22,1.22,0,0,1,.71.34l2.59,2.79a.9.9,0,0,0,.71.26l3.9-.53a.26.26,0,0,0,.21-.42l-1.77-2.83a.35.35,0,0,1,.16-.53,7.21,7.21,0,0,0,1.4-.87.83.83,0,0,1,.73-.14l4.31,1.45a.47.47,0,0,0,.57-.25l1-2.35a.48.48,0,0,0-.22-.59l-4.1-2a.81.81,0,0,1-.42-.62,6.91,6.91,0,0,0-.38-1.59.36.36,0,0,1,.25-.5L63,177a.25.25,0,0,0,.15-.44l-2.41-3.11a.93.93,0,0,0-.68-.32l-3.81.17a1.16,1.16,0,0,1-.74-.25,21.67,21.67,0,0,0-2.25-1.6.65.65,0,0,1-.27-.64l.46-2.28a.52.52,0,0,0-.32-.57l-4.63-1.9a.53.53,0,0,0-.62.19l-1.27,1.94a.62.62,0,0,1-.65.26,22,22,0,0,0-2.73-.42,1.39,1.39,0,0,1-.71-.34l-2.59-2.8a.93.93,0,0,0-.71-.25l-3.9.53A.25.25,0,0,0,35.13,165.63Zm18.16,10.59c2.25,2.91,1.12,5.67-2.52,6.17A12.77,12.77,0,0,1,40.1,178c-2.24-2.9-1.11-5.65,2.53-6.15A12.74,12.74,0,0,1,53.29,176.22Z" style="fill:#BA68C8"></path></g><g id="freepik--gears--inject-274"><path d="M360.18,203.69s.05.09.08.16l.05.1a.1.1,0,0,1,0,.05c.11.22.24.47.39.74.41.79.87,1.68,1.11,2.18,0,0,0,0,0,.06s.07.14.1.18v0h0v0a0,0,0,0,1,0,0,.41.41,0,0,0,.15.14l1.75.89.11,0h.15l.1,0s.05,0,.07,0l.09,0,2.43-1.83a.79.79,0,0,1,.26-.09,1.13,1.13,0,0,1,.32,0c.23,0,.47,0,.71.06l1.08,2.1a.14.14,0,0,0,.07.08.34.34,0,0,0,.25,0l2.15-.54.88-.21a.42.42,0,0,0,.14-.06l.14-.08.09-.09s0-.05,0-.07l.59-2a.36.36,0,0,1,.15-.21.9.9,0,0,1,.2-.14,17.17,17.17,0,0,0,1.76-.91.67.67,0,0,1,.31-.08.61.61,0,0,1,.27,0l1.79.62.14,0h.15l.12,0a.33.33,0,0,0,.13-.07l1.79-1.54.66-.58a.2.2,0,0,0,.07-.24l0,0-.64-1.26a1.51,1.51,0,0,1-.09-.18l-.35-.66v0a7.45,7.45,0,0,0,.43-.71.47.47,0,0,1,.21-.21.56.56,0,0,1,.2-.11l2.8-.9a.76.76,0,0,0,.23-.15h0a.34.34,0,0,0,.12-.21l.3-2.11a.09.09,0,0,0,0-.07v0l-2-3.81-.11-.2s0,0,0,.06l0,.21-.14,1-.13.9a.46.46,0,0,1-.13.2.42.42,0,0,1-.22.13l-2.8.9a1.13,1.13,0,0,0-.22.11.55.55,0,0,0-.2.21,9.16,9.16,0,0,1-.87,1.36.28.28,0,0,0,.08.39l1.37,1s.07.07.1.1,0,0,0,0a.26.26,0,0,1-.07.22l-1.11.94-.07.07-1.29,1.12-.11.07a.72.72,0,0,1-.41,0l-1.8-.63a.53.53,0,0,0-.26,0,.59.59,0,0,0-.31.08,17.34,17.34,0,0,1-1.77.91.65.65,0,0,0-.2.15.55.55,0,0,0-.15.21l-.59,2a.41.41,0,0,1-.13.18h0a.51.51,0,0,1-.24.13l-2,.5-1,.25a.25.25,0,0,1-.3-.08h0a.14.14,0,0,1,0-.06v-1.83c0-.13-.17-.22-.36-.22a8.06,8.06,0,0,1-1.41-.06,1.22,1.22,0,0,0-.27,0,.86.86,0,0,0-.3.11l-2.43,1.83a.51.51,0,0,1-.17.07l-.7-.22-1.41-.72a.24.24,0,0,1-.12-.09C360,203.31,360.07,203.48,360.18,203.69Zm18.24-13.07a.29.29,0,0,0,0,.39,3.48,3.48,0,0,1,.45.88.35.35,0,0,0,.41.17l2.67-.46a.42.42,0,0,1,.24,0c-.3-.58-.71-1.36-1-2l-.65-1.25a.17.17,0,0,1,0,.2Zm-18.48,12.6a.22.22,0,0,1,0-.21l2-2a.3.3,0,0,0,0-.4,3.59,3.59,0,0,1-.45-.87.35.35,0,0,0-.41-.18l-2.67.46a.27.27,0,0,1-.28-.08C358.3,200.07,359.36,202.11,359.94,203.22Zm13.34-16V189c0,.13.17.22.36.21s.48,0,.7,0l-1.09-2.12A.08.08,0,0,1,373.28,187.21Zm-8.2,9.85a2,2,0,0,0,.64,1.86l.07,0a.08.08,0,0,0,0,0l.08.05a3.15,3.15,0,0,0,1.32.51,3.77,3.77,0,0,1,.27-.47,8.66,8.66,0,0,1,7-3.61l.51,0a3,3,0,0,0,.33-1,1.93,1.93,0,0,0-.89-2l-.15-.1a1.51,1.51,0,0,0-.17-.1l-.17-.06s-.06,0-.08,0l-.11,0a5.56,5.56,0,0,0-3,0C367.91,192.88,365.38,195.07,365.08,197.06Zm-2.59-1.67a7.17,7.17,0,0,1,.45-.63.29.29,0,0,0-.08-.4l-1.37-1a.2.2,0,0,1-.08-.1C361.47,193.42,362,194.42,362.49,195.39Z" style="fill:#BA68C8"></path><g style="opacity:0.1"><path d="M360.18,203.69s.05.09.08.16l.05.1a.1.1,0,0,1,0,.05c.11.22.24.47.39.74.41.79.87,1.68,1.11,2.18,0,0,0,0,0,.06s.07.14.1.18v0h0v0a0,0,0,0,1,0,0,.41.41,0,0,0,.15.14l1.75.89.11,0h.15l.1,0s.05,0,.07,0l.09,0,2.43-1.83a.79.79,0,0,1,.26-.09,1.13,1.13,0,0,1,.32,0c.23,0,.47,0,.71.06l1.08,2.1a.14.14,0,0,0,.07.08.34.34,0,0,0,.25,0l2.15-.54.88-.21a.42.42,0,0,0,.14-.06l.14-.08.09-.09s0-.05,0-.07l.59-2a.36.36,0,0,1,.15-.21.9.9,0,0,1,.2-.14,17.17,17.17,0,0,0,1.76-.91.67.67,0,0,1,.31-.08.61.61,0,0,1,.27,0l1.79.62.14,0h.15l.12,0a.33.33,0,0,0,.13-.07l1.79-1.54.66-.58a.2.2,0,0,0,.07-.24l0,0-.64-1.26a1.51,1.51,0,0,1-.09-.18l-.35-.66v0a7.45,7.45,0,0,0,.43-.71.47.47,0,0,1,.21-.21.56.56,0,0,1,.2-.11l2.8-.9a.76.76,0,0,0,.23-.15h0a.46.46,0,0,0,.12-.2l.3-2.12a.09.09,0,0,0,0-.07v0l-2.08-4-.18,1.29-.13.9a.46.46,0,0,1-.13.2.42.42,0,0,1-.22.13l-2.8.9a1.13,1.13,0,0,0-.22.11.55.55,0,0,0-.2.21,9.16,9.16,0,0,1-.87,1.36.28.28,0,0,0,.08.39l1.37,1s.07.07.1.1,0,0,0,0a.26.26,0,0,1-.07.22l-1.11.94-.07.07-1.29,1.12-.11.07a.72.72,0,0,1-.41,0l-1.8-.63a.53.53,0,0,0-.26,0,.59.59,0,0,0-.31.08,17.34,17.34,0,0,1-1.77.91.65.65,0,0,0-.2.15.55.55,0,0,0-.15.21l-.59,2a.41.41,0,0,1-.13.18h0a.51.51,0,0,1-.24.13l-2,.5-1,.25a.25.25,0,0,1-.3-.08h0a.14.14,0,0,1,0-.06v-1.83c0-.13-.17-.22-.36-.22a8.06,8.06,0,0,1-1.41-.06,1.22,1.22,0,0,0-.27,0,.86.86,0,0,0-.3.11l-2.43,1.83a.51.51,0,0,1-.17.07l-.7-.22-1.41-.72a.24.24,0,0,1-.12-.09C360,203.31,360.07,203.48,360.18,203.69Zm18.24-13.07a.29.29,0,0,0,0,.39,3.48,3.48,0,0,1,.45.88.35.35,0,0,0,.41.17l2.67-.46a.42.42,0,0,1,.24,0c-.3-.58-.71-1.36-1-2l-.65-1.25a.17.17,0,0,1,0,.2Zm-18.48,12.6a.22.22,0,0,1,0-.21l2-2a.3.3,0,0,0,0-.4,3.59,3.59,0,0,1-.45-.87.35.35,0,0,0-.41-.18l-2.67.46a.27.27,0,0,1-.28-.08C358.3,200.07,359.36,202.11,359.94,203.22Zm13.34-16V189c0,.13.17.22.36.21s.48,0,.7,0l-1.09-2.12A.08.08,0,0,1,373.28,187.21Zm-8.2,9.85a2,2,0,0,0,.64,1.86l.07,0a.08.08,0,0,0,0,0l.08.05a3.15,3.15,0,0,0,1.32.51,3.77,3.77,0,0,1,.27-.47,8.66,8.66,0,0,1,7-3.61l.51,0a3,3,0,0,0,.33-1,1.93,1.93,0,0,0-.89-2l-.15-.1a1.51,1.51,0,0,0-.17-.1l-.17-.06s-.06,0-.08,0l-.11,0a5.56,5.56,0,0,0-3,0C367.91,192.88,365.38,195.07,365.08,197.06Zm-2.59-1.67a7.17,7.17,0,0,1,.45-.63.29.29,0,0,0-.08-.4l-1.37-1a.2.2,0,0,1-.08-.1C361.47,193.42,362,194.42,362.49,195.39Z"></path></g><path d="M373.28,187.21a.08.08,0,0,0,0-.07l1.09,2.12c-.22,0-.46,0-.7,0s-.35-.08-.36-.21Z" style="opacity:0.15"></path><path d="M370.74,192.18a5.56,5.56,0,0,1,3,0l.11,0s.05,0,.08,0l.17.06a1.51,1.51,0,0,1,.17.1l.15.1a1.93,1.93,0,0,1,.89,2,3,3,0,0,1-.33,1l-.51,0a8.66,8.66,0,0,0-7,3.61,3.77,3.77,0,0,0-.27.47,3.15,3.15,0,0,1-1.32-.51l-.08-.05a.08.08,0,0,1,0,0l-.07,0a2,2,0,0,1-.64-1.86C365.38,195.07,367.91,192.88,370.74,192.18Z" style="opacity:0.15"></path><path d="M380.45,188.58a.17.17,0,0,0,0-.2l.65,1.25c.33.65.74,1.43,1,2a.42.42,0,0,0-.24,0l-2.67.46a.35.35,0,0,1-.41-.17,3.48,3.48,0,0,0-.45-.88.29.29,0,0,1,0-.39Z" style="opacity:0.1"></path><path d="M378.56,195.26a1.13,1.13,0,0,1,.22-.11l2.8-.9a.42.42,0,0,0,.22-.13l2.11,4a1.41,1.41,0,0,1-.24.16l-2.8.9a.56.56,0,0,0-.2.11Z" style="opacity:0.1"></path><path d="M378.36,195.47a.55.55,0,0,1,.2-.21l2.11,4.06a.47.47,0,0,0-.21.21,7.45,7.45,0,0,1-.43.71v0l.35.66h0l-.65.63L378.19,200c-.13-.12-.26-.27-.39-.4l.07-.07,1.11-.94a.26.26,0,0,0,.07-.22s0,0,0,0-.06-.08-.1-.1l-1.37-1a.28.28,0,0,1-.08-.39A9.16,9.16,0,0,0,378.36,195.47Z" style="opacity:0.05"></path><path d="M373.93,200.1a.53.53,0,0,1,.26,0l1.8.63a.72.72,0,0,0,.41,0l.11-.07,1.29-1.12.07-.07.32.47,2.22,3.23-1.79,1.54a.33.33,0,0,1-.13.07l-.12,0h-.15l-.14,0-1.79-.62a.61.61,0,0,0-.27,0Z" style="opacity:0.1"></path><path d="M370.91,203.47l.59-2a.55.55,0,0,1,.15-.21l2.1,4a.36.36,0,0,0-.15.21l-.59,2s0,0,0,.07l-.09.09-.14.08a.42.42,0,0,1-.14.06l-.88.21L368.27,205l.2-.69,2-.5a.51.51,0,0,0,.24-.13h0A.41.41,0,0,0,370.91,203.47Z" style="opacity:0.1"></path><path d="M361.5,204.06l-.76.68c.41.79.87,1.68,1.11,2.18,0,0,0,0,0,.06s.07.14.1.18v0l0,0a0,0,0,0,1,0,0,.41.41,0,0,0,.15.14l1.75.89.11,0h.15l.1,0s.05,0,.07,0l.09,0,2.43-1.83a.79.79,0,0,1,.26-.09l.06,0-2.11-4.06a.86.86,0,0,0-.3.11l-2.43,1.83a.51.51,0,0,1-.17.07Z" style="opacity:0.1"></path><path d="M382.24,191.73l2.08,4v0a.09.09,0,0,1,0,.07L384,198a.46.46,0,0,1-.12.2l-2.11-4a.46.46,0,0,0,.13-.2l.13-.9Z" style="fill:#BA68C8"></path><path d="M382.24,191.73l.94,1.81,1.14,2.2v0a.09.09,0,0,1,0,.07l-.3,2.11a.56.56,0,0,1-.12.21l-2.11-4a.46.46,0,0,0,.13-.2l.13-.9Z" style="fill:#fff;opacity:0.30000000000000004"></path><path d="M376.4,200.76l.11-.07,1.29-1.12.07-.07,1.11-.94a.26.26,0,0,0,.07-.22l1,1.9v0l.35.66h0l.1.17.64,1.26,0,0a.2.2,0,0,1-.07.24l-.66.58-1.79,1.54a.33.33,0,0,1-.13.07Z" style="fill:#BA68C8"></path><path d="M367.18,204.45a.25.25,0,0,0,.3.08l1-.25,2-.5a.51.51,0,0,0,.24-.13h0l2.1,4-.13.09a.42.42,0,0,1-.14.06l-.88.21-2.15.54a.34.34,0,0,1-.25,0,.14.14,0,0,1-.07-.08l-1.08-2.1Z" style="fill:#BA68C8"></path><path d="M361.5,204.06l-1.41-.72a.24.24,0,0,1-.12-.09c0,.06.1.23.21.44,0,0,.05.09.08.16l.05.1a.1.1,0,0,1,0,.05c.11.22.24.47.39.74.41.79.87,1.68,1.11,2.18,0,0,0,0,0,.06s.07.14.1.18a.09.09,0,0,0,0,.05v0a0,0,0,0,1,0,0,.41.41,0,0,0,.15.14l1.75.89.11,0h.15l.1,0-2.1-4.05Z" style="fill:#BA68C8"></path><path d="M376.4,200.76l.11-.07,1.29-1.12.07-.07,1.11-.94a.26.26,0,0,0,.07-.22l1,1.9v0l.35.66h0l.1.17.64,1.26,0,0a.2.2,0,0,1-.07.24l-.66.58-1.79,1.54a.33.33,0,0,1-.13.07Z" style="fill:#fff;opacity:0.30000000000000004"></path><path d="M367.18,204.45a.25.25,0,0,0,.3.08l1-.25,2-.5a.51.51,0,0,0,.24-.13h0l2.1,4-.13.09a.42.42,0,0,1-.14.06l-.88.21-2.15.54a.34.34,0,0,1-.25,0,.14.14,0,0,1-.07-.08l-1.08-2.1Z" style="fill:#fff;opacity:0.7000000000000001"></path><path d="M361.5,204.06l-1.41-.72a.24.24,0,0,1-.12-.09c0,.06.1.23.21.44,0,0,.05.09.08.16l.05.1a.1.1,0,0,1,0,.05c.11.22.24.47.39.74.41.79.87,1.68,1.11,2.18,0,0,0,0,0,.06s.07.14.1.18a.09.09,0,0,0,0,.05v0a0,0,0,0,1,0,0,.41.41,0,0,0,.15.14l1.75.89.11,0h.15l.1,0-2.1-4.05Z" style="fill:#fff;opacity:0.7000000000000001"></path><path d="M362.2,204.28a.53.53,0,0,1-.35-.05l-.35-.17" style="fill:none"></path><path d="M361.41,193.29a.2.2,0,0,0,.08.1l1.37,1a.29.29,0,0,1,.08.4,7.17,7.17,0,0,0-.45.63c-.15.24-.29.49-.42.73a.73.73,0,0,1-.42.31l-2.8.9a.56.56,0,0,0-.35.34l-.31,2.13s0,.06,0,.1a.27.27,0,0,0,.28.08l2.67-.46a.35.35,0,0,1,.41.18,3.59,3.59,0,0,0,.45.87.3.3,0,0,1,0,.4l-2,2a.22.22,0,0,0,0,.21.31.31,0,0,0,.15.12l1.41.72.35.17a.53.53,0,0,0,.35.05.51.51,0,0,0,.17-.07l2.43-1.83a.86.86,0,0,1,.3-.11,1.22,1.22,0,0,1,.27,0,8.06,8.06,0,0,0,1.41.06c.19,0,.35.09.36.22v1.83a.13.13,0,0,0,0,.07.25.25,0,0,0,.3.08l1-.25,2-.5a.71.71,0,0,0,.26-.13.41.41,0,0,0,.13-.18l.59-2a.55.55,0,0,1,.15-.21.65.65,0,0,1,.2-.15,17.34,17.34,0,0,0,1.77-.91.59.59,0,0,1,.31-.08.53.53,0,0,1,.26,0l1.8.63a.72.72,0,0,0,.41,0l.11-.07,1.29-1.12.07-.07,1.11-.94a.26.26,0,0,0,.07-.22s0,0,0,0-.06-.08-.1-.1l-1.37-1a.28.28,0,0,1-.08-.39,9.16,9.16,0,0,0,.87-1.36.55.55,0,0,1,.2-.21,1.13,1.13,0,0,1,.22-.11l2.8-.9a.53.53,0,0,0,.35-.33l.13-.9s0-.08,0-.12l0-.29.05-.35.05-.31a.88.88,0,0,1,0-.16s0,0,0-.06,0-.07-.07-.09a.42.42,0,0,0-.24,0l-2.67.46a.35.35,0,0,1-.41-.17,3.48,3.48,0,0,0-.45-.88.29.29,0,0,1,0-.39l2-2a.2.2,0,0,0,0-.21.26.26,0,0,0-.15-.12l-1.75-.91a.61.61,0,0,0-.53,0l-2.42,1.82a.91.91,0,0,1-.58.13c-.23,0-.46,0-.71-.06s-.46,0-.7,0-.35-.08-.36-.21v-1.83a.08.08,0,0,0,0-.07c0-.08-.17-.12-.31-.08l-3,.75a.57.57,0,0,0-.39.3l-.58,2a.78.78,0,0,1-.36.36,17.17,17.17,0,0,0-1.76.91.72.72,0,0,1-.58,0l-1.78-.62a.58.58,0,0,0-.54.07L361.46,193A.19.19,0,0,0,361.41,193.29Zm12.36-1.14.11,0s.05,0,.08,0l.17.06a1.51,1.51,0,0,1,.17.1l.15.1a1.93,1.93,0,0,1,.89,2,4.6,4.6,0,0,1-.6,1.5,8.82,8.82,0,0,1-5.05,3.39,6.48,6.48,0,0,1-1.89.21l-.56-.05a3.15,3.15,0,0,1-1.32-.51l-.08-.05a.08.08,0,0,1,0,0l-.07,0a2,2,0,0,1-.64-1.86c.3-2,2.83-4.18,5.66-4.88A5.56,5.56,0,0,1,373.77,192.15Z" style="fill:#BA68C8"></path></g></g></svg>